<svg width="693" height="912" viewBox="0 0 693 912" fill="none" xmlns="http://www.w3.org/2000/svg">
<path d="M384.222 646.768C384.849 646.734 385.443 646.847 386.132 647.07L386.434 647.171L386.442 647.174C387.322 647.468 387.968 647.953 388.408 648.634C388.854 649.323 389.115 650.25 389.151 651.464C389.218 653.755 388.481 656.949 386.869 661.16L386.535 662.015L386.534 662.018C385.169 665.506 383.613 671.338 382.399 677.034C381.186 682.721 380.3 688.342 380.3 691.4C380.3 692.183 380.331 692.891 380.566 693.415C380.692 693.697 380.881 693.938 381.156 694.111C381.425 694.279 381.741 694.36 382.088 694.386C382.764 694.436 383.677 694.282 384.887 693.981C385.805 693.752 386.927 693.428 388.294 693.018L389.745 692.578L389.75 692.577C391.494 692.029 393.211 691.531 394.577 691.171C395.261 690.991 395.853 690.846 396.315 690.746C396.795 690.643 397.088 690.6 397.2 690.6C397.209 690.602 397.326 690.628 397.571 690.814C397.802 690.99 398.081 691.257 398.387 691.605C398.997 692.299 399.677 693.268 400.261 694.339C400.874 695.463 401.566 696.49 402.19 697.244C402.5 697.619 402.804 697.938 403.08 698.168C403.218 698.283 403.359 698.385 403.5 698.46C403.635 698.532 403.809 698.6 404 698.6C404.127 698.6 404.246 698.563 404.326 698.535C404.419 698.502 404.521 698.456 404.628 698.405C404.842 698.301 405.109 698.154 405.417 697.971C406.035 697.605 406.851 697.079 407.804 696.44C409.234 695.48 410.987 694.253 412.872 692.898L414.795 691.503L414.804 691.496C419.085 688.211 421.459 686.352 422.748 684.908C423.405 684.172 423.805 683.518 424.032 682.816C424.257 682.12 424.3 681.412 424.3 680.6C424.3 679.827 424.319 679.248 424.375 678.809C424.432 678.365 424.522 678.118 424.623 677.972C424.71 677.846 424.832 677.756 425.068 677.694C425.323 677.626 425.68 677.6 426.2 677.6C427.205 677.6 428.285 677.13 429.472 676.252C430.664 675.371 432.016 674.041 433.574 672.231L437.561 667.712L440.344 673.905L440.348 673.914C441.246 675.811 442.195 677.883 443.02 679.695C443.838 681.492 444.537 683.04 444.94 683.897L446.048 686.624L438.619 689.633C436.403 690.49 434.383 691.424 432.911 692.223C432.177 692.622 431.567 692.993 431.135 693.311C430.921 693.468 430.735 693.624 430.597 693.773C430.528 693.847 430.46 693.932 430.407 694.024C430.357 694.112 430.3 694.242 430.3 694.4C430.3 694.56 430.345 694.72 430.395 694.856C430.447 694.999 430.52 695.153 430.606 695.311C430.778 695.628 431.02 695.997 431.308 696.394C431.741 696.991 432.294 697.67 432.906 698.357L433.536 699.043L433.541 699.048L436.276 701.87L434.171 703.724C432.571 705.124 431.378 707.423 430.894 709.837L430.806 710.321C430.44 712.416 428.946 716.542 427.448 719.839L427.148 720.487C425.749 723.433 424.968 725.193 424.606 727.51C424.292 729.519 424.294 731.935 424.433 735.914L424.5 737.719C424.65 742.655 424.8 745.525 425.236 747.638C425.623 749.52 426.236 750.798 427.232 752.377L427.682 753.075C428.955 755.083 429.749 756.29 430.924 756.927C431.521 757.251 432.19 757.416 433.012 757.502C433.828 757.588 434.829 757.6 436.1 757.6C438.618 757.6 439.873 757.658 441.126 758.285C442.25 758.846 443.395 759.876 445.352 761.846L446.243 762.75L446.246 762.753C447.683 764.19 448.97 765.65 449.894 766.832C450.356 767.424 450.722 767.94 450.969 768.343C451.093 768.545 451.182 768.71 451.239 768.837C451.301 768.979 451.3 769.022 451.3 769C451.3 769.148 451.253 769.509 451.149 770.08C451.047 770.635 450.899 771.35 450.712 772.177C450.432 773.418 450.068 774.904 449.652 776.474L449.218 778.066L449.217 778.069C448.417 781.019 447.777 782.979 447.162 784.245C446.545 785.514 446.007 785.974 445.471 786.117L445.449 786.122L445.429 786.13C445.241 786.198 444.795 786.256 444.077 786.274C443.385 786.291 442.502 786.269 441.49 786.213C439.722 786.116 437.578 785.913 435.403 785.63L434.469 785.505L434.463 785.504L431.582 785.145C429.01 784.839 427.298 784.701 425.858 784.788C424.147 784.892 422.829 785.311 420.948 786.086L420.105 786.44L420.101 786.442C417.827 787.43 413.349 788.973 409.2 790.273C407.129 790.922 405.149 791.507 403.576 791.93C402.79 792.141 402.109 792.311 401.573 792.427C401.1 792.53 400.771 792.581 400.583 792.594C400.546 792.572 400.494 792.542 400.427 792.496C400.257 792.381 400.021 792.205 399.722 791.971C399.125 791.505 398.302 790.829 397.31 789.993C395.326 788.321 392.679 786.023 389.829 783.524H389.828C385.627 779.698 378.958 773.628 373.104 768.26L367.64 763.233L367.639 763.232L360.204 756.39C353.74 750.453 350.003 747.098 347.385 745.161C345.628 743.86 344.342 743.173 343.049 742.774C342.09 742.478 341.139 742.346 340.026 742.225L338.852 742.103C336.405 741.804 334.731 741.696 333.38 741.853C332.001 742.014 330.979 742.448 329.831 743.178L329.824 743.182L329.819 743.187C328.792 743.887 327.875 744.258 326.247 744.389C324.789 744.506 322.782 744.428 319.651 744.205L318.238 744.101H318.235C313.182 743.751 310.001 743.743 306.843 744.697C304.09 745.528 301.384 747.083 297.472 749.7L295.718 750.887L295.715 750.889C293.114 752.69 291.516 753.396 289.858 753.12C289.016 752.979 288.114 752.578 287.024 751.854C286.205 751.31 285.295 750.594 284.239 749.692L283.132 748.726L283.127 748.722L278.945 745.097L280.529 742.457C281.722 740.468 282.373 738.976 282.183 737.619C282.014 736.409 281.199 735.428 279.892 734.364L279.302 733.902L279.29 733.893L278.934 733.622C277.309 732.314 276.244 730.345 275.122 726.595L274.881 725.764C273.286 719.983 272.351 716.742 271.584 714.953C271.202 714.061 270.833 713.457 270.39 713.085C269.916 712.688 269.414 712.6 268.9 712.6C268.256 712.6 267.458 712.937 266.702 713.398C265.931 713.869 265.125 714.518 264.447 715.246C263.799 715.894 263.159 716.508 262.636 716.958C262.373 717.184 262.151 717.36 261.977 717.477C261.933 717.506 261.893 717.529 261.861 717.548C261.814 717.506 261.757 717.453 261.69 717.384C261.474 717.164 261.188 716.839 260.847 716.43C260.169 715.617 259.303 714.504 258.408 713.312C257.545 712.043 256.604 710.897 255.781 710.062C255.371 709.645 254.98 709.295 254.637 709.046C254.466 708.922 254.296 708.817 254.135 708.74C253.981 708.666 253.795 708.6 253.6 708.6C253.326 708.6 253.011 708.723 252.73 708.859C252.425 709.006 252.074 709.212 251.701 709.456C250.954 709.946 250.085 710.611 249.271 711.324L249.251 711.341C248.404 712.164 247.654 712.666 247.035 712.902C246.421 713.136 245.987 713.092 245.691 712.918C245.387 712.74 245.107 712.355 244.956 711.652C244.807 710.952 244.799 709.994 244.992 708.782L244.993 708.783C245.241 707.3 245.343 706.238 244.584 705.246C244.226 704.778 243.697 704.353 242.986 703.893C242.45 703.546 241.791 703.166 240.989 702.724L240.138 702.26L240.136 702.259L239.625 701.979C238.449 701.319 237.392 700.623 236.605 700.016C236.153 699.668 235.801 699.359 235.568 699.11C235.45 698.984 235.373 698.886 235.328 698.814C235.321 698.802 235.316 698.792 235.312 698.784C235.319 698.767 235.329 698.742 235.346 698.71C235.395 698.619 235.475 698.498 235.594 698.349C235.831 698.052 236.185 697.684 236.638 697.268C237.541 696.438 238.797 695.453 240.181 694.514L240.18 694.513C242.601 692.899 243.85 692.134 244.962 691.847C246.037 691.57 247.019 691.732 248.974 692.183V692.184C252.301 693.054 257.188 693.25 262.159 692.911C267.133 692.572 272.251 691.692 276.055 690.374L276.056 690.375L282.528 688.249L287.227 691.319L287.233 691.323C290.221 693.215 292.178 694.268 294.366 694.362C296.267 694.443 298.29 693.799 301.265 692.536L302.602 691.957L302.608 691.954C304.893 690.911 306.578 690.305 308.121 690.003C309.657 689.703 311.078 689.7 312.844 689.896V689.897C315.061 690.149 316.462 690.212 318.304 689.504C319.869 688.903 321.752 687.746 324.798 685.733L326.177 684.816C330.937 681.643 336.554 678.746 340.561 677.423L341.34 677.18L341.352 677.176C343.568 676.471 345.42 675.737 346.816 675.02C347.513 674.662 348.106 674.303 348.574 673.95C349.038 673.6 349.409 673.234 349.632 672.852L349.64 672.838C351.588 669.241 353.063 666.914 354.443 665.413C355.716 664.028 356.9 663.357 358.305 663.049L358.589 662.992H358.594C359.748 662.772 361.52 661.87 363.59 660.574C365.422 659.426 367.539 657.934 369.754 656.234L370.708 655.494L370.71 655.492C376.274 651.081 379.432 648.718 381.616 647.595C382.696 647.04 383.504 646.807 384.222 646.768Z" fill="white" stroke="black"/>
<path d="M501.624 762.005C501.374 762.515 500.984 763.228 500.48 764.099C499.473 765.839 498.029 768.18 496.383 770.724C493.284 775.42 489.566 781.616 487.785 784.944L487.455 785.57L487.452 785.576C485.836 788.809 482.527 792.992 479.142 796.476C477.453 798.215 475.758 799.767 474.262 800.931C472.756 802.102 471.518 802.824 470.714 803.006C470.044 803.101 469.28 803.149 468.579 803.125C467.859 803.1 467.262 803.003 466.903 802.843C466.758 802.778 466.45 802.556 465.98 802.14C465.528 801.739 464.972 801.202 464.345 800.562C463.092 799.285 461.575 797.619 460.08 795.876H460.081C457.676 793.045 455.921 791.017 454.656 789.454C453.386 787.887 452.645 786.83 452.242 785.943C451.854 785.087 451.777 784.38 451.885 783.491C451.998 782.56 452.302 781.479 452.684 779.825C453.085 778.272 453.458 776.802 453.757 775.707C453.907 775.158 454.036 774.712 454.138 774.399C454.19 774.241 454.23 774.129 454.261 774.057C454.262 774.056 454.262 774.053 454.263 774.052C454.457 773.905 454.881 773.635 455.515 773.258C456.192 772.855 457.077 772.348 458.099 771.775C460.143 770.629 462.731 769.221 465.298 767.853C467.865 766.486 470.408 765.16 472.364 764.177C473.342 763.685 474.17 763.28 474.78 762.999C475.085 762.858 475.33 762.751 475.509 762.681C475.599 762.645 475.665 762.621 475.711 762.607C475.719 762.605 475.725 762.603 475.731 762.601C475.824 762.607 476.005 762.637 476.279 762.709C476.572 762.785 476.935 762.899 477.344 763.046C478.162 763.339 479.14 763.754 480.068 764.242L480.079 764.249L480.092 764.255C481.853 765.06 482.946 765.505 484.71 765.425C485.986 765.366 487.619 765.032 490.159 764.407L493.024 763.684L493.029 763.683C495.473 763.035 497.763 762.487 499.475 762.14C500.332 761.966 501.035 761.844 501.537 761.784C501.609 761.775 501.676 761.769 501.738 761.764C501.704 761.836 501.667 761.917 501.624 762.005Z" fill="white" stroke="black"/>
<path d="M573.6 176.7C575.135 176.7 576.669 176.774 577.887 176.897C578.497 176.959 579.021 177.032 579.423 177.112C579.624 177.152 579.788 177.193 579.913 177.232C579.994 177.258 580.048 177.28 580.081 177.296C580.089 177.308 580.099 177.323 580.111 177.343C580.158 177.427 580.222 177.554 580.299 177.728C580.453 178.075 580.648 178.573 580.882 179.21C581.349 180.481 581.956 182.28 582.661 184.477C583.895 188.322 585.426 193.373 587.029 198.928L587.719 201.337C589.92 209.14 591.822 215.424 593.426 220.16C594.925 224.585 596.176 227.7 597.179 229.436L597.376 229.765L597.381 229.773C598.222 231.059 598.964 232.346 599.494 233.357C599.76 233.863 599.97 234.296 600.112 234.622C600.168 234.751 600.211 234.861 600.243 234.948C600.154 235.004 600.033 235.076 599.873 235.157C599.443 235.374 598.807 235.649 598.007 235.959C596.411 236.577 594.201 237.323 591.763 238.019C589.298 238.724 586.957 239.529 585.166 240.235C584.272 240.588 583.509 240.918 582.933 241.201C582.645 241.342 582.398 241.476 582.201 241.596C582.065 241.68 581.927 241.774 581.817 241.876L581.72 241.974C581.58 242.137 581.476 242.379 581.392 242.615C581.301 242.869 581.209 243.188 581.117 243.556C580.935 244.295 580.745 245.269 580.557 246.406C580.227 248.398 579.897 250.914 579.618 253.595L579.502 254.752V254.753C578.661 263.539 578.589 266.222 579.615 269.104L579.836 269.685L579.839 269.693C580.414 271.069 580.808 272.098 581.006 272.831C581.105 273.199 581.148 273.462 581.149 273.643C581.149 273.743 581.136 273.795 581.128 273.818C581.109 273.822 581.073 273.828 581.01 273.825C580.856 273.817 580.623 273.764 580.288 273.642C579.623 273.401 578.692 272.938 577.444 272.263C575.241 271.037 573.484 270.198 572.167 269.831C571.51 269.648 570.917 269.568 570.413 269.646C569.886 269.728 569.453 269.987 569.182 270.446C568.927 270.879 568.849 271.432 568.877 272.051C568.905 272.676 569.045 273.425 569.279 274.293C569.746 276.028 570.613 278.316 571.839 281.193V281.194C572.787 283.44 573.66 285.61 574.295 287.278C574.613 288.113 574.869 288.818 575.046 289.344C575.135 289.607 575.201 289.82 575.245 289.979C575.277 290.094 575.291 290.159 575.296 290.186C575.291 290.203 575.281 290.237 575.257 290.293C575.213 290.397 575.144 290.537 575.047 290.713C574.853 291.063 574.568 291.522 574.209 292.06C573.493 293.135 572.5 294.5 571.406 295.891C570.302 297.297 569.296 298.655 568.564 299.716C568.198 300.245 567.897 300.706 567.685 301.064C567.579 301.243 567.492 301.404 567.429 301.54C567.397 301.607 567.368 301.676 567.346 301.743C567.327 301.802 567.3 301.895 567.3 302C567.3 302.157 567.347 302.328 567.396 302.474C567.449 302.634 567.525 302.821 567.618 303.029C567.805 303.446 568.075 303.979 568.413 304.606C569.091 305.862 570.057 307.524 571.22 309.451C573.547 313.306 576.673 318.239 579.868 323.136C583.064 328.032 586.333 332.897 588.948 336.614C590.256 338.472 591.403 340.048 592.297 341.199C592.744 341.774 593.132 342.249 593.448 342.602C593.606 342.779 593.752 342.93 593.88 343.05C593.971 343.134 594.069 343.218 594.168 343.284L594.269 343.344L594.277 343.347C594.597 343.507 595.039 343.617 595.527 343.694C596.025 343.773 596.611 343.824 597.242 343.849C598.506 343.9 599.982 343.85 601.356 343.697L601.616 343.668L601.74 343.436L603.406 340.337L603.448 340.262L603.46 340.179L604.128 335.954C605.141 334.85 605.927 334.505 606.612 334.36C606.986 334.281 607.339 334.259 607.744 334.223C608.135 334.19 608.563 334.143 609.013 334.004L609.014 334.005C609.432 333.885 609.792 333.915 610.131 334.055C610.482 334.201 610.836 334.474 611.204 334.884C611.764 335.506 612.298 336.371 612.872 337.384L613.462 338.441C613.66 338.826 614.018 339.194 614.406 339.544C614.805 339.905 615.308 340.309 615.812 340.733C616.841 341.601 617.964 342.628 618.773 343.938L618.829 344.029L618.917 344.089C622.248 346.347 626.015 347.02 629.628 347.508C633.131 347.981 636.446 348.283 639.288 349.578C638.296 353.617 637.893 357.813 637.684 360.811C637.673 360.803 637.663 360.794 637.652 360.787C637.552 360.722 637.312 360.615 637.056 360.762C636.855 360.879 636.794 361.077 636.775 361.148C636.728 361.321 636.728 361.547 636.74 361.773C636.76 362.136 636.824 362.66 636.933 363.361L637.058 364.123C637.105 364.401 637.148 364.629 637.187 364.806C637.223 364.972 637.263 365.129 637.313 365.243C637.327 365.274 637.347 365.315 637.375 365.357C637.4 365.394 637.452 365.466 637.542 365.523C637.649 365.591 637.81 365.636 637.985 365.579C638.133 365.53 638.216 365.43 638.251 365.381C638.319 365.286 638.348 365.183 638.36 365.137C638.376 365.076 638.388 365.009 638.399 364.942C638.412 364.855 638.424 364.746 638.436 364.619C639.703 367.743 641.547 372.518 643.284 375.656L643.38 375.829L643.568 375.889L659.294 380.976L660.204 386.947C658.301 388.672 657.06 391.091 656.253 393.705C655.416 396.417 655.032 399.377 654.871 402.074C654.713 404.721 654.769 407.132 654.826 408.828C654.782 408.79 654.742 408.754 654.702 408.721C654.554 408.598 654.416 408.491 654.304 408.422C654.257 408.393 654.163 408.338 654.051 408.314C653.993 408.302 653.877 408.287 653.745 408.337C653.59 408.396 653.487 408.517 653.439 408.645C653.399 408.753 653.403 408.85 653.407 408.899C653.413 408.955 653.424 409.003 653.435 409.039C653.456 409.11 653.487 409.183 653.518 409.249C653.581 409.383 653.675 409.556 653.792 409.76L654.85 411.541C654.87 411.575 654.909 411.637 654.972 411.693C655.027 411.743 655.193 411.87 655.431 411.822C655.658 411.776 655.761 411.607 655.791 411.551C655.828 411.481 655.845 411.414 655.854 411.377C655.872 411.294 655.879 411.189 655.883 411.077C658.409 413.278 663.105 417.21 670.49 421.957V421.958C670.863 422.209 671.171 422.664 671.404 423.362C671.636 424.058 671.777 424.946 671.853 425.994C672.005 428.094 671.89 430.719 671.804 433.515C671.718 436.294 671.661 439.229 671.943 441.886C672.223 444.533 672.846 446.978 674.174 448.734L674.198 448.765L674.227 448.793C678.404 452.804 680.648 455.029 682.334 457.199C684.006 459.351 685.139 461.46 687.059 465.251L691.805 485.678L605.087 443.173C602.609 440.865 600.142 438.09 598.245 435.887C597.298 434.787 596.477 433.812 595.892 433.137C595.598 432.799 595.351 432.521 595.165 432.33C595.074 432.236 594.986 432.152 594.908 432.089C594.871 432.059 594.819 432.019 594.758 431.987C594.735 431.975 594.7 431.96 594.657 431.946C594.608 431.904 594.533 431.836 594.432 431.736C594.217 431.523 593.915 431.205 593.546 430.802C592.809 429.996 591.819 428.875 590.739 427.64C588.621 425.221 586.154 422.368 584.594 420.652C583.95 418.159 583.553 416.586 583.315 415.627C583.363 415.567 583.39 415.511 583.4 415.485C583.426 415.416 583.432 415.355 583.435 415.326C583.444 415.22 583.427 415.083 583.409 414.959C583.389 414.816 583.355 414.623 583.307 414.371C583.258 414.118 583.193 413.802 583.11 413.409L582.797 411.99L582.796 411.986L582.113 408.982C581.912 408.085 581.735 407.294 581.574 406.612C581.246 405.217 580.954 404.133 580.581 403.202C579.917 401.541 579.012 400.404 577.311 398.83L576.531 398.126L572.155 394.224L573.786 387.315L573.785 387.314C574.3 385.207 574.762 383.727 574.924 382.161C575.09 380.564 574.95 378.879 574.323 376.283C573.389 372.415 571.348 366.434 567.52 355.553L563.072 342.933L552.995 314.502L552.299 301.772V301.77L552.135 299.141C551.753 293.352 551.348 289.886 550.09 287.212C548.819 284.51 546.694 282.644 543.048 279.985L541.39 278.793L541.385 278.789L540.026 277.835C536.848 275.584 533.65 273.182 532.422 272.218L530.425 270.48L532.74 266.037C533.646 264.352 534.291 262.935 534.638 261.756C534.983 260.586 535.058 259.574 534.727 258.751C534.385 257.899 533.656 257.362 532.664 257.042C531.684 256.725 530.391 256.6 528.8 256.6H523.602L523.46 256.862L518.861 265.362C517.208 268.416 516.071 270.74 515.396 272.51C514.731 274.254 514.474 275.558 514.715 276.521L514.72 276.54L514.726 276.558C514.855 276.946 515.178 277.441 515.59 277.975C516.014 278.526 516.573 279.168 517.224 279.856C518.363 281.062 519.8 282.429 521.323 283.731L521.981 284.285L521.988 284.291C523.972 285.878 525.575 287.384 526.677 288.62C527.229 289.239 527.646 289.782 527.922 290.225C528.213 290.693 528.3 290.977 528.3 291.1C528.3 291.612 528.229 292.053 528.127 292.349C528.102 292.421 528.077 292.477 528.055 292.521C527.934 292.441 527.772 292.322 527.57 292.163C527.136 291.822 526.547 291.323 525.844 290.701C524.79 289.768 523.49 288.568 522.084 287.226L520.649 285.842C516.845 282.138 513.899 279.716 511.415 278.442C509.059 277.234 507.076 277.038 505.171 277.784L504.803 277.94C504.1 278.241 503.627 278.395 503.25 278.401C502.925 278.406 502.638 278.302 502.301 277.944C501.94 277.561 501.546 276.913 501.051 275.866C500.683 275.087 500.27 274.113 499.781 272.904L499.265 271.615C498.766 270.293 498.354 269.26 497.972 268.458C497.59 267.657 497.221 267.054 496.797 266.615C495.903 265.691 494.855 265.601 493.411 265.6H493.412C491.315 265.55 490.278 265.395 489.274 264.544C488.752 264.101 488.22 263.453 487.573 262.477C486.929 261.504 486.187 260.233 485.238 258.559H485.239C483.847 256.024 482.909 254.495 481.847 253.541C480.887 252.678 479.852 252.307 478.422 252.024L477.784 251.907L477.773 251.905L477.175 251.813C476.613 251.722 476.159 251.631 475.789 251.529C475.295 251.392 474.993 251.244 474.797 251.08C474.441 250.781 474.3 250.31 474.3 249.1C474.3 247.61 475.025 245.791 476.816 243.346C478.378 241.212 480.716 238.648 483.986 235.465L485.445 234.062L485.448 234.058C488.864 230.743 493.097 225.708 494.729 222.955L494.73 222.956C495.984 220.849 496.822 219.643 497.664 218.916C498.469 218.222 499.303 217.942 500.639 217.798L500.64 217.799C501.933 217.695 502.973 217.432 503.856 216.872C504.74 216.311 505.416 215.483 506.039 214.34L506.038 214.339C506.697 213.212 507.358 212.516 508.491 211.932C509.666 211.327 511.357 210.838 514.112 210.186L514.113 210.187C516.622 209.61 518.464 209.185 519.901 208.987C521.337 208.789 522.294 208.832 523.056 209.129C523.807 209.422 524.44 209.992 525.165 211.015C525.714 211.79 526.292 212.788 527.003 214.067L527.762 215.441C528.818 217.402 529.926 219.24 530.874 220.632C531.348 221.327 531.788 221.918 532.165 222.359C532.354 222.579 532.533 222.77 532.698 222.919C532.855 223.059 533.035 223.197 533.225 223.268C533.431 223.345 533.653 223.346 533.85 223.322C534.054 223.297 534.274 223.24 534.502 223.162C534.958 223.006 535.495 222.75 536.072 222.423C537.228 221.767 538.604 220.798 539.923 219.681L539.922 219.68C542.231 217.773 543.49 216.812 545.005 216.271C546.339 215.796 547.898 215.639 550.589 215.54L551.815 215.5H551.821L559.12 215.2L559.485 215.184L559.582 214.834L561.382 208.334C561.885 206.523 562.363 204.536 562.715 202.786C563.065 201.05 563.3 199.506 563.3 198.6C563.3 197.821 563.559 196.4 564.008 194.703C564.453 193.021 565.072 191.115 565.764 189.386C566.473 187.613 567.105 185.617 567.56 183.836C568.011 182.069 568.3 180.467 568.3 179.5V176.7H573.6ZM594.424 431.923C594.426 431.922 594.428 431.922 594.43 431.922C594.428 431.922 594.426 431.922 594.424 431.923Z" fill="white" stroke="black"/>
<mask id="path-4-inside-1_0_60" fill="white">
<path d="M519.4 792C518.2 789.1 517.9 786.5 518.4 783C519 778.4 518.8 777.8 513.9 770.2C511.1 765.8 508.4 761 507.8 759.6C507.3 758.2 506.5 757.1 506.1 757.1C505.7 757.1 501.1 758.4 495.9 760.1C484.8 763.6 484.8 763.6 479.7 761L475.7 759L465.9 764.5C460.4 767.6 455.7 770.1 455.4 770.1C455.1 770.1 454.8 769.4 454.8 768.5C454.8 767.6 451.9 764 448.3 760.5C442.1 754.4 441.5 754.1 436.9 754.1C432.5 754.1 432 753.8 430.1 750.3C428.6 747.6 427.9 744.2 427.6 737.6C427.2 729.1 427.3 728.2 430.5 721.3C432.3 717.3 433.8 712.9 433.8 711.5C433.8 710.2 435.2 707.6 436.9 705.7C439.4 702.8 439.7 701.8 438.9 700.2C438.3 699.1 437 697.7 436 697.2C433.7 695.8 435 694.7 442.3 691.7C445.6 690.4 448.7 688.7 449.1 687.9C450 686.4 439.6 663.1 438 663.1C437.5 663.1 435 665.5 432.4 668.5C428.5 673 427.1 674 424 674.3C420.3 674.6 420.3 674.6 420.6 678.7C421 682.8 420.9 682.9 413.4 688.5C409.2 691.6 405.4 694.1 404.9 694.1C404.4 694.1 403 692.4 401.9 690.4C399.5 686.4 398.5 686.4 388.6 689.5C384.2 690.9 383.8 690.8 383.8 689.3C383.8 684.6 387.1 669.7 390 661.8C392.6 654.4 393 652.3 392.2 649.3C391.4 646.1 390.7 645.4 387.1 644.1L382.8 642.6L375.3 647.9C371.2 650.7 367.4 653.1 366.9 653.1C365.8 653.1 362.8 643.3 362.8 639.6C362.8 638.1 363.3 636.1 363.8 635C365.8 631.3 363.9 628.2 357.1 624.3L350.7 620.6L351.4 616.6C352.5 610 352.5 609.8 348.5 607.2C345.3 605 344.9 604.5 346.2 603.3C347.3 602.1 347.5 599.1 347.1 587.7L346.6 573.6L356.5 568.5L366.3 563.5L366.1 557.5L365.9 551.4L372.1 549.5L378.3 547.6L378.8 540.1L379.3 532.6L382.8 532.2C389.7 531.6 389.6 531.4 377.5 515.8C371.1 507.6 369.8 505.3 368.9 500.4C367.5 493 367.4 493.7 370.9 489.6C374.4 485.7 374.3 484.6 369.8 477.1C368.3 474.5 366.5 470.8 365.7 468.7C364.5 465.5 364.6 464.9 366.1 463.3C367.5 462 369.3 461.6 374.1 461.9C377.5 462 382.3 461.5 384.8 460.8C388.6 459.6 389.7 458.7 391.8 454.7L394.3 450.1H400.1H406L405.3 444.8L404.7 439.6L409.6 435.8C414.5 432.1 414.7 432 419.3 433.1C426.5 434.7 431.4 437.7 434.7 442.4L437.7 446.8L434.8 450.8L431.9 454.7L434.4 458.4C437.2 462.5 439.2 462.9 442.8 460.1C445 458.4 446.9 458.1 457.6 458.1C467.5 458.1 469.8 458.3 469.8 459.5C469.8 460.3 467.6 461.6 464.6 462.6C457.7 464.9 456.7 465.8 457 469.4C457.3 472.2 456.9 472.6 453 474C450.6 474.9 448.1 476.5 447.5 477.6C446.9 478.7 442.3 484.5 437.3 490.6C432.3 496.6 427.7 502.3 426.9 503.3C425.8 504.8 425.9 505.9 427.9 510.6C430.4 516.6 430.3 517.9 426.3 528.2L424.5 532.8L428.2 538.8L432 544.9L428.9 557.3L425.8 569.8L427.4 583.8L429 597.9L424.4 619.5C421.8 631.4 420 641.6 420.3 642.1C420.7 642.6 422.9 643.1 425.2 643.1C428.7 643.1 430.9 642.2 436.1 638.6C439.8 636.1 443.2 634.1 443.7 634.1C444.3 634.1 446.6 636.3 449 639.1C454 644.9 457.1 645.7 457 641.1C457 640.8 456.7 639.6 456.4 638.4C455.9 636.7 456.3 635.9 457.9 635C460.6 633.6 462 634.9 463.7 640.8C464.5 643.8 465.4 645.1 466.7 645.1C468.7 645.1 477.8 635.9 477.8 634C477.8 633.3 476.4 630.3 474.6 627.3L471.5 621.8L475.7 617.8C479.7 614.1 480.2 613.9 484.6 614.5C487.2 614.8 493.5 615.4 498.6 615.7C508.5 616.3 508 616 509 622.5C509.2 623.7 512.4 626.1 517.8 629.1L526.3 633.8L528 641.7C530.6 654.2 536.5 665.8 545.9 676.7C550.4 681.9 557.2 691.4 561 697.9L568.1 709.5L568.8 723.5C569.2 731.3 569.1 738 568.7 738.5C567.6 739.7 564.8 737.3 564.8 735C564.8 733.3 554.7 725.1 552.7 725.1C551.1 725.1 541.8 738.6 542.1 740.5C542.2 741.7 544 743.5 546.2 744.7C549.3 746.4 550.7 746.7 553.2 746C554.9 745.5 556.4 745.1 556.6 745.1C556.7 745.1 556.8 747.8 556.8 751.1V757.1H553.7C552.1 757.1 549.8 757.5 548.7 758.1C546.8 759.2 546.8 759.4 549.9 764.8L553.1 770.4L549 774.2C544.9 778 544.8 778.1 536.9 778.1H528.9L525.3 783.6C521.6 789.5 521.2 791 522.9 792.8C524.1 793.9 523.4 796.1 521.9 796.1C521.4 796.1 520.3 794.2 519.4 792Z"/>
</mask>
<path d="M519.4 792C518.2 789.1 517.9 786.5 518.4 783C519 778.4 518.8 777.8 513.9 770.2C511.1 765.8 508.4 761 507.8 759.6C507.3 758.2 506.5 757.1 506.1 757.1C505.7 757.1 501.1 758.4 495.9 760.1C484.8 763.6 484.8 763.6 479.7 761L475.7 759L465.9 764.5C460.4 767.6 455.7 770.1 455.4 770.1C455.1 770.1 454.8 769.4 454.8 768.5C454.8 767.6 451.9 764 448.3 760.5C442.1 754.4 441.5 754.1 436.9 754.1C432.5 754.1 432 753.8 430.1 750.3C428.6 747.6 427.9 744.2 427.6 737.6C427.2 729.1 427.3 728.2 430.5 721.3C432.3 717.3 433.8 712.9 433.8 711.5C433.8 710.2 435.2 707.6 436.9 705.7C439.4 702.8 439.7 701.8 438.9 700.2C438.3 699.1 437 697.7 436 697.2C433.7 695.8 435 694.7 442.3 691.7C445.6 690.4 448.7 688.7 449.1 687.9C450 686.4 439.6 663.1 438 663.1C437.5 663.1 435 665.5 432.4 668.5C428.5 673 427.1 674 424 674.3C420.3 674.6 420.3 674.6 420.6 678.7C421 682.8 420.9 682.9 413.4 688.5C409.2 691.6 405.4 694.1 404.9 694.1C404.4 694.1 403 692.4 401.9 690.4C399.5 686.4 398.5 686.4 388.6 689.5C384.2 690.9 383.8 690.8 383.8 689.3C383.8 684.6 387.1 669.7 390 661.8C392.6 654.4 393 652.3 392.2 649.3C391.4 646.1 390.7 645.4 387.1 644.1L382.8 642.6L375.3 647.9C371.2 650.7 367.4 653.1 366.9 653.1C365.8 653.1 362.8 643.3 362.8 639.6C362.8 638.1 363.3 636.1 363.8 635C365.8 631.3 363.9 628.2 357.1 624.3L350.7 620.6L351.4 616.6C352.5 610 352.5 609.8 348.5 607.2C345.3 605 344.9 604.5 346.2 603.3C347.3 602.1 347.5 599.1 347.1 587.7L346.6 573.6L356.5 568.5L366.3 563.5L366.1 557.5L365.9 551.4L372.1 549.5L378.3 547.6L378.8 540.1L379.3 532.6L382.8 532.2C389.7 531.6 389.6 531.4 377.5 515.8C371.1 507.6 369.8 505.3 368.9 500.4C367.5 493 367.4 493.7 370.9 489.6C374.4 485.7 374.3 484.6 369.8 477.1C368.3 474.5 366.5 470.8 365.7 468.7C364.5 465.5 364.6 464.9 366.1 463.3C367.5 462 369.3 461.6 374.1 461.9C377.5 462 382.3 461.5 384.8 460.8C388.6 459.6 389.7 458.7 391.8 454.7L394.3 450.1H400.1H406L405.3 444.8L404.7 439.6L409.6 435.8C414.5 432.1 414.7 432 419.3 433.1C426.5 434.7 431.4 437.7 434.7 442.4L437.7 446.8L434.8 450.8L431.9 454.7L434.4 458.4C437.2 462.5 439.2 462.9 442.8 460.1C445 458.4 446.9 458.1 457.6 458.1C467.5 458.1 469.8 458.3 469.8 459.5C469.8 460.3 467.6 461.6 464.6 462.6C457.7 464.9 456.7 465.8 457 469.4C457.3 472.2 456.9 472.6 453 474C450.6 474.9 448.1 476.5 447.5 477.6C446.9 478.7 442.3 484.5 437.3 490.6C432.3 496.6 427.7 502.3 426.9 503.3C425.8 504.8 425.9 505.9 427.9 510.6C430.4 516.6 430.3 517.9 426.3 528.2L424.5 532.8L428.2 538.8L432 544.9L428.9 557.3L425.8 569.8L427.4 583.8L429 597.9L424.4 619.5C421.8 631.4 420 641.6 420.3 642.1C420.7 642.6 422.9 643.1 425.2 643.1C428.7 643.1 430.9 642.2 436.1 638.6C439.8 636.1 443.2 634.1 443.7 634.1C444.3 634.1 446.6 636.3 449 639.1C454 644.9 457.1 645.7 457 641.1C457 640.8 456.7 639.6 456.4 638.4C455.9 636.7 456.3 635.9 457.9 635C460.6 633.6 462 634.9 463.7 640.8C464.5 643.8 465.4 645.1 466.7 645.1C468.7 645.1 477.8 635.9 477.8 634C477.8 633.3 476.4 630.3 474.6 627.3L471.5 621.8L475.7 617.8C479.7 614.1 480.2 613.9 484.6 614.5C487.2 614.8 493.5 615.4 498.6 615.7C508.5 616.3 508 616 509 622.5C509.2 623.7 512.4 626.1 517.8 629.1L526.3 633.8L528 641.7C530.6 654.2 536.5 665.8 545.9 676.7C550.4 681.9 557.2 691.4 561 697.9L568.1 709.5L568.8 723.5C569.2 731.3 569.1 738 568.7 738.5C567.6 739.7 564.8 737.3 564.8 735C564.8 733.3 554.7 725.1 552.7 725.1C551.1 725.1 541.8 738.6 542.1 740.5C542.2 741.7 544 743.5 546.2 744.7C549.3 746.4 550.7 746.7 553.2 746C554.9 745.5 556.4 745.1 556.6 745.1C556.7 745.1 556.8 747.8 556.8 751.1V757.1H553.7C552.1 757.1 549.8 757.5 548.7 758.1C546.8 759.2 546.8 759.4 549.9 764.8L553.1 770.4L549 774.2C544.9 778 544.8 778.1 536.9 778.1H528.9L525.3 783.6C521.6 789.5 521.2 791 522.9 792.8C524.1 793.9 523.4 796.1 521.9 796.1C521.4 796.1 520.3 794.2 519.4 792Z" fill="white" stroke="black" stroke-width="2" mask="url(#path-4-inside-1_0_60)"/>
<path d="M472.197 258.903C474.858 256.944 476.517 256.283 477.98 256.728C478.723 256.954 479.481 257.484 480.334 258.415C481.187 259.346 482.105 260.645 483.174 262.361V262.362C484.765 264.947 485.828 266.517 486.857 267.425C487.385 267.892 487.913 268.193 488.503 268.373C489.085 268.549 489.704 268.6 490.4 268.6C492.225 268.6 493.138 268.803 493.925 269.631C494.341 270.07 494.743 270.707 495.195 271.649C495.533 272.354 495.892 273.213 496.303 274.263L496.733 275.378C497.635 277.884 498.952 280.731 499.691 281.787L499.702 281.804C500.022 282.222 500.309 282.583 500.606 282.837C500.923 283.109 501.275 283.278 501.714 283.288C502.122 283.296 502.558 283.165 503.049 282.959C503.297 282.856 503.575 282.727 503.886 282.574L504.929 282.044L504.935 282.041C506.461 281.228 507.182 280.936 507.864 280.986C508.2 281.011 508.559 281.123 509.033 281.359C509.273 281.478 509.535 281.625 509.83 281.801L510.832 282.422L510.839 282.426C511.699 282.952 513.146 284.102 514.809 285.552C516.463 286.995 518.305 288.712 519.947 290.354C521.602 292.01 523.236 293.543 524.535 294.665C525.184 295.226 525.756 295.691 526.209 296.017C526.435 296.18 526.641 296.315 526.818 296.412C526.906 296.46 526.996 296.504 527.083 296.537C527.105 296.545 527.129 296.55 527.155 296.558C527.161 296.57 527.169 296.582 527.176 296.596C527.251 296.742 527.347 296.974 527.463 297.295C527.693 297.934 527.978 298.86 528.298 299.997C528.937 302.266 529.708 305.336 530.45 308.526C531.193 311.715 531.908 315.018 532.436 317.752C532.943 320.381 533.265 322.432 533.294 323.37C533.223 323.399 533.108 323.435 532.937 323.463C532.504 323.535 531.866 323.55 531.108 323.501C529.599 323.404 527.727 323.062 526.282 322.534C525.614 322.265 524.494 321.49 523.21 320.406C521.94 319.333 520.557 317.999 519.373 316.667C518.156 315.298 516.835 314.051 515.67 313.143C515.089 312.689 514.537 312.313 514.051 312.047C513.585 311.793 513.109 311.6 512.7 311.6C512.427 311.6 512.155 311.694 511.899 311.829C511.639 311.965 511.363 312.162 511.073 312.408C510.491 312.899 509.804 313.628 509.003 314.593C507.599 316.285 505.806 318.749 503.57 322.054L502.584 323.523L502.583 323.524C500.432 326.776 498.405 329.904 496.877 332.333C496.114 333.548 495.472 334.591 495.003 335.387C494.769 335.785 494.575 336.125 494.43 336.396C494.325 336.591 494.236 336.768 494.176 336.911L494.125 337.041C493.912 337.579 493.865 338.251 494.001 339.309C494.14 340.389 494.479 341.931 495.092 344.241C496.013 347.709 497.567 352.955 500.036 361.055L502.823 370.147C505.523 378.9 507.682 385.028 509.722 389.423C511.764 393.822 513.703 396.521 515.984 398.387V398.386C516.696 398.996 517.352 399.409 518.225 399.255C518.63 399.184 519.044 398.995 519.496 398.724C519.948 398.453 520.469 398.079 521.092 397.606C522.687 396.459 523.866 395.84 524.608 395.676C524.981 395.594 525.135 395.65 525.184 395.684C525.212 395.703 525.296 395.78 525.299 396.084C525.296 396.093 525.286 396.137 525.244 396.229C525.19 396.35 525.104 396.511 524.986 396.71C524.749 397.108 524.402 397.627 523.968 398.235C523.318 399.145 522.485 400.239 521.562 401.403L520.612 402.584C518.503 405.145 517.197 406.96 516.108 409.356C515.16 411.44 514.383 413.952 513.367 417.76L512.916 419.472C511.212 425.939 510.198 429.518 509.33 431.486C508.897 432.468 508.527 432.982 508.181 433.257C507.861 433.512 507.514 433.598 507.009 433.599C505.255 433.548 504.529 433.216 504.235 432.626C504.074 432.305 503.998 431.834 504.053 431.129C504.107 430.429 504.286 429.546 504.582 428.433C504.912 427.243 505.11 426.225 505.145 425.369C505.18 424.512 505.054 423.774 504.69 423.177C503.948 421.961 502.4 421.6 500.3 421.6C500.058 421.6 499.759 421.67 499.448 421.767C499.124 421.868 498.739 422.013 498.307 422.193C497.442 422.554 496.358 423.067 495.138 423.685C492.697 424.922 489.684 426.59 486.735 428.319C483.785 430.047 480.891 431.84 478.687 433.33C477.586 434.073 476.65 434.746 475.963 435.3C475.62 435.577 475.331 435.831 475.113 436.054C474.922 436.249 474.734 436.471 474.644 436.697C474.492 437.017 474.463 437.456 474.479 437.894C474.496 438.367 474.569 438.934 474.684 439.554C474.914 440.796 475.321 442.295 475.827 443.763C476.32 445.193 476.688 446.592 476.883 447.699C476.981 448.253 477.032 448.723 477.037 449.079C477.04 449.256 477.031 449.395 477.015 449.496C477.002 449.577 476.987 449.614 476.984 449.623L476.967 449.649L476.952 449.676C476.935 449.71 476.849 449.82 476.609 449.993C476.386 450.153 476.084 450.33 475.721 450.518C474.997 450.892 474.071 451.282 473.135 451.627C472.164 451.935 471.261 452.321 470.59 452.703C470.255 452.893 469.96 453.092 469.742 453.291C469.633 453.391 469.531 453.503 469.452 453.624C469.41 453.69 469.369 453.771 469.34 453.862C469.224 453.908 469.032 453.963 468.752 454.019C468.169 454.135 467.304 454.24 466.21 454.327C464.028 454.5 460.992 454.6 457.6 454.6C447.701 454.6 445.091 454.85 442.538 456.362L442.027 456.681L442.026 456.682C441.074 457.308 440.352 457.762 439.778 458.052C439.194 458.347 438.835 458.434 438.59 458.415C438.386 458.398 438.188 458.3 437.939 457.985C437.678 457.655 437.407 457.145 437.058 456.399C436.625 455.387 436.502 454.767 436.695 454.056C436.876 453.387 437.348 452.594 438.272 451.362L438.696 450.806L438.7 450.8L441.4 447.2L441.613 446.917L441.416 446.623L437.816 441.223C434.06 435.589 428.39 431.778 421.563 430.25L420.898 430.11C419.001 429.71 416.706 429.212 415.809 429.012H415.808C415.44 428.908 414.991 428.976 414.568 429.095C414.099 429.227 413.556 429.451 412.977 429.741C411.819 430.32 410.467 431.187 409.196 432.204C407.916 433.188 406.64 433.997 405.632 434.519C405.127 434.781 404.703 434.963 404.387 435.062C404.237 435.109 404.125 435.13 404.051 435.138C404.009 435.081 403.952 434.989 403.888 434.848C403.787 434.627 403.687 434.333 403.598 433.979C403.421 433.271 403.3 432.361 403.3 431.4C403.3 429.814 403.028 428.568 401.984 426.942C401.092 425.554 399.632 423.881 397.309 421.445L396.259 420.352C387.499 411.293 384.3 405.012 384.3 397.2V391.604L390.617 388.349L390.618 388.35C392.484 387.442 394.228 386.457 395.546 385.608C396.204 385.184 396.764 384.788 397.183 384.45C397.392 384.281 397.573 384.12 397.716 383.972C397.85 383.834 397.985 383.67 398.06 383.497L398.075 383.46L398.085 383.421C398.135 383.223 398.12 383.015 398.083 382.829C398.046 382.637 397.979 382.431 397.892 382.219C397.718 381.796 397.448 381.306 397.108 380.779C396.51 379.855 395.673 378.782 394.691 377.712L394.261 377.254L394.253 377.247L390.426 373.418L395.834 368.573L395.833 368.572C397.927 366.727 399.498 365.505 400.704 364.793C401.853 364.116 402.577 363.959 403.068 364.058L403.162 364.081L403.168 364.082C404.277 364.385 406.382 364.885 407.892 365.187V365.188L410.591 365.789L411.279 365.941L411.197 365.242L410.597 360.142H410.596C410.344 357.721 410.266 356.512 410.661 355.348C411.063 354.168 411.964 352.992 413.881 350.722L413.882 350.723L413.888 350.716C414.99 349.364 416.067 348.01 416.92 346.906C417.762 345.817 418.413 344.936 418.634 344.548C418.767 344.315 418.762 344.054 418.728 343.849C418.692 343.634 418.61 343.4 418.502 343.159C418.285 342.673 417.924 342.075 417.448 341.39C416.494 340.015 415.028 338.223 413.171 336.165L412.8 336.5L413.171 336.165L413.164 336.158L407.129 329.734L407.795 325.172L407.796 325.164C407.945 323.997 408.061 323.084 408.09 322.353C408.119 321.618 408.064 321.011 407.835 320.468C407.603 319.919 407.215 319.49 406.682 319.069C406.288 318.758 405.794 318.435 405.195 318.063L404.561 317.673C403.108 316.771 402.322 316.145 401.939 315.582C401.757 315.315 401.671 315.067 401.648 314.807C401.624 314.541 401.664 314.235 401.778 313.848C402.227 312.4 402.564 311.262 402.765 310.339C402.965 309.419 403.04 308.668 402.931 308.006C402.706 306.639 401.719 305.827 400.198 304.699H400.198L400.189 304.692L399.578 304.248C398.988 303.803 398.463 303.363 398.058 302.976C397.787 302.717 397.58 302.491 397.446 302.311C397.4 302.251 397.367 302.2 397.343 302.159C397.413 302.079 397.519 301.973 397.663 301.84C397.985 301.545 398.46 301.155 399.055 300.696C400.243 299.78 401.884 298.612 403.677 297.416C405.492 296.207 407.26 294.868 408.641 293.665C409.331 293.063 409.931 292.49 410.394 291.978C410.789 291.541 411.115 291.117 411.297 290.739L411.366 290.58L411.479 290.288C411.736 289.671 412.049 289.288 412.458 289.04C412.942 288.748 413.634 288.6 414.7 288.6C415.578 288.6 416.319 288.603 416.922 288.463C417.572 288.313 418.076 287.997 418.488 287.395C418.875 286.828 419.174 286.017 419.485 284.902C419.798 283.778 420.138 282.284 420.586 280.317C421.28 277.444 421.63 275.785 421.549 274.554C421.474 273.414 421.031 272.654 420.317 271.709L419.993 271.291C419.541 270.689 419.221 270.261 419.012 269.929C418.792 269.58 418.76 269.432 418.762 269.376C418.762 269.371 418.755 269.314 418.943 269.164C419.143 269.003 419.454 268.819 419.935 268.54C420.6 268.209 421.022 268.124 421.366 268.191C421.668 268.25 421.998 268.444 422.428 268.908L422.618 269.123C423.009 269.619 423.791 270.342 424.704 271.108C425.406 271.696 426.205 272.326 427.008 272.923L427.81 273.507L431.498 276.298L431.718 276.464L431.975 276.369L441.075 272.968C446.683 270.865 451.757 268.239 454.133 266.072L454.134 266.073C455.562 264.792 456.743 263.953 458.078 263.357C459.414 262.76 460.934 262.394 463.057 262.097C466.398 261.715 469.582 260.617 471.767 259.196L472.191 258.907L472.197 258.903ZM469.3 454.1C469.3 454.075 469.303 454.051 469.307 454.03C469.305 454.053 469.3 454.076 469.3 454.1Z" fill="white" stroke="black"/>
<path d="M527.808 0.987961C527.907 0.965958 528.12 0.97443 528.469 1.07683C528.801 1.17461 529.202 1.34175 529.646 1.56999C530.424 1.96926 531.301 2.53855 532.128 3.19597L532.478 3.4821L532.481 3.48503L535.735 6.18132L534.016 12.6725L534.015 12.6755C533.272 15.5757 532.664 17.7874 532.476 19.4811C532.286 21.1968 532.51 22.5208 533.564 23.5456C534.567 24.5205 536.254 25.1469 538.73 25.7321C540.604 26.1749 542.997 26.6072 546.002 27.1325L549.214 27.6921L549.217 27.693C552.458 28.2416 555.573 28.8648 557.961 29.4245C559.155 29.7045 560.162 29.9667 560.91 30.195C561.284 30.3093 561.587 30.4131 561.812 30.5036C561.925 30.5488 562.013 30.5889 562.078 30.6227C562.11 30.6395 562.135 30.6528 562.152 30.6637L562.175 30.6794L562.177 30.6813C563.575 31.8679 563.654 34.0545 562.709 36.0895C561.768 38.1127 559.935 39.6998 557.9 39.6999C557.001 39.6999 556.208 39.77 555.443 40.0065C554.674 40.2446 553.96 40.643 553.207 41.2643C551.91 42.3337 550.456 44.0983 548.344 46.9255L547.397 48.2038L547.395 48.2057C546.394 49.5832 545.626 50.6284 544.986 51.4196C544.344 52.2134 543.852 52.7226 543.407 53.0456C542.977 53.3574 542.586 53.4983 542.127 53.5426C541.646 53.5891 541.076 53.5308 540.277 53.4059H540.276C538.829 53.1485 537.702 53.1402 536.386 53.6745C535.268 54.1288 534.035 54.9673 532.341 56.3063L531.591 56.9069C529.006 58.945 527.524 60.2024 526.593 61.8122C525.662 63.4202 525.303 65.3428 524.806 68.6198C524.478 70.6417 524.277 72.0743 524.015 73.1139C523.754 74.153 523.46 74.6639 523.043 74.9499C522.608 75.2478 521.931 75.3782 520.696 75.3581C520.084 75.3481 519.368 75.3025 518.518 75.238L515.539 75.0016H515.535C513.011 74.8267 511.026 74.736 509.492 74.8239C507.97 74.9112 506.804 75.1767 505.988 75.7868C505.142 76.4196 504.757 77.3546 504.638 78.5583C504.536 79.5972 504.625 80.892 504.816 82.4714L504.904 83.1657L504.905 83.1735C505.108 84.5423 505.412 85.9865 505.743 87.194C505.908 87.7976 506.082 88.3489 506.255 88.8044C506.423 89.2479 506.605 89.641 506.8 89.9001L506.801 89.8991C507.063 90.2643 507.559 90.5628 508.139 90.821C508.752 91.0932 509.551 91.3602 510.507 91.6198C512.421 92.1396 515.017 92.642 518.127 93.0934V93.0944C520.82 93.4934 523.384 93.9415 525.321 94.3512C526.291 94.5564 527.096 94.7503 527.677 94.9216C527.969 95.0075 528.195 95.0846 528.353 95.151C528.433 95.1844 528.487 95.2118 528.519 95.2311C528.526 95.2349 528.53 95.2385 528.534 95.2409L528.547 95.2536C528.544 95.2506 528.556 95.2637 528.584 95.3063C528.61 95.3463 528.642 95.401 528.68 95.4733C528.756 95.6182 528.846 95.8144 528.948 96.0592C529.151 96.5481 529.39 97.2074 529.65 97.9948C530.041 99.1753 530.474 100.631 530.897 102.209L531.315 103.821V103.823L533.26 111.506L528.99 117.814C527.615 119.789 526.593 121.374 525.985 122.637C525.392 123.869 525.116 124.943 525.476 125.805C525.849 126.698 526.799 127.138 528.024 127.38C529.275 127.626 531 127.7 533.2 127.7C535.907 127.7 537.672 127.576 539.338 127.051C540.792 126.593 542.143 125.838 543.966 124.651L544.777 124.116L544.779 124.115C547.7 122.151 549.209 121.222 550.945 120.93C552.697 120.636 554.721 120.983 558.7 121.789V121.79C561.154 122.29 562.765 122.529 564.455 122.385C566.138 122.242 567.868 121.721 570.566 120.772L570.565 120.771C574.572 119.369 577.111 118.73 579.038 118.825C580.903 118.916 582.242 119.699 583.841 121.346V121.347L586.309 123.905L579.135 131.558L571.635 139.558L571.45 139.757L571.514 140.02L575.415 155.82L575.416 155.823C576.514 160.167 577.462 164.26 578.097 167.35C578.415 168.897 578.654 170.187 578.795 171.13C578.865 171.602 578.909 171.979 578.927 172.254C578.937 172.391 578.938 172.494 578.935 172.566C578.934 172.595 578.931 172.614 578.929 172.625C578.885 172.727 578.78 172.859 578.515 172.998C578.238 173.143 577.824 173.275 577.235 173.383C576.058 173.6 574.296 173.7 571.801 173.7H564.301V178.7C564.301 181.208 563.226 185.633 561.842 189C561.13 190.626 560.497 192.5 560.042 194.195C559.59 195.877 559.301 197.431 559.301 198.4C559.301 200.138 558.712 203.789 558.016 206.574L556.805 211.226L550.165 211.701C547.071 211.901 545.133 212.128 543.549 212.677C541.945 213.234 540.738 214.11 539.077 215.519L539.071 215.523L539.065 215.528C538.08 216.415 537.048 217.226 536.182 217.811C535.749 218.104 535.365 218.335 535.055 218.491C534.9 218.569 534.771 218.624 534.669 218.659C534.634 218.671 534.603 218.677 534.578 218.683C534.562 218.672 534.54 218.659 534.515 218.639C534.417 218.559 534.288 218.434 534.13 218.261C533.815 217.917 533.418 217.418 532.968 216.795C532.07 215.552 530.983 213.848 529.943 211.967C528.898 209.977 528.081 208.443 527.28 207.323C526.471 206.192 525.644 205.433 524.556 205.042C523.484 204.656 522.226 204.654 520.612 204.884C519.4 205.057 517.948 205.368 516.173 205.775L514.288 206.213C509.967 207.206 507.599 207.768 506.176 208.434C505.441 208.778 504.93 209.161 504.521 209.66C504.223 210.025 503.99 210.439 503.766 210.909L503.543 211.397L503.538 211.41C502.973 212.782 501.807 213.609 499.503 214.027L499.027 214.105L499.013 214.108C497.275 214.415 496.111 214.788 494.945 215.885C493.823 216.942 492.712 218.659 490.972 221.542L491.4 221.8L490.971 221.542L490.969 221.549C489.026 224.878 485.244 229.443 482.424 232.031L481.874 232.521C477.768 236.027 475.114 238.745 473.495 241.469C471.862 244.217 471.301 246.936 471.301 250.4C471.301 253.795 470.865 255.692 469.559 256.909C468.898 257.525 467.978 258.002 466.679 258.386C465.38 258.771 463.732 259.054 461.64 259.303C459.522 259.556 457.937 259.888 456.468 260.557C455.181 261.143 454.009 261.975 452.652 263.19L452.068 263.725C451.236 264.463 449.801 265.392 448.032 266.378C446.272 267.358 444.21 268.38 442.145 269.306C440.081 270.233 438.021 271.061 436.264 271.656C434.504 272.252 433.112 272.591 432.325 272.598C432.312 272.594 432.278 272.584 432.218 272.557C432.115 272.511 431.975 272.439 431.802 272.337C431.456 272.133 431.004 271.833 430.479 271.457C429.431 270.705 428.119 269.665 426.831 268.525H426.832L426.822 268.517L425.333 267.28C424.887 266.917 424.487 266.601 424.124 266.331C423.401 265.792 422.797 265.411 422.236 265.186C421.66 264.956 421.133 264.892 420.577 264.974C420.04 265.054 419.498 265.268 418.891 265.546C417.705 266.089 417.156 266.201 416.491 265.925C416.123 265.773 415.694 265.489 415.116 265.01C414.542 264.535 413.85 263.893 412.954 263.047L409 259.092L408.781 259.1L400.781 259.4L392.914 259.692L389.171 255.564L389.167 255.56L388.495 254.829C387.03 253.217 386.268 252.229 385.844 251.089C385.356 249.777 385.301 248.224 385.301 245.2C385.301 242.287 385.379 240.693 385.825 239.344C386.267 238.007 387.082 236.873 388.683 234.922C391.326 231.77 392.301 229.56 392.301 226.7C392.301 224.403 393.033 222.422 394.98 219.924L395.386 219.418L395.391 219.411C396.162 218.441 396.755 217.696 397.173 217.099C397.584 216.511 397.869 216.007 397.966 215.523C398.071 214.996 397.944 214.549 397.677 214.113C397.49 213.809 397.221 213.49 396.903 213.133L396.571 212.764C392.903 208.689 385.525 204.049 378.967 201.728H378.966C377.174 201.081 375.461 200.41 374.135 199.84C373.472 199.555 372.911 199.298 372.488 199.083C372.277 198.975 372.104 198.881 371.974 198.801C371.836 198.717 371.772 198.665 371.754 198.646L371.74 198.632L371.725 198.621L371.682 198.574C371.582 198.439 371.491 198.112 371.674 197.355C371.871 196.536 372.347 195.398 373.141 193.91C374.725 190.941 377.508 186.69 381.604 180.995C385.898 175.103 388.318 171.677 389.66 169.309C390.334 168.12 390.748 167.178 390.991 166.308C391.235 165.434 391.301 164.654 391.301 163.8C391.301 163.167 391.437 162.501 391.643 161.951C391.746 161.677 391.863 161.441 391.98 161.257C392.093 161.083 392.192 160.979 392.261 160.927C392.264 160.926 392.268 160.925 392.271 160.924C392.288 160.916 392.312 160.907 392.344 160.897C392.407 160.876 392.49 160.853 392.596 160.828C392.809 160.776 393.092 160.72 393.44 160.662C394.135 160.545 395.066 160.421 396.169 160.297C397.821 160.11 399.846 159.924 402.019 159.757L404.233 159.599L404.236 159.598C407.692 159.348 410.535 159.047 412.621 158.693C413.663 158.516 414.529 158.324 415.193 158.114C415.525 158.009 415.817 157.896 416.059 157.774C416.291 157.657 416.504 157.515 416.662 157.341L416.664 157.343C416.951 157.039 417.179 156.562 417.368 156.028C417.563 155.478 417.737 154.807 417.889 154.063C418.195 152.573 418.422 150.75 418.549 148.934C418.675 147.119 418.7 145.295 418.598 143.803C418.547 143.058 418.465 142.384 418.342 141.831C418.238 141.363 418.095 140.926 417.881 140.608L417.784 140.48C417.533 140.14 417.137 139.878 416.668 139.669C416.175 139.449 415.552 139.265 414.814 139.111C413.338 138.803 411.333 138.601 408.824 138.501H408.825C405.826 138.351 403.846 138.152 402.3 137.754C400.775 137.36 399.66 136.769 398.405 135.803L398.399 135.799L398.392 135.795L398.071 135.554C397.33 134.982 396.658 134.336 396.155 133.75C395.868 133.414 395.643 133.107 395.494 132.853C395.419 132.726 395.368 132.62 395.337 132.536C395.321 132.494 395.311 132.461 395.305 132.436C395.303 132.424 395.301 132.415 395.301 132.409C395.3 132.404 395.301 132.401 395.301 132.4C395.301 132.423 395.297 132.411 395.315 132.342C395.331 132.283 395.357 132.201 395.395 132.095C395.472 131.885 395.588 131.605 395.742 131.258C396.05 130.566 396.5 129.635 397.063 128.519C398.189 126.289 399.759 123.338 401.526 120.116C404.62 114.476 408.313 108.016 411.294 103.148L412.523 101.167L412.525 101.164C414.036 98.7275 417.664 94.8176 422.716 90.1286C427.438 85.7453 433.37 80.7122 439.893 75.6159L441.206 74.5954L441.207 74.5944C448.143 69.2049 460.207 60.7123 470.804 53.5641C476.102 49.9908 481.029 46.7573 484.76 44.4176C486.626 43.2473 488.188 42.3035 489.346 41.654C489.926 41.3288 490.398 41.0815 490.752 40.9167C490.929 40.8341 491.069 40.7755 491.175 40.7389C491.293 40.6978 491.323 40.6998 491.301 40.6999C491.775 40.7 492.838 40.9065 494.209 41.2712C495.557 41.6298 497.142 42.1249 498.628 42.6696C500.142 43.2248 501.758 43.7301 503.138 44.0846C503.828 44.2617 504.464 44.4023 505.003 44.4928C505.507 44.5776 505.962 44.6228 506.301 44.5993V44.6003C506.73 44.6002 507.252 44.4614 507.805 44.2546C508.37 44.0434 509.013 43.7432 509.696 43.3825C511.063 42.6608 512.626 41.6807 514.113 40.6344C515.6 39.5884 517.025 38.4678 518.114 37.4645C518.658 36.9635 519.127 36.484 519.479 36.0514C519.776 35.687 520.027 35.3129 520.145 34.9606L520.187 34.8112L520.19 34.7985C520.326 34.1186 520.324 33.468 520.022 32.8864C519.72 32.3052 519.166 31.8837 518.397 31.5534C517.076 30.9855 514.915 30.6055 511.627 30.2526L510.148 30.1022H510.147C508.305 29.9279 506.845 29.73 505.74 29.4938C504.618 29.2539 503.926 28.9872 503.563 28.7135C503.391 28.5835 503.323 28.4744 503.297 28.3952C503.272 28.3211 503.267 28.2185 503.326 28.0612C503.457 27.7124 503.853 27.2268 504.621 26.5827L504.622 26.5837L504.63 26.5759C504.897 26.342 505.181 25.9284 505.463 25.4411C505.754 24.9373 506.071 24.3013 506.394 23.5788C507.041 22.1335 507.722 20.3135 508.278 18.444L508.279 18.445C509.289 15.1137 509.763 13.5518 510.958 12.1344C512.021 10.8735 513.662 9.71696 516.821 7.65984L518.271 6.72038L518.282 6.71355C520.474 5.21879 522.666 3.82431 524.419 2.77995C525.296 2.25755 526.059 1.82442 526.656 1.5114C526.954 1.35492 527.207 1.23055 527.409 1.1403C527.62 1.04618 527.748 1.00133 527.808 0.987961Z" fill="white" stroke="black"/>
<path d="M397.729 41.7547C397.801 41.8517 397.887 42.0309 397.969 42.3182C398.131 42.8872 398.238 43.7358 398.286 44.7996C398.383 46.9167 398.245 49.7674 397.941 52.66C397.636 55.5515 397.166 58.4615 396.61 60.6961C396.331 61.8154 396.035 62.7474 395.734 63.4178C395.583 63.7536 395.437 64.0078 395.304 64.1824C395.196 64.3242 395.115 64.3855 395.071 64.4109C395.062 64.4094 395.05 64.4088 395.036 64.4051C394.967 64.3867 394.865 64.347 394.728 64.2742C394.454 64.1289 394.099 63.8869 393.686 63.5584C392.965 62.986 392.105 62.1833 391.24 61.2645L390.87 60.8641L390.868 60.8621L390.284 60.2176C389.005 58.7847 388.293 57.8187 387.878 56.7557C387.404 55.541 387.3 54.1539 387.3 51.7C387.3 50.5273 387.319 49.6128 387.376 48.8885C387.434 48.1608 387.53 47.6555 387.668 47.2889C387.801 46.9362 387.972 46.7143 388.198 46.5447C388.436 46.3653 388.762 46.2232 389.243 46.0789L389.251 46.077L389.258 46.074C390.509 45.6569 392.756 44.5326 394.296 43.4031L394.295 43.4022C394.97 42.921 395.718 42.4878 396.366 42.1756C396.691 42.0191 396.985 41.8967 397.227 41.8143C397.456 41.736 397.604 41.7071 397.678 41.702C397.688 41.7098 397.706 41.7237 397.729 41.7547Z" fill="white" stroke="black"/>
<path d="M557.306 731.703V731.704C560.606 734.104 561.928 735.79 562.103 737.452L562.104 737.463L562.106 737.475C562.265 738.537 562.593 739.41 563.235 740.152C563.79 740.794 564.552 741.305 565.56 741.767L566.008 741.962L566.011 741.963C567.342 742.505 568.085 742.964 568.575 743.613C569.071 744.27 569.357 745.188 569.606 746.777L569.608 746.785L569.609 746.794C569.96 748.64 570.925 753.163 571.898 757.416L572.313 759.214L572.316 759.226C574.049 765.899 574.421 770.043 574.823 796.386L575 809.106L575.498 850.493L569.146 864.391L562.839 878.086L550.756 881.721L550.75 881.723C547.397 882.774 544.191 883.825 541.734 884.69C540.506 885.123 539.46 885.511 538.675 885.829C538.283 885.988 537.95 886.131 537.69 886.257C537.506 886.345 537.332 886.437 537.197 886.528L537.1 886.6C536.927 886.729 536.789 886.911 536.676 887.099C536.56 887.292 536.455 887.521 536.357 887.774C536.161 888.281 535.983 888.924 535.823 889.656C535.505 891.122 535.253 892.996 535.102 894.961C534.805 898.72 533.715 903.764 532.737 906.312C531.986 908.165 531.415 909.231 530.827 909.841C530.286 910.403 529.708 910.597 528.81 910.599C528.137 910.549 527.42 910.454 526.789 910.323C526.152 910.191 525.652 910.032 525.369 909.877C525.316 909.839 525.244 909.758 525.234 909.503C525.222 909.215 525.294 908.778 525.5 908.142C525.911 906.874 526.792 904.983 528.242 902.233L528.241 902.232C529.345 900.177 530.35 898.169 531.079 896.584C531.444 895.792 531.743 895.1 531.951 894.558C532.055 894.287 532.14 894.047 532.198 893.848C532.253 893.663 532.3 893.465 532.3 893.3C532.3 893.186 532.273 893.071 532.247 892.98C532.219 892.882 532.18 892.771 532.134 892.652C532.041 892.415 531.907 892.118 531.74 891.775C531.406 891.088 530.926 890.185 530.336 889.131C529.451 887.549 528.313 885.616 527.038 883.544L525.723 881.433C521.491 874.569 518.032 870.314 514.351 867.214L513.612 866.608C512.128 865.422 510.773 864.164 509.793 863.099C509.303 862.565 508.915 862.089 508.653 861.7C508.521 861.506 508.428 861.342 508.369 861.212C508.34 861.147 508.321 861.096 508.311 861.058C508.306 861.039 508.304 861.024 508.302 861.014C508.3 861.004 508.3 860.999 508.3 861C508.3 860.574 508.47 859.69 508.772 858.523C509.068 857.379 509.478 856.018 509.925 854.67C510.372 853.321 510.856 851.992 511.3 850.91C511.753 849.809 512.139 849.029 512.387 848.717C512.392 848.711 512.406 848.7 512.43 848.682C512.463 848.657 512.508 848.626 512.57 848.59C512.693 848.518 512.861 848.436 513.073 848.347C513.496 848.167 514.065 847.97 514.743 847.767C516.095 847.361 517.847 846.94 519.679 846.593L519.68 846.594C523.689 845.942 526.776 845.237 528.869 844.483C529.913 844.108 530.741 843.71 531.318 843.281C531.883 842.861 532.3 842.337 532.3 841.7C532.3 841.494 532.253 841.193 532.184 840.858C532.112 840.511 532.01 840.088 531.883 839.619C531.629 838.681 531.275 837.542 530.87 836.429C530.491 835.384 530.07 833.234 529.695 830.592C529.368 828.295 529.08 825.662 528.879 823.139L528.799 822.065C528.298 814.146 527.492 810.077 525.656 805.996H525.656C524.407 803.197 523.679 801.218 523.428 799.953C523.3 799.308 523.315 798.932 523.38 798.741C523.408 798.66 523.437 798.638 523.448 798.631C523.46 798.622 523.499 798.6 523.6 798.6C523.811 798.6 524.037 798.54 524.247 798.464C524.466 798.384 524.705 798.273 524.95 798.14C525.435 797.878 525.974 797.517 526.487 797.109C526.93 796.813 527.305 796.546 527.573 796.273C527.853 795.987 528.054 795.656 528.074 795.237C528.094 794.845 527.949 794.456 527.739 794.061C527.527 793.664 527.215 793.195 526.821 792.628C526.061 791.412 525.798 790.886 525.896 790.153C525.948 789.761 526.11 789.281 526.431 788.599C526.75 787.919 527.21 787.072 527.835 785.946L530.291 781.6H545.59L545.733 781.474L551.233 776.573L551.236 776.57L556.636 771.67L556.912 771.419L556.75 771.083L554.05 765.482L554.049 765.479L551.672 760.639L554.641 760.398L554.652 760.397C556.098 760.248 557.158 760.042 557.918 759.56C558.722 759.05 559.12 758.281 559.385 757.222L559.384 757.221C559.951 755.197 560.2 751.698 560.175 748.646C560.162 747.109 560.081 745.661 559.93 744.546C559.855 743.99 559.761 743.5 559.644 743.117C559.585 742.926 559.516 742.748 559.434 742.597C559.362 742.465 559.259 742.319 559.112 742.211L559.113 742.21C559.105 742.204 559.095 742.198 559.087 742.192C559.081 742.188 559.075 742.182 559.069 742.178L559.068 742.179C558.824 742.006 558.493 741.939 558.198 741.911C557.859 741.879 557.454 741.888 557.018 741.927C556.144 742.005 555.089 742.212 554.063 742.52C552.694 742.911 551.685 743.045 550.769 742.965C549.855 742.885 548.993 742.588 547.923 742.053C547.146 741.664 546.452 741.232 545.959 740.845C545.712 740.65 545.528 740.477 545.412 740.338C545.357 740.272 545.33 740.226 545.315 740.199C545.322 740.18 545.33 740.157 545.342 740.129C545.388 740.021 545.46 739.872 545.559 739.686C545.756 739.313 546.047 738.815 546.412 738.227C546.96 737.345 547.669 736.273 548.471 735.143L549.302 733.998L549.306 733.992L553.114 728.697L557.306 731.703Z" fill="white" stroke="black"/>
<g filter="url(#filter0_d_0_60)">
<mask id="path-9-inside-2_0_60" fill="white">
<path d="M223.8 691.9C216.8 686.6 216.1 685.6 212.9 677C211 672.2 207.4 667 193.9 650.1L191.2 646.7L184.9 649.4L178.6 652.1L172.3 646L165.9 639.9L158.6 640.5C154.6 640.9 150.6 641.4 149.7 641.7C148.9 641.9 145.6 647.4 142.5 653.8C138.2 662.7 136.6 667.1 136.2 671.8C135.7 676.1 134.9 678.6 133.6 679.8C131.7 681.5 131.5 681.4 128.9 678.1C127 675.8 125.6 674.9 124.5 675.4C121.4 676.5 107.3 686.3 103.7 689.8L100.1 693.2L97 690.5C93.2 687.4 93.1 686.6 95.4 663.9C96.3 655.1 96.7 647.3 96.5 646.6C96.2 645.9 94.5 645 92.8 644.6C90.6 644.1 88.6 642.3 85.7 638.4C82.1 633.5 81.7 632.4 82.2 629C82.5 627 83.1 624.5 83.4 623.7C83.8 622.6 82.7 621.3 79.4 619.3C76.6 617.6 74.9 615.8 74.8 614.7C74.8 612.6 71 605.6 67.1 600.3C65.4 597.9 63.6 596.9 60.7 596.4C57 595.8 56.8 595.7 58.4 594C59.7 592.5 59.8 591.6 58.9 588.8C56.8 582.6 55.7 582.2 40.8 581.8L27.3 581.6L27 576.8C26.8 573.7 27.4 570.6 28.8 567.5C29.9 564.9 30.8 561.9 30.8 560.9C30.8 559.8 28.7 556 26.2 552.5C22.5 547.3 21.5 544.9 20.8 539.7C19.7 532.4 19 530.1 17.7 530.1C15.4 530.1 15.9 526.9 18.9 522.8L22.1 518.2L18.4 499.4L14.8 480.6L9.70001 475.5L4.59998 470.3L10.3 464.6C15.7 459.2 16.3 458.9 19.9 459.3C25.2 460.1 26.3 458.3 27.7 447.1C28.4 441.8 29.2 436.8 29.5 435.8C29.7 434.8 32.9 430.7 36.4 426.8C39.9 422.8 42.8 418.8 42.8 417.9C42.8 415.1 27.4 392.8 22.8 388.8C18.7 385.3 18.3 384.5 16.3 375.3C15.1 370 14.3 364.9 14.5 364.1C14.9 362.5 21 358.1 22.8 358.1C23.3 358.1 24.7 359.9 25.8 362.1C28.5 367.4 30.8 367.3 33.6 361.6C36.3 356 38.4 354.7 48.7 352.1C57.1 350.1 58.8 350.1 58.8 352.5C58.8 354.6 64.7 359.1 67.4 359.1C68.7 359.1 75.1 356.9 81.6 354.2C88 351.5 94.3 349 95.5 348.7C98.8 347.6 99 345.5 96.3 339.4C93.4 333 93.3 331.2 95.2 328.5C96.4 326.9 97.7 326.7 104.2 326.9C111.5 327.2 112 327.1 115.4 324.1C117.3 322.5 119.3 321.1 119.7 321.1C120.2 321.1 125.2 325.2 130.9 330.3C138.8 337.5 140.7 339.6 139.2 339.9C137.1 340.3 134.8 341.9 134.8 343.1C134.8 343.5 138.3 346.4 142.5 349.6C149.3 354.7 152 356 163.7 359.8C181.6 365.5 181.7 365.4 176.5 349.8C174.5 343.6 172.8 337.7 172.8 336.8C172.8 335.4 174.1 335.2 182.1 335.4L191.3 335.6L193.3 329.8C194.4 326.7 195.9 323.9 196.7 323.6C197.5 323.3 200.9 322.7 204.2 322.4C212.1 321.6 214 320.6 213.3 317.8C212.8 316.1 213.8 314.6 217.3 311.2C219.8 308.8 221.8 306.5 221.8 306C221.8 305.5 218.7 302.7 214.8 299.9C207.6 294.7 207.2 294.1 206.5 285.8C206 280.2 206.4 279.6 214.6 275C232.6 264.8 244.3 257.5 250.3 252.5C256.4 247.5 257.5 247 261.2 247.3C265.6 247.6 265.5 247.4 264.1 254.2C263.8 255.8 264.1 257 265 257.3C266.4 257.8 298.6 251 300.6 249.7C301.3 249.3 305.6 241.4 310.3 232.2L318.8 215.4L326.8 211.2C334.7 207.1 334.9 207.1 340.5 208.1C344.8 208.9 346.8 209.9 348.5 211.9C349.7 213.4 350.8 215 350.8 215.4C350.8 215.7 351.7 216.3 352.8 216.7C355.8 217.6 366.6 209.9 368.4 205.5C370.1 201.6 369.9 201.6 380.1 205.7C386.1 208.1 393.8 213.6 393.8 215.3C393.8 215.9 392.9 217.5 391.8 218.9C390.7 220.3 389.8 222.8 389.8 224.4C389.8 227.9 388.5 230.5 384.7 235C382.1 237.9 381.8 238.9 381.8 245.4C381.8 251.5 382.2 253.1 383.8 254.5C384.9 255.5 386 257.1 386.3 258.1C387.3 261.3 394 263.4 401.1 262.6L407.5 261.9L413 268L418.6 274.2L417.4 279.4C416.3 284.2 416 284.6 412.8 285.1C410.2 285.5 409.3 286.2 408.8 288C408.4 289.7 405.7 292.1 400.6 295.5C396.3 298.3 392.9 301.2 392.9 302.1C392.8 302.9 394.4 304.6 396.4 305.9C399.3 307.8 399.9 308.6 399.3 310.4C397.4 316.5 397.5 316.9 401.2 319.2C404.7 321.5 404.9 321.7 404.3 326.1C403.7 330.6 403.8 330.8 409.2 336.6C412.3 339.9 414.8 343.1 414.8 343.7C414.8 344.3 413 346.9 410.7 349.5C407.2 353.4 406.7 354.6 407 357.7C407.4 361.2 407.4 361.2 404.1 360.6C401 360 400.1 360.5 393.8 366.1C389.9 369.5 386.8 372.8 386.8 373.5C386.8 374.1 388.4 376.2 390.3 378.1C392.3 380 393.7 381.9 393.5 382.4C393.4 382.8 390.6 384.7 387.3 386.4L381.3 389.6L381 396.1C380.6 405.3 384.5 413.5 393.2 421.8L399.5 427.9L400.9 436.2C402.9 448.1 403.1 447.6 397.4 447.6C392.5 447.6 392.4 447.6 390.1 452.2C387.2 458 383.8 459.4 372.9 459.2C365.5 459 365.2 459.1 363.5 461.9C362.6 463.6 361.8 465.5 361.8 466.3C361.8 467.1 363.9 471.6 366.4 476.4L370.9 485.1L367.8 489L364.6 492.9L366.2 500.4C367.6 507.5 368.3 508.7 375.8 518.2C384 528.6 384.4 530 379.2 530.1C376.9 530.1 375.8 533.6 375.8 541.6V545.6L369.6 547.6L363.3 549.6L363.6 555.6L363.9 561.6L354.1 566.8L344.3 571.9L344.7 586.4C345 600.3 344.9 600.9 342.9 602C339.7 603.7 340.4 605.7 345.1 608.3C349.5 610.8 349.5 610.9 348.4 617.8L347.7 621.9L354.2 625.7C357.8 627.8 361 630.1 361.3 630.9C361.6 631.7 361.3 633.9 360.6 635.8C359.5 638.7 359.7 640.4 361.6 647.8C364.1 657.6 363.9 658.3 357.3 660C353.5 660.9 352.5 661.8 349.3 666.9C345.9 672.4 345.4 672.9 340 674.1C336.3 675 331.4 677.5 325.6 681.4C317.3 687 316.5 687.3 312.4 686.6C309 686.1 306.9 686.5 302.3 688.5C295 691.8 294 691.7 287.8 687.9L282.7 684.7L274.4 687.4C265.4 690.3 255.9 690.9 248.5 688.9C244.3 687.8 244.1 687.8 237.8 692.4C234.3 695 231.2 697 230.9 697C230.6 697 227.4 694.7 223.8 691.9Z"/>
</mask>
<path d="M223.8 691.9C216.8 686.6 216.1 685.6 212.9 677C211 672.2 207.4 667 193.9 650.1L191.2 646.7L184.9 649.4L178.6 652.1L172.3 646L165.9 639.9L158.6 640.5C154.6 640.9 150.6 641.4 149.7 641.7C148.9 641.9 145.6 647.4 142.5 653.8C138.2 662.7 136.6 667.1 136.2 671.8C135.7 676.1 134.9 678.6 133.6 679.8C131.7 681.5 131.5 681.4 128.9 678.1C127 675.8 125.6 674.9 124.5 675.4C121.4 676.5 107.3 686.3 103.7 689.8L100.1 693.2L97 690.5C93.2 687.4 93.1 686.6 95.4 663.9C96.3 655.1 96.7 647.3 96.5 646.6C96.2 645.9 94.5 645 92.8 644.6C90.6 644.1 88.6 642.3 85.7 638.4C82.1 633.5 81.7 632.4 82.2 629C82.5 627 83.1 624.5 83.4 623.7C83.8 622.6 82.7 621.3 79.4 619.3C76.6 617.6 74.9 615.8 74.8 614.7C74.8 612.6 71 605.6 67.1 600.3C65.4 597.9 63.6 596.9 60.7 596.4C57 595.8 56.8 595.7 58.4 594C59.7 592.5 59.8 591.6 58.9 588.8C56.8 582.6 55.7 582.2 40.8 581.8L27.3 581.6L27 576.8C26.8 573.7 27.4 570.6 28.8 567.5C29.9 564.9 30.8 561.9 30.8 560.9C30.8 559.8 28.7 556 26.2 552.5C22.5 547.3 21.5 544.9 20.8 539.7C19.7 532.4 19 530.1 17.7 530.1C15.4 530.1 15.9 526.9 18.9 522.8L22.1 518.2L18.4 499.4L14.8 480.6L9.70001 475.5L4.59998 470.3L10.3 464.6C15.7 459.2 16.3 458.9 19.9 459.3C25.2 460.1 26.3 458.3 27.7 447.1C28.4 441.8 29.2 436.8 29.5 435.8C29.7 434.8 32.9 430.7 36.4 426.8C39.9 422.8 42.8 418.8 42.8 417.9C42.8 415.1 27.4 392.8 22.8 388.8C18.7 385.3 18.3 384.5 16.3 375.3C15.1 370 14.3 364.9 14.5 364.1C14.9 362.5 21 358.1 22.8 358.1C23.3 358.1 24.7 359.9 25.8 362.1C28.5 367.4 30.8 367.3 33.6 361.6C36.3 356 38.4 354.7 48.7 352.1C57.1 350.1 58.8 350.1 58.8 352.5C58.8 354.6 64.7 359.1 67.4 359.1C68.7 359.1 75.1 356.9 81.6 354.2C88 351.5 94.3 349 95.5 348.7C98.8 347.6 99 345.5 96.3 339.4C93.4 333 93.3 331.2 95.2 328.5C96.4 326.9 97.7 326.7 104.2 326.9C111.5 327.2 112 327.1 115.4 324.1C117.3 322.5 119.3 321.1 119.7 321.1C120.2 321.1 125.2 325.2 130.9 330.3C138.8 337.5 140.7 339.6 139.2 339.9C137.1 340.3 134.8 341.9 134.8 343.1C134.8 343.5 138.3 346.4 142.5 349.6C149.3 354.7 152 356 163.7 359.8C181.6 365.5 181.7 365.4 176.5 349.8C174.5 343.6 172.8 337.7 172.8 336.8C172.8 335.4 174.1 335.2 182.1 335.4L191.3 335.6L193.3 329.8C194.4 326.7 195.9 323.9 196.7 323.6C197.5 323.3 200.9 322.7 204.2 322.4C212.1 321.6 214 320.6 213.3 317.8C212.8 316.1 213.8 314.6 217.3 311.2C219.8 308.8 221.8 306.5 221.8 306C221.8 305.5 218.7 302.7 214.8 299.9C207.6 294.7 207.2 294.1 206.5 285.8C206 280.2 206.4 279.6 214.6 275C232.6 264.8 244.3 257.5 250.3 252.5C256.4 247.5 257.5 247 261.2 247.3C265.6 247.6 265.5 247.4 264.1 254.2C263.8 255.8 264.1 257 265 257.3C266.4 257.8 298.6 251 300.6 249.7C301.3 249.3 305.6 241.4 310.3 232.2L318.8 215.4L326.8 211.2C334.7 207.1 334.9 207.1 340.5 208.1C344.8 208.9 346.8 209.9 348.5 211.9C349.7 213.4 350.8 215 350.8 215.4C350.8 215.7 351.7 216.3 352.8 216.7C355.8 217.6 366.6 209.9 368.4 205.5C370.1 201.6 369.9 201.6 380.1 205.7C386.1 208.1 393.8 213.6 393.8 215.3C393.8 215.9 392.9 217.5 391.8 218.9C390.7 220.3 389.8 222.8 389.8 224.4C389.8 227.9 388.5 230.5 384.7 235C382.1 237.9 381.8 238.9 381.8 245.4C381.8 251.5 382.2 253.1 383.8 254.5C384.9 255.5 386 257.1 386.3 258.1C387.3 261.3 394 263.4 401.1 262.6L407.5 261.9L413 268L418.6 274.2L417.4 279.4C416.3 284.2 416 284.6 412.8 285.1C410.2 285.5 409.3 286.2 408.8 288C408.4 289.7 405.7 292.1 400.6 295.5C396.3 298.3 392.9 301.2 392.9 302.1C392.8 302.9 394.4 304.6 396.4 305.9C399.3 307.8 399.9 308.6 399.3 310.4C397.4 316.5 397.5 316.9 401.2 319.2C404.7 321.5 404.9 321.7 404.3 326.1C403.7 330.6 403.8 330.8 409.2 336.6C412.3 339.9 414.8 343.1 414.8 343.7C414.8 344.3 413 346.9 410.7 349.5C407.2 353.4 406.7 354.6 407 357.7C407.4 361.2 407.4 361.2 404.1 360.6C401 360 400.1 360.5 393.8 366.1C389.9 369.5 386.8 372.8 386.8 373.5C386.8 374.1 388.4 376.2 390.3 378.1C392.3 380 393.7 381.9 393.5 382.4C393.4 382.8 390.6 384.7 387.3 386.4L381.3 389.6L381 396.1C380.6 405.3 384.5 413.5 393.2 421.8L399.5 427.9L400.9 436.2C402.9 448.1 403.1 447.6 397.4 447.6C392.5 447.6 392.4 447.6 390.1 452.2C387.2 458 383.8 459.4 372.9 459.2C365.5 459 365.2 459.1 363.5 461.9C362.6 463.6 361.8 465.5 361.8 466.3C361.8 467.1 363.9 471.6 366.4 476.4L370.9 485.1L367.8 489L364.6 492.9L366.2 500.4C367.6 507.5 368.3 508.7 375.8 518.2C384 528.6 384.4 530 379.2 530.1C376.9 530.1 375.8 533.6 375.8 541.6V545.6L369.6 547.6L363.3 549.6L363.6 555.6L363.9 561.6L354.1 566.8L344.3 571.9L344.7 586.4C345 600.3 344.9 600.9 342.9 602C339.7 603.7 340.4 605.7 345.1 608.3C349.5 610.8 349.5 610.9 348.4 617.8L347.7 621.9L354.2 625.7C357.8 627.8 361 630.1 361.3 630.9C361.6 631.7 361.3 633.9 360.6 635.8C359.5 638.7 359.7 640.4 361.6 647.8C364.1 657.6 363.9 658.3 357.3 660C353.5 660.9 352.5 661.8 349.3 666.9C345.9 672.4 345.4 672.9 340 674.1C336.3 675 331.4 677.5 325.6 681.4C317.3 687 316.5 687.3 312.4 686.6C309 686.1 306.9 686.5 302.3 688.5C295 691.8 294 691.7 287.8 687.9L282.7 684.7L274.4 687.4C265.4 690.3 255.9 690.9 248.5 688.9C244.3 687.8 244.1 687.8 237.8 692.4C234.3 695 231.2 697 230.9 697C230.6 697 227.4 694.7 223.8 691.9Z" fill="#F05550"/>
<path d="M223.8 691.9C216.8 686.6 216.1 685.6 212.9 677C211 672.2 207.4 667 193.9 650.1L191.2 646.7L184.9 649.4L178.6 652.1L172.3 646L165.9 639.9L158.6 640.5C154.6 640.9 150.6 641.4 149.7 641.7C148.9 641.9 145.6 647.4 142.5 653.8C138.2 662.7 136.6 667.1 136.2 671.8C135.7 676.1 134.9 678.6 133.6 679.8C131.7 681.5 131.5 681.4 128.9 678.1C127 675.8 125.6 674.9 124.5 675.4C121.4 676.5 107.3 686.3 103.7 689.8L100.1 693.2L97 690.5C93.2 687.4 93.1 686.6 95.4 663.9C96.3 655.1 96.7 647.3 96.5 646.6C96.2 645.9 94.5 645 92.8 644.6C90.6 644.1 88.6 642.3 85.7 638.4C82.1 633.5 81.7 632.4 82.2 629C82.5 627 83.1 624.5 83.4 623.7C83.8 622.6 82.7 621.3 79.4 619.3C76.6 617.6 74.9 615.8 74.8 614.7C74.8 612.6 71 605.6 67.1 600.3C65.4 597.9 63.6 596.9 60.7 596.4C57 595.8 56.8 595.7 58.4 594C59.7 592.5 59.8 591.6 58.9 588.8C56.8 582.6 55.7 582.2 40.8 581.8L27.3 581.6L27 576.8C26.8 573.7 27.4 570.6 28.8 567.5C29.9 564.9 30.8 561.9 30.8 560.9C30.8 559.8 28.7 556 26.2 552.5C22.5 547.3 21.5 544.9 20.8 539.7C19.7 532.4 19 530.1 17.7 530.1C15.4 530.1 15.9 526.9 18.9 522.8L22.1 518.2L18.4 499.4L14.8 480.6L9.70001 475.5L4.59998 470.3L10.3 464.6C15.7 459.2 16.3 458.9 19.9 459.3C25.2 460.1 26.3 458.3 27.7 447.1C28.4 441.8 29.2 436.8 29.5 435.8C29.7 434.8 32.9 430.7 36.4 426.8C39.9 422.8 42.8 418.8 42.8 417.9C42.8 415.1 27.4 392.8 22.8 388.8C18.7 385.3 18.3 384.5 16.3 375.3C15.1 370 14.3 364.9 14.5 364.1C14.9 362.5 21 358.1 22.8 358.1C23.3 358.1 24.7 359.9 25.8 362.1C28.5 367.4 30.8 367.3 33.6 361.6C36.3 356 38.4 354.7 48.7 352.1C57.1 350.1 58.8 350.1 58.8 352.5C58.8 354.6 64.7 359.1 67.4 359.1C68.7 359.1 75.1 356.9 81.6 354.2C88 351.5 94.3 349 95.5 348.7C98.8 347.6 99 345.5 96.3 339.4C93.4 333 93.3 331.2 95.2 328.5C96.4 326.9 97.7 326.7 104.2 326.9C111.5 327.2 112 327.1 115.4 324.1C117.3 322.5 119.3 321.1 119.7 321.1C120.2 321.1 125.2 325.2 130.9 330.3C138.8 337.5 140.7 339.6 139.2 339.9C137.1 340.3 134.8 341.9 134.8 343.1C134.8 343.5 138.3 346.4 142.5 349.6C149.3 354.7 152 356 163.7 359.8C181.6 365.5 181.7 365.4 176.5 349.8C174.5 343.6 172.8 337.7 172.8 336.8C172.8 335.4 174.1 335.2 182.1 335.4L191.3 335.6L193.3 329.8C194.4 326.7 195.9 323.9 196.7 323.6C197.5 323.3 200.9 322.7 204.2 322.4C212.1 321.6 214 320.6 213.3 317.8C212.8 316.1 213.8 314.6 217.3 311.2C219.8 308.8 221.8 306.5 221.8 306C221.8 305.5 218.7 302.7 214.8 299.9C207.6 294.7 207.2 294.1 206.5 285.8C206 280.2 206.4 279.6 214.6 275C232.6 264.8 244.3 257.5 250.3 252.5C256.4 247.5 257.5 247 261.2 247.3C265.6 247.6 265.5 247.4 264.1 254.2C263.8 255.8 264.1 257 265 257.3C266.4 257.8 298.6 251 300.6 249.7C301.3 249.3 305.6 241.4 310.3 232.2L318.8 215.4L326.8 211.2C334.7 207.1 334.9 207.1 340.5 208.1C344.8 208.9 346.8 209.9 348.5 211.9C349.7 213.4 350.8 215 350.8 215.4C350.8 215.7 351.7 216.3 352.8 216.7C355.8 217.6 366.6 209.9 368.4 205.5C370.1 201.6 369.9 201.6 380.1 205.7C386.1 208.1 393.8 213.6 393.8 215.3C393.8 215.9 392.9 217.5 391.8 218.9C390.7 220.3 389.8 222.8 389.8 224.4C389.8 227.9 388.5 230.5 384.7 235C382.1 237.9 381.8 238.9 381.8 245.4C381.8 251.5 382.2 253.1 383.8 254.5C384.9 255.5 386 257.1 386.3 258.1C387.3 261.3 394 263.4 401.1 262.6L407.5 261.9L413 268L418.6 274.2L417.4 279.4C416.3 284.2 416 284.6 412.8 285.1C410.2 285.5 409.3 286.2 408.8 288C408.4 289.7 405.7 292.1 400.6 295.5C396.3 298.3 392.9 301.2 392.9 302.1C392.8 302.9 394.4 304.6 396.4 305.9C399.3 307.8 399.9 308.6 399.3 310.4C397.4 316.5 397.5 316.9 401.2 319.2C404.7 321.5 404.9 321.7 404.3 326.1C403.7 330.6 403.8 330.8 409.2 336.6C412.3 339.9 414.8 343.1 414.8 343.7C414.8 344.3 413 346.9 410.7 349.5C407.2 353.4 406.7 354.6 407 357.7C407.4 361.2 407.4 361.2 404.1 360.6C401 360 400.1 360.5 393.8 366.1C389.9 369.5 386.8 372.8 386.8 373.5C386.8 374.1 388.4 376.2 390.3 378.1C392.3 380 393.7 381.9 393.5 382.4C393.4 382.8 390.6 384.7 387.3 386.4L381.3 389.6L381 396.1C380.6 405.3 384.5 413.5 393.2 421.8L399.5 427.9L400.9 436.2C402.9 448.1 403.1 447.6 397.4 447.6C392.5 447.6 392.4 447.6 390.1 452.2C387.2 458 383.8 459.4 372.9 459.2C365.5 459 365.2 459.1 363.5 461.9C362.6 463.6 361.8 465.5 361.8 466.3C361.8 467.1 363.9 471.6 366.4 476.4L370.9 485.1L367.8 489L364.6 492.9L366.2 500.4C367.6 507.5 368.3 508.7 375.8 518.2C384 528.6 384.4 530 379.2 530.1C376.9 530.1 375.8 533.6 375.8 541.6V545.6L369.6 547.6L363.3 549.6L363.6 555.6L363.9 561.6L354.1 566.8L344.3 571.9L344.7 586.4C345 600.3 344.9 600.9 342.9 602C339.7 603.7 340.4 605.7 345.1 608.3C349.5 610.8 349.5 610.9 348.4 617.8L347.7 621.9L354.2 625.7C357.8 627.8 361 630.1 361.3 630.9C361.6 631.7 361.3 633.9 360.6 635.8C359.5 638.7 359.7 640.4 361.6 647.8C364.1 657.6 363.9 658.3 357.3 660C353.5 660.9 352.5 661.8 349.3 666.9C345.9 672.4 345.4 672.9 340 674.1C336.3 675 331.4 677.5 325.6 681.4C317.3 687 316.5 687.3 312.4 686.6C309 686.1 306.9 686.5 302.3 688.5C295 691.8 294 691.7 287.8 687.9L282.7 684.7L274.4 687.4C265.4 690.3 255.9 690.9 248.5 688.9C244.3 687.8 244.1 687.8 237.8 692.4C234.3 695 231.2 697 230.9 697C230.6 697 227.4 694.7 223.8 691.9Z" stroke="black" stroke-width="2" mask="url(#path-9-inside-2_0_60)"/>
</g>
<path d="M201.218 255.787C202.546 255.806 203.748 255.932 204.641 256.155C205.089 256.267 205.437 256.398 205.679 256.538C205.864 256.645 205.954 256.737 205.997 256.802C205.968 256.869 205.912 256.971 205.814 257.111C205.612 257.4 205.285 257.778 204.849 258.228C203.981 259.125 202.73 260.253 201.318 261.429C198.665 263.637 195.494 265.972 193.292 267.224L192.865 267.459L192.857 267.463C192.406 267.713 192.11 267.847 191.901 267.891C191.731 267.926 191.688 267.892 191.648 267.853C191.56 267.768 191.438 267.562 191.301 267.098C191.202 266.761 191.106 266.332 191 265.79L190.892 265.211C190.643 263.591 190.472 262.347 190.412 261.363C190.35 260.373 190.405 259.693 190.575 259.184C190.853 258.347 191.481 257.855 192.917 257.238L193.583 256.965L193.595 256.96C195.505 256.148 198.552 255.75 201.218 255.787Z" fill="#F05550" stroke="black"/>
<path d="M160.3 216.2C160.849 216.2 161.248 216.382 161.6 216.85C161.934 217.296 162.231 218.011 162.498 219.11L162.611 219.604L162.613 219.613L162.615 219.621C163.068 221.433 163.471 222.613 164.64 223.671C165.761 224.685 167.569 225.567 170.697 226.957V226.956L176.925 229.887L172.305 235.894C169.654 239.321 167.59 241.918 165.83 243.845C164.069 245.773 162.642 246.996 161.271 247.706C158.577 249.099 155.973 248.58 151.051 247.023H151.05C149.812 246.627 148.605 246.183 147.65 245.766C147.171 245.558 146.764 245.36 146.45 245.181C146.122 244.994 145.947 244.856 145.884 244.78L145.869 244.762L145.854 244.747L145.819 244.699C145.797 244.666 145.77 244.619 145.739 244.559C145.676 244.438 145.603 244.277 145.524 244.073C145.364 243.666 145.184 243.123 144.993 242.474C144.612 241.18 144.193 239.498 143.801 237.718C143.015 234.15 142.351 230.25 142.3 228.3C142.3 227.72 142.322 227.427 142.415 227.236C142.477 227.11 142.605 226.962 143.089 226.849C143.591 226.732 144.371 226.678 145.598 226.677C146.814 226.675 148.428 226.724 150.577 226.799V226.8L159.277 227.199L159.855 227.226L159.797 226.65L159.498 223.668C159.399 221.979 159.201 219.485 158.998 218.153C158.951 217.213 159.045 216.757 159.208 216.527C159.337 216.346 159.591 216.2 160.3 216.2Z" fill="#F05550" stroke="black"/>
<path d="M176.018 211.789C176.467 211.785 176.736 211.851 176.932 211.968C177.129 212.084 177.316 212.288 177.527 212.679C177.687 212.977 177.847 213.357 178.034 213.845L178.23 214.372C178.808 216.162 179.176 218.852 179.263 221.095C179.306 222.219 179.277 223.203 179.176 223.887C179.127 224.218 179.063 224.444 179.004 224.576C178.992 224.573 178.978 224.571 178.963 224.566C178.86 224.536 178.725 224.489 178.558 224.424C178.225 224.294 177.789 224.102 177.275 223.86C176.505 223.498 175.572 223.03 174.564 222.504L173.536 221.959C171.65 220.929 170.289 219.842 169.424 218.79C168.557 217.736 168.211 216.749 168.273 215.899C168.335 215.061 168.801 214.257 169.766 213.568C170.738 212.873 172.201 212.312 174.18 211.994L174.179 211.993C174.98 211.868 175.565 211.793 176.018 211.789Z" fill="#F05550" stroke="black"/>
<path d="M211.258 193.85C211.605 193.845 211.779 193.925 211.877 194.013C211.981 194.106 212.082 194.281 212.138 194.627C212.225 195.166 212.179 195.939 212.054 196.988L211.905 198.127C211.706 199.474 211.481 200.867 211.27 202.009C211.165 202.58 211.064 203.085 210.971 203.487C210.875 203.901 210.795 204.174 210.74 204.303L210.736 204.314L210.731 204.324C210.74 204.302 210.731 204.341 210.616 204.436C210.511 204.522 210.355 204.625 210.143 204.741C209.72 204.972 209.125 205.228 208.392 205.492C207.114 205.954 205.459 206.428 203.67 206.839L202.895 207.011L202.893 207.012C198.285 208.014 195.479 208.528 193.631 208.601C192.713 208.637 192.064 208.562 191.565 208.402C191.079 208.247 190.71 208.002 190.359 207.652H190.36C189.703 206.97 189.397 206.448 189.349 205.996C189.304 205.579 189.468 205.094 190.096 204.448C190.729 203.798 191.772 203.051 193.334 202.131C194.888 201.215 196.925 200.145 199.521 198.847L199.522 198.848C202.9 197.172 205.451 195.922 207.368 195.087C209.311 194.241 210.523 193.861 211.258 193.85Z" fill="#F05550" stroke="black"/>
<path d="M511.2 584.85C511.482 584.872 511.859 585.013 512.416 585.398C513.54 586.176 515.176 587.782 517.937 590.643V590.643C521.448 594.356 527.958 600.564 532.469 604.474V604.475C535.007 606.714 537.142 608.825 538.763 610.656C540.387 612.492 541.467 614.015 541.937 615.089C542.273 615.968 542.66 616.737 543.322 617.531C543.981 618.321 544.896 619.116 546.264 620.072C548.99 621.978 553.618 624.592 561.856 629.136V629.137C577.407 637.787 587.455 643.411 593.728 646.984C596.864 648.771 599.054 650.044 600.514 650.925C601.244 651.365 601.788 651.706 602.175 651.963C602.444 652.141 602.622 652.27 602.731 652.356L602.73 652.359C602.585 652.545 602.282 652.814 601.792 653.15C600.948 653.731 599.66 654.444 598.02 655.212L597.295 655.544L597.291 655.546C595.427 656.402 593.659 657.336 592.313 658.161C591.642 658.573 591.066 658.963 590.635 659.308C590.419 659.479 590.231 659.646 590.083 659.805C589.978 659.917 589.874 660.045 589.798 660.183L589.731 660.324C589.682 660.456 589.672 660.595 589.672 660.708C589.671 660.828 589.682 660.962 589.701 661.102C589.739 661.382 589.813 661.728 589.914 662.125C590.117 662.921 590.444 663.965 590.865 665.177C591.602 667.3 592.636 669.967 593.823 672.783L594.341 673.998L594.344 674.004C596.515 678.871 598.974 684.483 600.658 688.292L602.044 691.406C602.767 693.05 603.38 694.362 604.227 695.486C605.083 696.625 606.162 697.552 607.791 698.473C610.605 700.063 615.139 701.674 623.178 704.356L626.843 705.574L626.845 705.575C633.289 707.673 638.069 709.659 640.469 711.092C641.068 711.45 641.495 711.759 641.759 712.013C641.887 712.136 641.961 712.232 642 712.299C641.96 712.32 641.894 712.35 641.784 712.379C641.547 712.442 641.2 712.485 640.726 712.498L640.208 712.5H640.2C638.836 712.5 635.78 712.198 633.034 711.788L631.882 711.606L631.874 711.605L631.145 711.501C629.494 711.275 628.208 711.181 627.209 711.238C626.079 711.303 625.236 711.566 624.66 712.134C624.351 712.421 623.968 712.735 623.786 713.199C623.595 713.687 623.642 714.257 623.855 715.032C624.174 716.19 624.941 718.054 626.334 721.286L627.941 724.999L627.943 725.004C628.366 725.948 628.596 726.629 628.656 727.084C628.686 727.31 628.667 727.433 628.646 727.489C628.635 727.522 628.627 727.525 628.604 727.534C628.558 727.552 628.445 727.574 628.224 727.543C628.008 727.513 627.728 727.439 627.375 727.311C626.67 727.056 625.735 726.609 624.544 725.964H624.545C622.957 725.071 620.793 723.691 619.724 722.818C617.874 721.21 614.534 717.037 611.058 712.16C607.806 707.599 604.472 702.474 602.184 698.369L601.74 697.562C599.696 693.772 598.372 691.475 597.084 689.93C595.933 688.549 594.814 687.771 593.282 687.049L592.599 686.741L592.597 686.74L592.285 686.6C590.712 685.85 588.902 684.406 585.827 681.121C582.962 678.06 579.032 673.438 573.203 666.366L570.587 663.183L570.586 663.182L552.686 641.481L552.614 641.395L552.513 641.348L544.412 637.548L544.407 637.545L543.48 637.117C538.926 634.98 535.507 632.878 532.495 630.201C529.482 627.523 526.857 624.251 523.914 619.748L523.321 618.83H523.32C520.616 614.623 519.138 611.865 518.648 609.821C518.407 608.815 518.413 608.007 518.614 607.297C518.816 606.585 519.227 605.928 519.866 605.241L519.878 605.227C520.573 604.426 521.007 603.66 521.134 602.558C521.241 601.629 521.128 600.483 520.829 598.903L520.689 598.199C520.243 595.82 519.901 594.362 518.608 593.126C517.976 592.521 517.135 591.985 515.999 591.4C515.146 590.961 514.109 590.487 512.843 589.929L511.499 589.342L511.49 589.338L511.188 589.208C509.727 588.552 509.043 587.819 508.899 587.21C508.764 586.637 509.067 585.893 510.354 585.13L510.366 585.123L510.377 585.116C510.694 584.905 510.939 584.829 511.2 584.85Z" fill="white" stroke="black"/>
<defs>
<filter id="filter0_d_0_60" x="0.599976" y="202.6" width="422" height="502.4" filterUnits="userSpaceOnUse" color-interpolation-filters="sRGB">
<feFlood flood-opacity="0" result="BackgroundImageFix"/>
<feColorMatrix in="SourceAlpha" type="matrix" values="0 0 0 0 0 0 0 0 0 0 0 0 0 0 0 0 0 0 127 0" result="hardAlpha"/>
<feOffset dy="4"/>
<feGaussianBlur stdDeviation="2"/>
<feComposite in2="hardAlpha" operator="out"/>
<feColorMatrix type="matrix" values="0 0 0 0 0 0 0 0 0 0 0 0 0 0 0 0 0 0 0.25 0"/>
<feBlend mode="normal" in2="BackgroundImageFix" result="effect1_dropShadow_0_60"/>
<feBlend mode="normal" in="SourceGraphic" in2="effect1_dropShadow_0_60" result="shape"/>
</filter>
</defs>
</svg>
