<?xml version="1.0" encoding="UTF-8"?>
<svg id="_Слой_2" data-name="Слой 2" xmlns="http://www.w3.org/2000/svg" viewBox="0 0 844.75 224.46">
  <defs>
    <style>
      .cls-1 {
        letter-spacing: .16em;
      }

      .cls-1, .cls-2, .cls-3, .cls-4, .cls-5, .cls-6, .cls-7, .cls-8, .cls-9, .cls-10 {
        font-family: MyriadPro-Regular, 'Myriad Pro';
      }

      .cls-11 {
        fill: #ec3d6b;
      }

      .cls-11, .cls-12, .cls-13, .cls-14 {
        stroke-width: 0px;
      }

      .cls-2 {
        letter-spacing: .19em;
      }

      .cls-15 {
        font-size: 55px;
      }

      .cls-15, .cls-16 {
        font-family: Poppins-Medium, Poppins;
        font-weight: 500;
      }

      .cls-15, .cls-14 {
        fill: #003359;
      }

      .cls-3 {
        letter-spacing: .18em;
      }

      .cls-4 {
        letter-spacing: .18em;
      }

      .cls-5 {
        letter-spacing: .19em;
      }

      .cls-17 {
        font-size: 20px;
      }

      .cls-17, .cls-13 {
        fill: #3a8cd6;
      }

      .cls-12 {
        fill: #fff;
      }

      .cls-6 {
        letter-spacing: .19em;
      }

      .cls-7, .cls-16 {
        letter-spacing: .2em;
      }

      .cls-8 {
        letter-spacing: .2em;
      }

      .cls-9 {
        letter-spacing: .19em;
      }

      .cls-10 {
        letter-spacing: .12em;
      }
    </style>
  </defs>
  <g id="_Слой_1-2" data-name="Слой 1">
    <g>
      <g>
        <rect class="cls-13" x="40.87" y="69.04" width="42.95" height="7" transform="translate(-33.03 65.32) rotate(-44.99)"/>
        <g>
          <rect class="cls-13" x="47.14" y="158.1" width="21.17" height="17.28" transform="translate(134.81 8.02) rotate(45)"/>
          <path class="cls-14" d="m59.05,180.29l-14.88-14.88c-1.09-1.09-2.85-1.15-4.01-.12L2.86,198.2c-3.66,3.23-3.83,8.87-.38,12.32l11.46,11.46c3.45,3.45,9.09,3.27,12.32-.38l32.92-37.3c1.02-1.16.97-2.91-.12-4.01Z"/>
          <path class="cls-14" d="m189.2,35.26C152.66-1.28,93.42-1.28,56.88,35.26c-36.54,36.54-36.54,95.78,0,132.32,36.54,36.54,95.78,36.54,132.32,0,36.54-36.54,36.54-95.78,0-132.32Zm-15.8,116.52c-27.81,27.81-72.91,27.81-100.72,0-27.81-27.81-27.81-72.91,0-100.72,27.81-27.81,72.91-27.81,100.72,0,27.81,27.81,27.81,72.91,0,100.72Z"/>
        </g>
        <path class="cls-11" d="m224.44,0h-95.61l14.61,14.61-21.76,21.76L51.99,106.05c1.08,16.65,7.96,33,20.69,45.72,12.73,12.73,29.07,19.61,45.72,20.69l69.69-69.69,21.76-21.76,14.59,14.59V0Z"/>
        <polygon class="cls-12" points="54.47 152.06 49.52 147.11 69.33 127.29 69.33 113.43 108.08 74.68 113.03 79.63 76.33 116.33 76.33 130.19 54.47 152.06"/>
        <path class="cls-12" d="m118.38,83.27c-7.56,0-13.71-6.15-13.71-13.71s6.15-13.71,13.71-13.71,13.71,6.15,13.71,13.71-6.15,13.71-13.71,13.71Zm0-20.43c-3.7,0-6.71,3.01-6.71,6.71s3.01,6.71,6.71,6.71,6.71-3.01,6.71-6.71-3.01-6.71-6.71-6.71Z"/>
        <path class="cls-12" d="m168.62,84.79c-7.56,0-13.71-6.15-13.71-13.71s6.15-13.71,13.71-13.71,13.71,6.15,13.71,13.71-6.15,13.71-13.71,13.71Zm0-20.43c-3.7,0-6.71,3.01-6.71,6.71s3.01,6.71,6.71,6.71,6.71-3.01,6.71-6.71-3.01-6.71-6.71-6.71Z"/>
        <path class="cls-12" d="m112.83,159.42c-7.56,0-13.71-6.15-13.71-13.71s6.15-13.71,13.71-13.71,13.71,6.15,13.71,13.71-6.15,13.71-13.71,13.71Zm0-20.43c-3.7,0-6.71,3.01-6.71,6.71s3.01,6.71,6.71,6.71,6.71-3.01,6.71-6.71-3.01-6.71-6.71-6.71Z"/>
        <path class="cls-13" d="m85.79,63.75c-7.56,0-13.71-6.15-13.71-13.71s6.15-13.71,13.71-13.71,13.71,6.15,13.71,13.71-6.15,13.71-13.71,13.71Zm0-20.43c-3.7,0-6.71,3.01-6.71,6.71s3.01,6.71,6.71,6.71,6.71-3.01,6.71-6.71-3.01-6.71-6.71-6.71Z"/>
        <path class="cls-13" d="m176.1,150.77c-7.56,0-13.71-6.15-13.71-13.71s6.15-13.71,13.71-13.71,13.71,6.15,13.71,13.71-6.15,13.71-13.71,13.71Zm0-20.43c-3.7,0-6.71,3.01-6.71,6.71s3.01,6.71,6.71,6.71,6.71-3.01,6.71-6.71-3.01-6.71-6.71-6.71Z"/>
        <polygon class="cls-12" points="73.8 152.85 68.85 147.9 105.66 111.09 124.85 111.09 159.32 76.62 164.27 81.57 127.75 118.09 108.56 118.09 73.8 152.85"/>
        <rect class="cls-12" x="83.69" y="158.26" width="25.49" height="7" transform="translate(-86.13 115.55) rotate(-44.99)"/>
        <polygon class="cls-13" points="115.82 191.92 110.87 186.97 142.8 155.04 154.66 155.04 166.15 143.55 171.1 148.5 157.56 162.04 145.7 162.04 115.82 191.92"/>
        <path class="cls-14" d="m165.95,183.25c-1.96-4.57-3.91-9.15-5.83-13.73-.77-1.83-1.92-3.77-2.64-5.77-27.07,14.97-61.82,10.99-84.79-11.98-18.8-18.8-24.88-45.5-18.25-69.43-.54-.09-1.09-.17-1.63-.24-6.96-.89-14.05-.51-21.01-1.29-6.8,30.25,1.55,63.22,25.09,86.76,29.65,29.65,74.25,35.24,109.54,16.77-.16-.36-.32-.73-.47-1.09Z"/>
        <rect class="cls-14" x="176.14" y=".85" width="1" height="93.92" transform="translate(17.93 138.91) rotate(-45)"/>
        <polygon class="cls-14" points="77.03 157.71 76.32 157.01 109.73 123.59 138.63 123.59 149.65 112.58 150.35 113.29 139.04 124.59 110.14 124.59 77.03 157.71"/>
        <path class="cls-14" d="m151.9,113.98c-1.77,0-3.21-1.44-3.21-3.21s1.44-3.21,3.21-3.21,3.21,1.44,3.21,3.21-1.44,3.21-3.21,3.21Zm0-5.43c-1.22,0-2.21.99-2.21,2.21s.99,2.21,2.21,2.21,2.21-.99,2.21-2.21-.99-2.21-2.21-2.21Z"/>
        <path class="cls-14" d="m185.18,96.69c-1.77,0-3.21-1.44-3.21-3.21s1.44-3.21,3.21-3.21,3.21,1.44,3.21,3.21-1.44,3.21-3.21,3.21Zm0-5.43c-1.22,0-2.21.99-2.21,2.21s.99,2.21,2.21,2.21,2.21-.99,2.21-2.21-.99-2.21-2.21-2.21Z"/>
        <path class="cls-14" d="m146.49,40.67c-1.77,0-3.21-1.44-3.21-3.21s1.44-3.21,3.21-3.21,3.21,1.44,3.21,3.21-1.44,3.21-3.21,3.21Zm0-5.43c-1.22,0-2.21.99-2.21,2.21s.99,2.21,2.21,2.21,2.21-.99,2.21-2.21-.99-2.21-2.21-2.21Z"/>
        <path class="cls-14" d="m72.86,81.42c-1.77,0-3.21-1.44-3.21-3.21s1.44-3.21,3.21-3.21,3.21,1.44,3.21,3.21-1.44,3.21-3.21,3.21Zm0-5.43c-1.22,0-2.21.99-2.21,2.21s.99,2.21,2.21,2.21,2.21-.99,2.21-2.21-.99-2.21-2.21-2.21Z"/>
        <polygon class="cls-14" points="46.31 99.49 45.61 98.79 58.51 85.88 64.67 85.88 70.53 80.02 71.24 80.73 65.08 86.88 58.92 86.88 46.31 99.49"/>
        <polygon class="cls-14" points="53.43 120.65 52.72 119.94 67.01 105.66 100.06 105.66 108.64 97.08 122 97.08 144.34 74.74 144.34 61.92 135.78 53.36 135.78 47.61 144.37 39.01 145.08 39.72 136.78 48.02 136.78 52.95 145.34 61.51 145.34 75.15 122.41 98.08 109.05 98.08 100.47 106.66 67.42 106.66 53.43 120.65"/>
        <polygon class="cls-14" points="109.52 172.82 108.81 172.11 135.79 145.13 135.79 135.95 141.41 130.33 147.85 130.33 183.03 95.15 183.73 95.86 148.27 131.33 141.83 131.33 136.79 136.36 136.79 145.55 109.52 172.82"/>
      </g>
      <g>
        <text class="cls-15" transform="translate(246.26 98.55)"><tspan x="0" y="0">LIFEMAP ANALYTICS</tspan></text>
        <text class="cls-17" transform="translate(269.13 132.36)"><tspan class="cls-7" x="0" y="0">П</tspan><tspan class="cls-6" x="16.78" y="0">Р</tspan><tspan class="cls-7" x="31.26" y="0">ОГН</tspan><tspan class="cls-5" x="78.74" y="0">О</tspan><tspan class="cls-7" x="96.24" y="0">ЗИ</tspan><tspan class="cls-9" x="127.24" y="0">Р</tspan><tspan class="cls-7" x="141.64" y="0">УЯ</tspan><tspan class="cls-16" x="170.92" y="0"> </tspan><tspan class="cls-7" x="180.12" y="0">ЗА</tspan><tspan class="cls-2" x="210.2" y="0">В</tspan><tspan class="cls-7" x="224.92" y="0">Т</tspan><tspan class="cls-10" x="238.86" y="0">Р</tspan><tspan class="cls-7" x="251.82" y="0">А</tspan><tspan class="cls-16" x="268.06" y="0">, </tspan><tspan class="cls-8" x="285.76" y="0">ФО</tspan><tspan class="cls-4" x="322.04" y="0">Р</tspan><tspan class="cls-7" x="336.32" y="0">МИ</tspan><tspan class="cls-9" x="373.56" y="0">Р</tspan><tspan class="cls-7" x="387.96" y="0">УЕМ</tspan><tspan class="cls-16" x="436.3" y="0"> </tspan><tspan class="cls-7" x="445.5" y="0">СЕ</tspan><tspan class="cls-1" x="474.94" y="0">Г</tspan><tspan class="cls-3" x="486.9" y="0">О</tspan><tspan class="cls-7" x="504.26" y="0">ДНЯ</tspan></text>
        <g>
          <path class="cls-11" d="m256.25,133.13c-4.67,0-8.46-3.8-8.46-8.46s3.8-8.46,8.46-8.46,8.46,3.8,8.46,8.46-3.79,8.46-8.46,8.46Zm0-12.28c-2.1,0-3.81,1.71-3.81,3.81s1.71,3.81,3.81,3.81,3.81-1.71,3.81-3.81-1.71-3.81-3.81-3.81Z"/>
          <path class="cls-11" d="m836.29,133.13c-4.67,0-8.46-3.8-8.46-8.46s3.79-8.46,8.46-8.46,8.46,3.8,8.46,8.46-3.79,8.46-8.46,8.46Zm0-12.28c-2.1,0-3.81,1.71-3.81,3.81s1.71,3.81,3.81,3.81,3.81-1.71,3.81-3.81-1.71-3.81-3.81-3.81Z"/>
        </g>
      </g>
    </g>
  </g>
</svg>