<svg xmlns="http://www.w3.org/2000/svg" width="430" height="430" fill="none" viewBox="0 0 430 430"><g stroke="#fff" stroke-linecap="round" stroke-linejoin="round" stroke-miterlimit="15.48" stroke-width="6"><path d="M376.3 216.85c-1 88.3-72.9 159.4-161.3 159.4v-57.3c-5.2 1-9.6 1.5-12.6 1.5-13.7 0-24.9-11.1-24.9-24.9s11.1-24.9 24.9-24.9c3 0 7.5.5 12.6 1.5v-56.5"/><path d="M111 214.95c-1-5.2-1.5-9.6-1.5-12.6 0-13.7 11.1-24.9 24.9-24.9s24.9 11.1 24.9 24.9c0 3-.5 7.5-1.5 12.6H215v57.3c-5.2-1-9.6-1.5-12.6-1.5-13.7 0-24.9 11.1-24.9 24.9s11.1 24.9 24.9 24.9c3 0 7.5-.5 12.6-1.5v57.3c-89.1-.1-161.3-72.4-161.3-161.4z"/><path d="M215.1 212.75v2.2h-57.3c1-5.2 1.5-9.6 1.5-12.6 0-13.7-11.1-24.9-24.9-24.9s-24.9 11.1-24.9 24.9c0 3 .5 7.5 1.5 12.6H53.7c.1-87.5 69.7-158.6 156.5-161.1"/><path d="M319 214.95c1 5.2 1.5 9.6 1.5 12.6 0 13.7-11.1 24.9-24.9 24.9s-24.9-11.1-24.9-24.9c0-3 .5-7.5 1.5-12.6H215v-57.3c5.2 1 9.6 1.5 12.6 1.5 13.7 0 24.9-11.1 24.9-24.9s-11.1-24.9-24.9-24.9c-3 0-7.5.5-12.6 1.5v-57.2c89.1 0 161.3 72.3 161.3 161.3z"/></g></svg>