<?xml version="1.0" encoding="UTF-8"?>
<svg id="_Слой_2" data-name="Слой 2" xmlns="http://www.w3.org/2000/svg" viewBox="0 0 408.73 238.8">
  <defs>
    <style>
      .cls-1 {
        fill: #a8c7e3;
      }

      .cls-2 {
        fill: #2b292a;
      }
    </style>
  </defs>
  <g id="Layer_1" data-name="Layer 1">
    <g>
      <path class="cls-1" d="M210.61,27.58h6.03c1.36,0,2.66-1.71,1.86-3.23-.57-1.08-2.2-2.25-4.44-2.25-1.04,0-2.39,0-3.44,0l-4.71-7.35h-2.98l.77,7.85-10.22,.81-2.43-3.36-1.69,.18,2.47,7.35h11.67l-.96,7.77h3.37l4.71-7.77Z"/>
      <path class="cls-1" d="M292.16,21.33c3-3.5,5.07-6.96,5.92-9.69,1.94-6.2-.81-10.93-5.93-10.93s-7.85,4.73-5.91,10.93c.85,2.73,3.03,6.36,5.92,9.69Z"/>
      <path class="cls-1" d="M106.44,79.74c3-3.5,5.07-6.96,5.92-9.69,1.94-6.2-.81-10.93-5.93-10.93s-7.85,4.73-5.91,10.93c.85,2.73,3.03,6.36,5.92,9.69Z"/>
      <path class="cls-1" d="M299.11,180.88h-75.88c-2.48,0-4.5-2.01-4.5-4.5h0c0-2.48,2.01-4.5,4.5-4.5h75.88c2.48,0,4.5,2.01,4.5,4.5h0c0,2.48-2.01,4.5-4.5,4.5Z"/>
      <path class="cls-1" d="M398.86,180.88h-75.88c-2.48,0-4.5-2.01-4.5-4.5h0c0-2.48,2.01-4.5,4.5-4.5h75.88c2.48,0,4.5,2.01,4.5,4.5h0c0,2.48-2.01,4.5-4.5,4.5Z"/>
      <path class="cls-1" d="M199.52,180.88h-36.92c-2.48,0-4.5-2.01-4.5-4.5h0c0-2.48,2.01-4.5,4.5-4.5h36.92c2.48,0,4.5,2.01,4.5,4.5h0c0,2.48-2.01,4.5-4.5,4.5Z"/>
      <path class="cls-1" d="M137.48,171.47h12.91c.87,0,1.57,.7,1.57,1.57v5.82c0,.87-.7,1.57-1.57,1.57h-22.91s3.44-5.54,10.01-8.96Z"/>
      <rect class="cls-1" x="158.48" y="58.19" width="8.29" height="8.29"/>
      <rect class="cls-1" x="170.45" y="58.19" width="8.29" height="8.29"/>
      <rect class="cls-1" x="182.43" y="69.3" width="8.29" height="8.29"/>
      <rect class="cls-1" x="194.41" y="80.41" width="8.29" height="8.29"/>
      <rect class="cls-1" x="181.46" y="102.55" width="8.29" height="8.29"/>
      <rect class="cls-1" x="157.5" y="113.65" width="8.29" height="8.29"/>
      <rect class="cls-1" x="169.48" y="113.65" width="8.29" height="8.29"/>
      <rect class="cls-1" x="181.46" y="113.65" width="8.29" height="8.29"/>
      <rect class="cls-1" x="169.48" y="124.76" width="8.29" height="8.29"/>
      <polygon class="cls-1" points="319.33 23.35 319.33 35.82 322.95 35.82 325.81 40.04 325.81 35.82 338.21 35.82 338.21 23.35 319.33 23.35"/>
      <path class="cls-1" d="M86.12,77.35H47.34v-8.95h29.85c2.61,1.37,8.93,8.95,8.93,8.95h0Z"/>
      <path class="cls-1" d="M106.37,127.35H47.34v-8.95h57.21c.89,3.07,1.27,5.19,1.82,8.95h0Z"/>
      <path class="cls-1" d="M108.03,139.85H47.34v-8.95h59.6c.63,3.21,.64,4.79,1.09,8.95h0Z"/>
      <g>
        <path d="M292.74,236.79H63.24c-.55,0-1,.45-1,1s.45,1,1,1h229.5c.55,0,1-.45,1-1s-.45-1-1-1Z"/>
        <path d="M407.73,236.79h-28.96c-.55,0-1,.45-1,1s.45,1,1,1h28.96c.55,0,1-.45,1-1s-.45-1-1-1Z"/>
        <path d="M360.42,236.79h-56.22c-.55,0-1,.45-1,1s.45,1,1,1h56.22c.55,0,1-.45,1-1s-.45-1-1-1Z"/>
        <path d="M57.22,236.79H1c-.55,0-1,.45-1,1s.45,1,1,1H57.22c.55,0,1-.45,1-1s-.45-1-1-1Z"/>
      </g>
      <path d="M204.6,191.24H125.14c-2.28,0-4.13-1.85-4.13-4.13,0-5.03,3.4-10.55,9.33-15.14,5.66-4.38,12.49-6.99,18.27-6.99h55.99c2.28,0,4.13,1.85,4.13,4.13v18c0,2.28-1.85,4.13-4.13,4.13Zm-55.99-24.25c-5.35,0-11.73,2.46-17.05,6.57-5.36,4.14-8.56,9.21-8.56,13.55,0,1.17,.95,2.13,2.13,2.13h79.46c1.17,0,2.13-.95,2.13-2.13v-18c0-1.17-.95-2.13-2.13-2.13h-55.99Z"/>
      <path d="M147.74,180.12h-22.91c-.36,0-.7-.2-.87-.51-.18-.32-.17-.71,.02-1.01,.15-.24,3.66-5.81,10.4-9.32,.14-.07,.3-.11,.46-.11h12.91c1.42,0,2.57,1.15,2.57,2.57v5.82c0,1.42-1.15,2.57-2.57,2.57Zm-20.94-2h20.94c.31,0,.57-.26,.57-.57v-5.82c0-.31-.25-.57-.57-.57h-12.66c-4.05,2.16-6.85,5.16-8.29,6.96Z"/>
      <path d="M304.96,191.24h-91.59c-1.96,0-3.56-1.6-3.56-3.56v-19.13c0-1.96,1.6-3.56,3.56-3.56h91.59c1.96,0,3.56,1.6,3.56,3.56v19.13c0,1.96-1.6,3.56-3.56,3.56Zm-91.59-24.25c-.86,0-1.56,.7-1.56,1.56v19.13c0,.86,.7,1.56,1.56,1.56h91.59c.86,0,1.56-.7,1.56-1.56v-19.13c0-.86-.7-1.56-1.56-1.56h-91.59Z"/>
      <path d="M299.05,180.16h-79.76c-1.96,0-3.56-1.6-3.56-3.56v-3.88c0-1.96,1.6-3.56,3.56-3.56h79.76c1.96,0,3.56,1.6,3.56,3.56v3.88c0,1.96-1.6,3.56-3.56,3.56Zm-79.76-9c-.86,0-1.56,.7-1.56,1.56v3.88c0,.86,.7,1.56,1.56,1.56h79.76c.86,0,1.56-.7,1.56-1.56v-3.88c0-.86-.7-1.56-1.56-1.56h-79.76Z"/>
      <path d="M404.72,191.24h-91.59c-1.96,0-3.56-1.6-3.56-3.56v-19.13c0-1.96,1.6-3.56,3.56-3.56h91.59c1.96,0,3.56,1.6,3.56,3.56v19.13c0,1.96-1.6,3.56-3.56,3.56Zm-91.59-24.25c-.86,0-1.56,.7-1.56,1.56v19.13c0,.86,.7,1.56,1.56,1.56h91.59c.86,0,1.56-.7,1.56-1.56v-19.13c0-.86-.7-1.56-1.56-1.56h-91.59Z"/>
      <path d="M398.8,180.16h-79.76c-1.96,0-3.56-1.6-3.56-3.56v-3.88c0-1.96,1.6-3.56,3.56-3.56h79.76c1.96,0,3.56,1.6,3.56,3.56v3.88c0,1.96-1.6,3.56-3.56,3.56Zm-79.76-9c-.86,0-1.56,.7-1.56,1.56v3.88c0,.86,.7,1.56,1.56,1.56h79.76c.86,0,1.56-.7,1.56-1.56v-3.88c0-.86-.7-1.56-1.56-1.56h-79.76Z"/>
      <path d="M199.45,180.16h-40.8c-1.96,0-3.56-1.6-3.56-3.56v-3.88c0-1.96,1.6-3.56,3.56-3.56h40.8c1.96,0,3.56,1.6,3.56,3.56v3.88c0,1.96-1.6,3.56-3.56,3.56Zm-40.8-9c-.86,0-1.56,.7-1.56,1.56v3.88c0,.86,.7,1.56,1.56,1.56h40.8c.86,0,1.56-.7,1.56-1.56v-3.88c0-.86-.7-1.56-1.56-1.56h-40.8Z"/>
      <path d="M407.73,197.88H1c-.55,0-1-.45-1-1s.45-1,1-1H407.73c.55,0,1,.45,1,1s-.45,1-1,1Z"/>
      <path d="M407.73,154.58H1c-.55,0-1-.45-1-1s.45-1,1-1H407.73c.55,0,1,.45,1,1s-.45,1-1,1Z"/>
      <path d="M208.94,151.18c-.55,0-1-.45-1-1V49.86h-59.76v100.32c0,.55-.45,1-1,1s-1-.45-1-1V48.86c0-.55,.45-1,1-1h61.77c.55,0,1,.45,1,1v101.32c0,.55-.45,1-1,1Z"/>
      <path d="M208.94,230.8h-61.77c-.55,0-1-.45-1-1v-30.08c0-.55,.45-1,1-1s1,.45,1,1v29.08h59.76v-29.08c0-.55,.45-1,1-1s1,.45,1,1v30.08c0,.55-.45,1-1,1Z"/>
      <path d="M263.74,151.18c-.55,0-1-.45-1-1V71.31h-48.64v78.87c0,.55-.45,1-1,1s-1-.45-1-1V70.31c0-.55,.45-1,1-1h50.64c.55,0,1,.45,1,1v79.87c0,.55-.45,1-1,1Z"/>
      <path d="M263.74,230.8h-50.64c-.55,0-1-.45-1-1v-30.08c0-.55,.45-1,1-1s1,.45,1,1v29.08h48.64v-29.08c0-.55,.45-1,1-1s1,.45,1,1v30.08c0,.55-.45,1-1,1Z"/>
      <path d="M366.53,151.18c-.55,0-1-.45-1-1V71.31h-40.63v78.87c0,.55-.45,1-1,1s-1-.45-1-1V70.31c0-.55,.45-1,1-1h42.64c.55,0,1,.45,1,1v79.87c0,.55-.45,1-1,1Z"/>
      <path d="M366.53,230.8h-42.64c-.55,0-1-.45-1-1v-30.08c0-.55,.45-1,1-1s1,.45,1,1v29.08h40.63v-29.08c0-.55,.45-1,1-1s1,.45,1,1v30.08c0,.55-.45,1-1,1Z"/>
      <path d="M320.19,230.8h-33.46c-.55,0-1-.45-1-1v-30.08c0-.55,.45-1,1-1s1,.45,1,1v29.08h31.46v-29.08c0-.55,.45-1,1-1s1,.45,1,1v30.08c0,.55-.45,1-1,1Z"/>
      <path d="M320.19,151.18c-.55,0-1-.45-1-1v-58.79l-31.46,31.38v27.4c0,.55-.45,1-1,1s-1-.45-1-1v-27.82c0-.27,.11-.52,.29-.71l33.46-33.38c.29-.29,.72-.37,1.09-.22,.37,.16,.62,.52,.62,.92v61.2c0,.55-.45,1-1,1Z"/>
      <path d="M257.42,77.93h-38.61c-.55,0-1-.45-1-1s.45-1,1-1h38.61c.55,0,1,.45,1,1s-.45,1-1,1Z"/>
      <path d="M257.42,83.32h-38.61c-.55,0-1-.45-1-1s.45-1,1-1h38.61c.55,0,1,.45,1,1s-.45,1-1,1Z"/>
      <path d="M257.42,88.71h-38.61c-.55,0-1-.45-1-1s.45-1,1-1h38.61c.55,0,1,.45,1,1s-.45,1-1,1Z"/>
      <path d="M257.42,94.1h-38.61c-.55,0-1-.45-1-1s.45-1,1-1h38.61c.55,0,1,.45,1,1s-.45,1-1,1Z"/>
      <path d="M257.42,99.49h-38.61c-.55,0-1-.45-1-1s.45-1,1-1h38.61c.55,0,1,.45,1,1s-.45,1-1,1Z"/>
      <path d="M257.42,104.88h-38.61c-.55,0-1-.45-1-1s.45-1,1-1h38.61c.55,0,1,.45,1,1s-.45,1-1,1Z"/>
      <path d="M257.42,110.27h-38.61c-.55,0-1-.45-1-1s.45-1,1-1h38.61c.55,0,1,.45,1,1s-.45,1-1,1Z"/>
      <path d="M257.42,203.41h-38.61c-.55,0-1-.45-1-1s.45-1,1-1h38.61c.55,0,1,.45,1,1s-.45,1-1,1Z"/>
      <path d="M257.42,208.8h-38.61c-.55,0-1-.45-1-1s.45-1,1-1h38.61c.55,0,1,.45,1,1s-.45,1-1,1Z"/>
      <path d="M257.42,214.19h-38.61c-.55,0-1-.45-1-1s.45-1,1-1h38.61c.55,0,1,.45,1,1s-.45,1-1,1Z"/>
      <path d="M257.42,219.58h-38.61c-.55,0-1-.45-1-1s.45-1,1-1h38.61c.55,0,1,.45,1,1s-.45,1-1,1Z"/>
      <path d="M257.42,224.97h-38.61c-.55,0-1-.45-1-1s.45-1,1-1h38.61c.55,0,1,.45,1,1s-.45,1-1,1Z"/>
      <path d="M257.42,115.66h-38.61c-.55,0-1-.45-1-1s.45-1,1-1h38.61c.55,0,1,.45,1,1s-.45,1-1,1Z"/>
      <path d="M257.42,121.05h-38.61c-.55,0-1-.45-1-1s.45-1,1-1h38.61c.55,0,1,.45,1,1s-.45,1-1,1Z"/>
      <path d="M257.42,126.44h-38.61c-.55,0-1-.45-1-1s.45-1,1-1h38.61c.55,0,1,.45,1,1s-.45,1-1,1Z"/>
      <path d="M257.42,131.83h-38.61c-.55,0-1-.45-1-1s.45-1,1-1h38.61c.55,0,1,.45,1,1s-.45,1-1,1Z"/>
      <path d="M257.42,137.22h-38.61c-.55,0-1-.45-1-1s.45-1,1-1h38.61c.55,0,1,.45,1,1s-.45,1-1,1Z"/>
      <path d="M257.42,142.61h-38.61c-.55,0-1-.45-1-1s.45-1,1-1h38.61c.55,0,1,.45,1,1s-.45,1-1,1Z"/>
      <path d="M257.42,148h-38.61c-.55,0-1-.45-1-1s.45-1,1-1h38.61c.55,0,1,.45,1,1s-.45,1-1,1Z"/>
      <path d="M290.22,126.72c-.26,0-.51-.1-.71-.29-.39-.39-.39-1.03,0-1.42l26.27-26.2c.39-.39,1.02-.39,1.42,0,.39,.39,.39,1.03,0,1.42l-26.27,26.2c-.2,.19-.45,.29-.71,.29Z"/>
      <path d="M19.04,230.8h-4.29c-.55,0-1-.45-1-1v-32.63c0-.55,.45-1,1-1h4.29c.55,0,1,.45,1,1v32.63c0,.55-.45,1-1,1Zm-3.29-2h2.29v-30.63h-2.29v30.63Z"/>
      <path d="M395.39,230.8h-4.29c-.55,0-1-.45-1-1v-32.63c0-.55,.45-1,1-1h4.29c.55,0,1,.45,1,1v32.63c0,.55-.45,1-1,1Zm-3.29-2h2.29v-30.63h-2.29v30.63Z"/>
      <path d="M272.58,230.8h-4.29c-.55,0-1-.45-1-1v-32.63c0-.55,.45-1,1-1h4.29c.55,0,1,.45,1,1v32.63c0,.55-.45,1-1,1Zm-3.29-2h2.29v-30.63h-2.29v30.63Z"/>
      <path d="M139.4,230.8h-4.29c-.55,0-1-.45-1-1v-32.63c0-.55,.45-1,1-1h4.29c.55,0,1,.45,1,1v32.63c0,.55-.45,1-1,1Zm-3.29-2h2.29v-30.63h-2.29v30.63Z"/>
      <path d="M164.24,66.07h-8.29c-.55,0-1-.45-1-1v-8.29c0-.55,.45-1,1-1h8.29c.55,0,1,.45,1,1v8.29c0,.55-.45,1-1,1Zm-7.29-2h6.29v-6.29h-6.29v6.29Z"/>
      <path d="M176.22,66.07h-8.29c-.55,0-1-.45-1-1v-8.29c0-.55,.45-1,1-1h8.29c.55,0,1,.45,1,1v8.29c0,.55-.45,1-1,1Zm-7.29-2h6.29v-6.29h-6.29v6.29Z"/>
      <path d="M188.19,66.07h-8.29c-.55,0-1-.45-1-1v-8.29c0-.55,.45-1,1-1h8.29c.55,0,1,.45,1,1v8.29c0,.55-.45,1-1,1Zm-7.29-2h6.29v-6.29h-6.29v6.29Z"/>
      <path d="M200.17,66.07h-8.29c-.55,0-1-.45-1-1v-8.29c0-.55,.45-1,1-1h8.29c.55,0,1,.45,1,1v8.29c0,.55-.45,1-1,1Zm-7.29-2h6.29v-6.29h-6.29v6.29Z"/>
      <path d="M164.24,77.17h-8.29c-.55,0-1-.45-1-1v-8.29c0-.55,.45-1,1-1h8.29c.55,0,1,.45,1,1v8.29c0,.55-.45,1-1,1Zm-7.29-2h6.29v-6.29h-6.29v6.29Z"/>
      <path d="M176.22,77.17h-8.29c-.55,0-1-.45-1-1v-8.29c0-.55,.45-1,1-1h8.29c.55,0,1,.45,1,1v8.29c0,.55-.45,1-1,1Zm-7.29-2h6.29v-6.29h-6.29v6.29Z"/>
      <path d="M188.19,77.17h-8.29c-.55,0-1-.45-1-1v-8.29c0-.55,.45-1,1-1h8.29c.55,0,1,.45,1,1v8.29c0,.55-.45,1-1,1Zm-7.29-2h6.29v-6.29h-6.29v6.29Z"/>
      <path d="M200.17,77.17h-8.29c-.55,0-1-.45-1-1v-8.29c0-.55,.45-1,1-1h8.29c.55,0,1,.45,1,1v8.29c0,.55-.45,1-1,1Zm-7.29-2h6.29v-6.29h-6.29v6.29Z"/>
      <path d="M164.24,88.28h-8.29c-.55,0-1-.45-1-1v-8.29c0-.55,.45-1,1-1h8.29c.55,0,1,.45,1,1v8.29c0,.55-.45,1-1,1Zm-7.29-2h6.29v-6.29h-6.29v6.29Z"/>
      <path d="M176.22,88.28h-8.29c-.55,0-1-.45-1-1v-8.29c0-.55,.45-1,1-1h8.29c.55,0,1,.45,1,1v8.29c0,.55-.45,1-1,1Zm-7.29-2h6.29v-6.29h-6.29v6.29Z"/>
      <path d="M188.19,88.28h-8.29c-.55,0-1-.45-1-1v-8.29c0-.55,.45-1,1-1h8.29c.55,0,1,.45,1,1v8.29c0,.55-.45,1-1,1Zm-7.29-2h6.29v-6.29h-6.29v6.29Z"/>
      <path d="M200.17,88.28h-8.29c-.55,0-1-.45-1-1v-8.29c0-.55,.45-1,1-1h8.29c.55,0,1,.45,1,1v8.29c0,.55-.45,1-1,1Zm-7.29-2h6.29v-6.29h-6.29v6.29Z"/>
      <path d="M164.24,110.42h-8.29c-.55,0-1-.45-1-1v-8.29c0-.55,.45-1,1-1h8.29c.55,0,1,.45,1,1v8.29c0,.55-.45,1-1,1Zm-7.29-2h6.29v-6.29h-6.29v6.29Z"/>
      <path d="M176.22,110.42h-8.29c-.55,0-1-.45-1-1v-8.29c0-.55,.45-1,1-1h8.29c.55,0,1,.45,1,1v8.29c0,.55-.45,1-1,1Zm-7.29-2h6.29v-6.29h-6.29v6.29Z"/>
      <path d="M188.19,110.42h-8.29c-.55,0-1-.45-1-1v-8.29c0-.55,.45-1,1-1h8.29c.55,0,1,.45,1,1v8.29c0,.55-.45,1-1,1Zm-7.29-2h6.29v-6.29h-6.29v6.29Z"/>
      <path d="M200.17,110.42h-8.29c-.55,0-1-.45-1-1v-8.29c0-.55,.45-1,1-1h8.29c.55,0,1,.45,1,1v8.29c0,.55-.45,1-1,1Zm-7.29-2h6.29v-6.29h-6.29v6.29Z"/>
      <path d="M164.24,121.52h-8.29c-.55,0-1-.45-1-1v-8.29c0-.55,.45-1,1-1h8.29c.55,0,1,.45,1,1v8.29c0,.55-.45,1-1,1Zm-7.29-2h6.29v-6.29h-6.29v6.29Z"/>
      <path d="M176.22,121.52h-8.29c-.55,0-1-.45-1-1v-8.29c0-.55,.45-1,1-1h8.29c.55,0,1,.45,1,1v8.29c0,.55-.45,1-1,1Zm-7.29-2h6.29v-6.29h-6.29v6.29Z"/>
      <path d="M188.19,121.52h-8.29c-.55,0-1-.45-1-1v-8.29c0-.55,.45-1,1-1h8.29c.55,0,1,.45,1,1v8.29c0,.55-.45,1-1,1Zm-7.29-2h6.29v-6.29h-6.29v6.29Z"/>
      <path d="M200.17,121.52h-8.29c-.55,0-1-.45-1-1v-8.29c0-.55,.45-1,1-1h8.29c.55,0,1,.45,1,1v8.29c0,.55-.45,1-1,1Zm-7.29-2h6.29v-6.29h-6.29v6.29Z"/>
      <path d="M164.24,132.63h-8.29c-.55,0-1-.45-1-1v-8.29c0-.55,.45-1,1-1h8.29c.55,0,1,.45,1,1v8.29c0,.55-.45,1-1,1Zm-7.29-2h6.29v-6.29h-6.29v6.29Z"/>
      <path d="M176.22,132.63h-8.29c-.55,0-1-.45-1-1v-8.29c0-.55,.45-1,1-1h8.29c.55,0,1,.45,1,1v8.29c0,.55-.45,1-1,1Zm-7.29-2h6.29v-6.29h-6.29v6.29Z"/>
      <path d="M188.19,132.63h-8.29c-.55,0-1-.45-1-1v-8.29c0-.55,.45-1,1-1h8.29c.55,0,1,.45,1,1v8.29c0,.55-.45,1-1,1Zm-7.29-2h6.29v-6.29h-6.29v6.29Z"/>
      <path d="M200.17,132.63h-8.29c-.55,0-1-.45-1-1v-8.29c0-.55,.45-1,1-1h8.29c.55,0,1,.45,1,1v8.29c0,.55-.45,1-1,1Zm-7.29-2h6.29v-6.29h-6.29v6.29Z"/>
      <path d="M200.17,219.58h-44.23c-.55,0-1-.45-1-1v-8.11c0-.55,.45-1,1-1h44.23c.55,0,1,.45,1,1v8.11c0,.55-.45,1-1,1Zm-43.23-2h42.23v-6.11h-42.23v6.11Z"/>
      <path d="M70.93,64.24h-26.14c-.55,0-1-.45-1-1v-8.95c0-.55,.45-1,1-1,15.53,0,26.33,8.8,26.78,9.18,.32,.27,.45,.71,.3,1.11-.14,.4-.52,.66-.94,.66Zm-25.14-2h21.98c-3.87-2.47-11.9-6.67-21.98-6.93v6.93Z"/>
      <path d="M83.57,76.74H44.78c-.55,0-1-.45-1-1v-8.95c0-.55,.45-1,1-1h29.85c.16,0,.32,.04,.47,.11,2.71,1.42,8.57,8.4,9.23,9.19,.25,.3,.3,.71,.14,1.07-.16,.35-.52,.58-.91,.58Zm-37.78-2h35.61c-2.12-2.42-5.36-5.93-7.02-6.94h-28.59v6.94Z"/>
      <path d="M91.56,89.24H44.78c-.55,0-1-.45-1-1v-8.95c0-.55,.45-1,1-1h41.38c.31,0,.61,.15,.8,.4,1.16,1.55,4.17,6,5.52,9.15,.13,.31,.1,.66-.08,.95-.19,.28-.5,.45-.84,.45Zm-45.77-2h44.19c-1.26-2.45-3.19-5.39-4.32-6.94H45.78v6.94Z"/>
      <path d="M97.15,101.75H44.78c-.55,0-1-.45-1-1v-8.95c0-.55,.45-1,1-1h48.56c.39,0,.75,.23,.91,.58l.03,.07c1.34,2.92,2.61,5.68,3.8,8.95,.11,.31,.07,.65-.12,.92-.19,.27-.49,.43-.82,.43Zm-51.36-2h49.92c-.94-2.43-1.91-4.58-3-6.94H45.78v6.94Z"/>
      <path d="M101.11,114.25H44.78c-.55,0-1-.45-1-1v-8.95c0-.55,.45-1,1-1h53.64c.43,0,.82,.28,.95,.69,.16,.48,.3,.91,.43,1.31,.77,2.31,1.23,3.71,2.27,7.69,.08,.3,.01,.62-.18,.87-.19,.25-.48,.39-.79,.39Zm-55.33-2h54.02c-.81-3-1.24-4.3-1.91-6.32-.07-.2-.14-.41-.21-.63H45.78v6.94Z"/>
      <path d="M103.81,126.75H44.78c-.55,0-1-.45-1-1v-8.95c0-.55,.45-1,1-1h57.21c.45,0,.84,.3,.96,.72,.91,3.15,1.3,5.34,1.85,9.08,.04,.29-.04,.58-.23,.8-.19,.22-.47,.35-.76,.35Zm-58.03-2h56.87c-.41-2.7-.77-4.59-1.42-6.94H45.78v6.94Z"/>
      <path d="M105.47,139.25H44.78c-.55,0-1-.45-1-1v-8.95c0-.55,.45-1,1-1h59.6c.48,0,.89,.34,.98,.81,.46,2.32,.6,3.85,.8,5.96,.08,.88,.17,1.87,.3,3.08,.03,.28-.06,.56-.25,.78-.19,.21-.46,.33-.74,.33Zm-59.69-2h58.58c-.07-.74-.14-1.4-.19-2-.17-1.86-.29-3.17-.61-4.95H45.78v6.94Z"/>
      <path d="M106.27,151.75H44.78c-.55,0-1-.45-1-1v-8.95c0-.55,.45-1,1-1h61c.53,0,.97,.41,1,.94,.19,3.09,.29,5.03,.49,8.9v.06c.02,.27-.08,.54-.27,.74-.19,.2-.45,.31-.73,.31Zm-60.49-2h59.43c-.15-2.85-.24-4.63-.38-6.94H45.78v6.94Z"/>
      <path d="M106.27,209.43H44.78c-.55,0-1-.45-1-1v-8.95c0-.55,.45-1,1-1h61.49c.55,0,1,.45,1,1v8.95c0,.55-.45,1-1,1Zm-60.49-2h59.49v-6.95H45.78v6.95Z"/>
      <path d="M106.27,228.58H44.78c-.55,0-1-.45-1-1v-15.97c0-.55,.45-1,1-1h61.49c.55,0,1,.45,1,1v15.97c0,.55-.45,1-1,1Zm-60.49-2h59.49v-13.97H45.78v13.97Z"/>
      <path d="M289.79,22.04c-.21,0-.4-.09-.54-.25-2.89-3.33-5.16-7.05-6.06-9.94-1.11-3.54-.8-6.86,.85-9.11,1.3-1.77,3.34-2.74,5.74-2.74s4.45,.98,5.75,2.75c1.65,2.25,1.97,5.57,.86,9.1-.91,2.92-3.07,6.45-6.06,9.94-.14,.16-.33,.25-.54,.25h0Zm0-20.61c-1.96,0-3.55,.75-4.59,2.16-1.38,1.88-1.61,4.73-.64,7.84,.79,2.54,2.73,5.78,5.23,8.79,2.59-3.13,4.44-6.23,5.24-8.79,.97-3.1,.73-5.95-.65-7.83-1.04-1.42-2.63-2.17-4.6-2.17Z"/>
      <path d="M289.79,11.67c-2.47,0-4.47-2.01-4.47-4.47s2.01-4.47,4.47-4.47,4.47,2.01,4.47,4.47-2.01,4.47-4.47,4.47Zm0-7.51c-1.68,0-3.04,1.36-3.04,3.04s1.36,3.04,3.04,3.04,3.04-1.36,3.04-3.04-1.36-3.04-3.04-3.04Z"/>
      <path d="M103.7,79c-.21,0-.4-.09-.54-.25-2.74-3.16-4.89-6.68-5.75-9.43-1.05-3.37-.76-6.52,.81-8.66,1.24-1.68,3.18-2.61,5.46-2.61s4.24,.93,5.48,2.62c1.57,2.14,1.87,5.29,.82,8.65-.87,2.77-2.91,6.12-5.75,9.43-.14,.16-.33,.25-.54,.25h0Zm0-19.52c-1.84,0-3.34,.7-4.31,2.03-1.3,1.77-1.52,4.46-.6,7.39,.75,2.39,2.57,5.44,4.92,8.28,2.4-2.92,4.18-5.9,4.93-8.28,.91-2.92,.69-5.61-.61-7.38-.98-1.33-2.48-2.04-4.33-2.04Z"/>
      <path d="M103.7,69.18c-2.36,0-4.27-1.92-4.27-4.27s1.92-4.27,4.27-4.27,4.27,1.92,4.27,4.27-1.92,4.27-4.27,4.27Zm0-7.12c-1.57,0-2.84,1.28-2.84,2.84s1.28,2.84,2.84,2.84,2.84-1.28,2.84-2.84-1.28-2.84-2.84-2.84Z"/>
      <path class="cls-2" d="M103.7,107.26c-.08,0-.14-.06-.14-.14v-1.72c0-.08,.06-.14,.14-.14s.14,.06,.14,.14v1.72c0,.08-.06,.14-.14,.14Zm0-3.43c-.08,0-.14-.06-.14-.14v-1.72c0-.08,.06-.14,.14-.14s.14,.06,.14,.14v1.72c0,.08-.06,.14-.14,.14Zm0-3.43c-.08,0-.14-.06-.14-.14v-1.72c0-.08,.06-.14,.14-.14s.14,.06,.14,.14v1.72c0,.08-.06,.14-.14,.14Zm0-3.43c-.08,0-.14-.06-.14-.14v-1.72c0-.08,.06-.14,.14-.14s.14,.06,.14,.14v1.72c0,.08-.06,.14-.14,.14Zm0-3.43c-.08,0-.14-.06-.14-.14v-1.72c0-.08,.06-.14,.14-.14s.14,.06,.14,.14v1.72c0,.08-.06,.14-.14,.14Zm0-3.43c-.08,0-.14-.06-.14-.14v-1.72c0-.08,.06-.14,.14-.14s.14,.06,.14,.14v1.72c0,.08-.06,.14-.14,.14Zm0-3.43c-.08,0-.14-.06-.14-.14v-1.72c0-.08,.06-.14,.14-.14s.14,.06,.14,.14v1.72c0,.08-.06,.14-.14,.14Zm0-3.43c-.08,0-.14-.06-.14-.14v-1.72c0-.08,.06-.14,.14-.14s.14,.06,.14,.14v1.72c0,.08-.06,.14-.14,.14Z"/>
      <path d="M335.36,75.81h-11.46c-.55,0-1-.45-1-1s.45-1,1-1h11.46c.55,0,1,.45,1,1s-.45,1-1,1Z"/>
      <path d="M335.36,80.66h-11.46c-.55,0-1-.45-1-1s.45-1,1-1h11.46c.55,0,1,.45,1,1s-.45,1-1,1Z"/>
      <path d="M335.36,85.51h-11.46c-.55,0-1-.45-1-1s.45-1,1-1h11.46c.55,0,1,.45,1,1s-.45,1-1,1Z"/>
      <path d="M335.36,90.36h-11.46c-.55,0-1-.45-1-1s.45-1,1-1h11.46c.55,0,1,.45,1,1s-.45,1-1,1Z"/>
      <path d="M335.36,95.21h-11.46c-.55,0-1-.45-1-1s.45-1,1-1h11.46c.55,0,1,.45,1,1s-.45,1-1,1Z"/>
      <path d="M335.36,100.06h-11.46c-.55,0-1-.45-1-1s.45-1,1-1h11.46c.55,0,1,.45,1,1s-.45,1-1,1Z"/>
      <path d="M335.36,104.92h-11.46c-.55,0-1-.45-1-1s.45-1,1-1h11.46c.55,0,1,.45,1,1s-.45,1-1,1Z"/>
      <path d="M335.36,109.77h-11.46c-.55,0-1-.45-1-1s.45-1,1-1h11.46c.55,0,1,.45,1,1s-.45,1-1,1Z"/>
      <path d="M335.36,114.62h-11.46c-.55,0-1-.45-1-1s.45-1,1-1h11.46c.55,0,1,.45,1,1s-.45,1-1,1Z"/>
      <path d="M335.36,119.47h-11.46c-.55,0-1-.45-1-1s.45-1,1-1h11.46c.55,0,1,.45,1,1s-.45,1-1,1Z"/>
      <path d="M335.36,124.32h-11.46c-.55,0-1-.45-1-1s.45-1,1-1h11.46c.55,0,1,.45,1,1s-.45,1-1,1Z"/>
      <path d="M335.36,129.17h-11.46c-.55,0-1-.45-1-1s.45-1,1-1h11.46c.55,0,1,.45,1,1s-.45,1-1,1Z"/>
      <path d="M335.36,134.03h-11.46c-.55,0-1-.45-1-1s.45-1,1-1h11.46c.55,0,1,.45,1,1s-.45,1-1,1Z"/>
      <path d="M335.36,138.88h-11.46c-.55,0-1-.45-1-1s.45-1,1-1h11.46c.55,0,1,.45,1,1s-.45,1-1,1Z"/>
      <path d="M335.36,143.73h-11.46c-.55,0-1-.45-1-1s.45-1,1-1h11.46c.55,0,1,.45,1,1s-.45,1-1,1Z"/>
      <path d="M335.36,148.58h-11.46c-.55,0-1-.45-1-1s.45-1,1-1h11.46c.55,0,1,.45,1,1s-.45,1-1,1Z"/>
      <path d="M366.53,75.81h-22.31c-.55,0-1-.45-1-1s.45-1,1-1h22.31c.55,0,1,.45,1,1s-.45,1-1,1Z"/>
      <path d="M366.53,80.66h-22.31c-.55,0-1-.45-1-1s.45-1,1-1h22.31c.55,0,1,.45,1,1s-.45,1-1,1Z"/>
      <path d="M366.53,85.51h-22.31c-.55,0-1-.45-1-1s.45-1,1-1h22.31c.55,0,1,.45,1,1s-.45,1-1,1Z"/>
      <path d="M366.53,90.36h-22.31c-.55,0-1-.45-1-1s.45-1,1-1h22.31c.55,0,1,.45,1,1s-.45,1-1,1Z"/>
      <path d="M366.53,95.21h-22.31c-.55,0-1-.45-1-1s.45-1,1-1h22.31c.55,0,1,.45,1,1s-.45,1-1,1Z"/>
      <path d="M366.53,100.06h-22.31c-.55,0-1-.45-1-1s.45-1,1-1h22.31c.55,0,1,.45,1,1s-.45,1-1,1Z"/>
      <path d="M335.36,203.11h-11.46c-.55,0-1-.45-1-1s.45-1,1-1h11.46c.55,0,1,.45,1,1s-.45,1-1,1Z"/>
      <path d="M335.36,207.96h-11.46c-.55,0-1-.45-1-1s.45-1,1-1h11.46c.55,0,1,.45,1,1s-.45,1-1,1Z"/>
      <path d="M335.36,212.81h-11.46c-.55,0-1-.45-1-1s.45-1,1-1h11.46c.55,0,1,.45,1,1s-.45,1-1,1Z"/>
      <path d="M335.36,217.66h-11.46c-.55,0-1-.45-1-1s.45-1,1-1h11.46c.55,0,1,.45,1,1s-.45,1-1,1Z"/>
      <path d="M335.36,222.51h-11.46c-.55,0-1-.45-1-1s.45-1,1-1h11.46c.55,0,1,.45,1,1s-.45,1-1,1Z"/>
      <path d="M335.36,227.36h-11.46c-.55,0-1-.45-1-1s.45-1,1-1h11.46c.55,0,1,.45,1,1s-.45,1-1,1Z"/>
      <path d="M366.53,203.11h-22.31c-.55,0-1-.45-1-1s.45-1,1-1h22.31c.55,0,1,.45,1,1s-.45,1-1,1Z"/>
      <path d="M366.53,207.96h-22.31c-.55,0-1-.45-1-1s.45-1,1-1h22.31c.55,0,1,.45,1,1s-.45,1-1,1Z"/>
      <path d="M366.53,212.81h-22.31c-.55,0-1-.45-1-1s.45-1,1-1h22.31c.55,0,1,.45,1,1s-.45,1-1,1Z"/>
      <path d="M366.53,217.66h-22.31c-.55,0-1-.45-1-1s.45-1,1-1h22.31c.55,0,1,.45,1,1s-.45,1-1,1Z"/>
      <path d="M366.53,222.51h-22.31c-.55,0-1-.45-1-1s.45-1,1-1h22.31c.55,0,1,.45,1,1s-.45,1-1,1Z"/>
      <path d="M366.53,227.36h-22.31c-.55,0-1-.45-1-1s.45-1,1-1h22.31c.55,0,1,.45,1,1s-.45,1-1,1Z"/>
      <path d="M366.53,104.92h-22.31c-.55,0-1-.45-1-1s.45-1,1-1h22.31c.55,0,1,.45,1,1s-.45,1-1,1Z"/>
      <path d="M366.53,109.77h-22.31c-.55,0-1-.45-1-1s.45-1,1-1h22.31c.55,0,1,.45,1,1s-.45,1-1,1Z"/>
      <path d="M366.53,114.62h-22.31c-.55,0-1-.45-1-1s.45-1,1-1h22.31c.55,0,1,.45,1,1s-.45,1-1,1Z"/>
      <path d="M366.53,119.47h-22.31c-.55,0-1-.45-1-1s.45-1,1-1h22.31c.55,0,1,.45,1,1s-.45,1-1,1Z"/>
      <path d="M366.53,124.32h-22.31c-.55,0-1-.45-1-1s.45-1,1-1h22.31c.55,0,1,.45,1,1s-.45,1-1,1Z"/>
      <path d="M366.53,129.17h-22.31c-.55,0-1-.45-1-1s.45-1,1-1h22.31c.55,0,1,.45,1,1s-.45,1-1,1Z"/>
      <path d="M366.53,134.03h-22.31c-.55,0-1-.45-1-1s.45-1,1-1h22.31c.55,0,1,.45,1,1s-.45,1-1,1Z"/>
      <path d="M366.53,138.88h-22.31c-.55,0-1-.45-1-1s.45-1,1-1h22.31c.55,0,1,.45,1,1s-.45,1-1,1Z"/>
      <path d="M366.53,143.73h-22.31c-.55,0-1-.45-1-1s.45-1,1-1h22.31c.55,0,1,.45,1,1s-.45,1-1,1Z"/>
      <path d="M366.53,148.58h-22.31c-.55,0-1-.45-1-1s.45-1,1-1h22.31c.55,0,1,.45,1,1s-.45,1-1,1Z"/>
      <path d="M335.93,230.8c-.55,0-1-.45-1-1v-30.08c0-.55,.45-1,1-1s1,.45,1,1v30.08c0,.55-.45,1-1,1Z"/>
      <path d="M339.5,230.8c-.55,0-1-.45-1-1v-30.08c0-.55,.45-1,1-1s1,.45,1,1v30.08c0,.55-.45,1-1,1Z"/>
      <path d="M203.86,34.37h-3.37c-.2,0-.4-.09-.54-.24-.14-.15-.2-.36-.17-.56l.86-6.97h-10.86c-.31,0-.58-.2-.68-.49l-2.47-7.35c-.07-.21-.04-.43,.08-.61,.12-.18,.31-.3,.52-.33l1.69-.18c.25-.03,.51,.08,.66,.29l2.19,3.03,9.09-.72-.7-7.13c-.02-.2,.05-.4,.18-.55,.14-.15,.33-.23,.53-.23h2.98c.24,0,.47,.12,.6,.33l4.5,7.02h3.05c2.53,0,4.4,1.37,5.07,2.64,.48,.9,.44,1.93-.1,2.83-.54,.89-1.45,1.45-2.39,1.45h-5.62l-4.5,7.42c-.13,.21-.36,.34-.61,.34Zm-2.56-1.43h2.15l4.5-7.42c.13-.21,.36-.34,.61-.34h6.03c.42,0,.89-.3,1.16-.76,.16-.27,.39-.81,.06-1.42-.4-.75-1.74-1.87-3.81-1.87h-3.44c-.24,0-.47-.13-.6-.33l-4.5-7.02h-1.8l.69,7.07c.02,.19-.04,.38-.16,.53-.12,.15-.3,.24-.49,.25l-10.22,.81c-.25,.02-.49-.09-.64-.29l-2.18-3.02-.39,.04,2.02,6.02h11.15c.2,0,.4,.09,.54,.24,.14,.15,.2,.36,.17,.56l-.86,6.97Z"/>
      <path class="cls-2" d="M51.51,46.61c-.08,0-.14-.06-.14-.14v-1.72c0-.08,.06-.14,.14-.14s.14,.06,.14,.14v1.72c0,.08-.06,.14-.14,.14Zm0-3.43c-.08,0-.14-.06-.14-.14v-1.72c0-.08,.06-.14,.14-.14s.14,.06,.14,.14v1.72c0,.08-.06,.14-.14,.14Zm112.98-.28c-.08,0-.14-.06-.14-.14v-1.72c0-.08,.06-.14,.14-.14s.14,.06,.14,.14v1.72c0,.08-.06,.14-.14,.14Zm-112.98-3.15c-.08,0-.14-.06-.14-.14v-1.72c0-.08,.06-.14,.14-.14s.14,.06,.14,.14v1.72c0,.08-.06,.14-.14,.14Zm112.98-.28c-.08,0-.14-.06-.14-.14v-1.72c0-.08,.06-.14,.14-.14s.14,.06,.14,.14v1.72c0,.08-.06,.14-.14,.14Zm-112.98-3.15c-.08,0-.14-.06-.14-.14v-1.72c0-.08,.06-.14,.14-.14s.14,.06,.14,.14v1.72c0,.08-.06,.14-.14,.14Zm112.98-.28c-.08,0-.14-.06-.14-.14v-1.72c0-.08,.06-.14,.14-.14s.14,.06,.14,.14v1.72c0,.08-.06,.14-.14,.14Zm-112.98-3.15c-.08,0-.14-.06-.14-.14v-1.72c0-.08,.06-.14,.14-.14s.14,.06,.14,.14v1.72c0,.08-.06,.14-.14,.14Zm112.98-.28c-.08,0-.14-.06-.14-.14v-1.72c0-.08,.06-.14,.14-.14s.14,.06,.14,.14v1.72c0,.08-.06,.14-.14,.14Zm-112.98-3.15c-.08,0-.14-.06-.14-.14v-1.72c0-.08,.06-.14,.14-.14s.14,.06,.14,.14v1.72c0,.08-.06,.14-.14,.14Zm112.98-.28c-.08,0-.14-.06-.14-.14v-1.72c0-.08,.06-.14,.14-.14s.14,.06,.14,.14v1.72c0,.08-.06,.14-.14,.14Zm-.86-2.57h-1.72c-.08,0-.14-.06-.14-.14s.06-.14,.14-.14h1.72c.08,0,.14,.06,.14,.14s-.06,.14-.14,.14Zm-3.43,0h-1.72c-.08,0-.14-.06-.14-.14s.06-.14,.14-.14h1.72c.08,0,.14,.06,.14,.14s-.06,.14-.14,.14Zm-3.43,0h-1.72c-.08,0-.14-.06-.14-.14s.06-.14,.14-.14h1.72c.08,0,.14,.06,.14,.14s-.06,.14-.14,.14Zm-3.43,0h-1.72c-.08,0-.14-.06-.14-.14s.06-.14,.14-.14h1.72c.08,0,.14,.06,.14,.14s-.06,.14-.14,.14Zm-3.43,0h-1.72c-.08,0-.14-.06-.14-.14s.06-.14,.14-.14h1.72c.08,0,.14,.06,.14,.14s-.06,.14-.14,.14Zm-3.43,0h-1.72c-.08,0-.14-.06-.14-.14s.06-.14,.14-.14h1.72c.08,0,.14,.06,.14,.14s-.06,.14-.14,.14Zm-3.43,0h-1.72c-.08,0-.14-.06-.14-.14s.06-.14,.14-.14h1.72c.08,0,.14,.06,.14,.14s-.06,.14-.14,.14Zm-3.43,0h-1.72c-.08,0-.14-.06-.14-.14s.06-.14,.14-.14h1.72c.08,0,.14,.06,.14,.14s-.06,.14-.14,.14Zm-3.43,0h-1.72c-.08,0-.14-.06-.14-.14s.06-.14,.14-.14h1.72c.08,0,.14,.06,.14,.14s-.06,.14-.14,.14Zm-3.43,0h-1.72c-.08,0-.14-.06-.14-.14s.06-.14,.14-.14h1.72c.08,0,.14,.06,.14,.14s-.06,.14-.14,.14Zm-3.43,0h-1.72c-.08,0-.14-.06-.14-.14s.06-.14,.14-.14h1.72c.08,0,.14,.06,.14,.14s-.06,.14-.14,.14Zm-3.43,0h-1.72c-.08,0-.14-.06-.14-.14s.06-.14,.14-.14h1.72c.08,0,.14,.06,.14,.14s-.06,.14-.14,.14Zm-3.43,0h-1.72c-.08,0-.14-.06-.14-.14s.06-.14,.14-.14h1.72c.08,0,.14,.06,.14,.14s-.06,.14-.14,.14Zm-3.43,0h-1.72c-.08,0-.14-.06-.14-.14s.06-.14,.14-.14h1.72c.08,0,.14,.06,.14,.14s-.06,.14-.14,.14Zm-3.43,0h-1.72c-.08,0-.14-.06-.14-.14s.06-.14,.14-.14h1.72c.08,0,.14,.06,.14,.14s-.06,.14-.14,.14Zm-3.43,0h-1.72c-.08,0-.14-.06-.14-.14s.06-.14,.14-.14h1.72c.08,0,.14,.06,.14,.14s-.06,.14-.14,.14Zm-3.43,0h-1.72c-.08,0-.14-.06-.14-.14s.06-.14,.14-.14h1.72c.08,0,.14,.06,.14,.14s-.06,.14-.14,.14Zm-3.43,0h-1.72c-.08,0-.14-.06-.14-.14s.06-.14,.14-.14h1.72c.08,0,.14,.06,.14,.14s-.06,.14-.14,.14Zm-3.43,0h-1.72c-.08,0-.14-.06-.14-.14s.06-.14,.14-.14h1.72c.08,0,.14,.06,.14,.14s-.06,.14-.14,.14Zm-3.43,0h-1.72c-.08,0-.14-.06-.14-.14s.06-.14,.14-.14h1.72c.08,0,.14,.06,.14,.14s-.06,.14-.14,.14Zm-3.43,0h-1.72c-.08,0-.14-.06-.14-.14s.06-.14,.14-.14h1.72c.08,0,.14,.06,.14,.14s-.06,.14-.14,.14Zm-3.43,0h-1.72c-.08,0-.14-.06-.14-.14s.06-.14,.14-.14h1.72c.08,0,.14,.06,.14,.14s-.06,.14-.14,.14Zm-3.43,0h-1.72c-.08,0-.14-.06-.14-.14s.06-.14,.14-.14h1.72c.08,0,.14,.06,.14,.14s-.06,.14-.14,.14Zm-3.43,0h-1.72c-.08,0-.14-.06-.14-.14s.06-.14,.14-.14h1.72c.08,0,.14,.06,.14,.14s-.06,.14-.14,.14Zm-3.43,0h-1.72c-.08,0-.14-.06-.14-.14s.06-.14,.14-.14h1.72c.08,0,.14,.06,.14,.14s-.06,.14-.14,.14Zm-3.43,0h-1.72c-.08,0-.14-.06-.14-.14s.06-.14,.14-.14h1.72c.08,0,.14,.06,.14,.14s-.06,.14-.14,.14Zm-3.43,0h-1.72c-.08,0-.14-.06-.14-.14s.06-.14,.14-.14h1.72c.08,0,.14,.06,.14,.14s-.06,.14-.14,.14Zm-3.43,0h-1.72c-.08,0-.14-.06-.14-.14s.06-.14,.14-.14h1.72c.08,0,.14,.06,.14,.14s-.06,.14-.14,.14Zm-3.43,0h-1.72c-.08,0-.14-.06-.14-.14s.06-.14,.14-.14h1.72c.08,0,.14,.06,.14,.14s-.06,.14-.14,.14Zm-3.43,0h-1.72c-.08,0-.14-.06-.14-.14s.06-.14,.14-.14h1.72c.08,0,.14,.06,.14,.14s-.06,.14-.14,.14Zm-3.43,0h-1.72c-.08,0-.14-.06-.14-.14s.06-.14,.14-.14h1.72c.08,0,.14,.06,.14,.14s-.06,.14-.14,.14Zm-3.43,0h-1.72c-.08,0-.14-.06-.14-.14s.06-.14,.14-.14h1.72c.08,0,.14,.06,.14,.14s-.06,.14-.14,.14Zm-3.43,0h-1.72c-.08,0-.14-.06-.14-.14s.06-.14,.14-.14h1.72c.08,0,.14,.06,.14,.14s-.06,.14-.14,.14Z"/>
      <g>
        <path d="M119.26,22.73c-.07,0-.13,0-.2-.03h0s-.19-.05-.47-.05c-.29,0-.49,.05-.49,.05-.38,.1-.77-.12-.88-.5-.11-.38,.11-.77,.48-.88,.04-.01,.38-.11,.88-.11s.83,.1,.87,.11c.38,.11,.6,.51,.49,.89-.09,.31-.38,.51-.69,.51Z"/>
        <path d="M122.8,20.28c-.19,0-.39-.08-.53-.23-.05-.05-1.32-1.39-3.5-1.39s-3.26,1.06-3.31,1.11c-.27,.29-.72,.31-1.01,.04-.29-.26-.32-.71-.06-1,.06-.06,1.44-1.58,4.37-1.58s4.49,1.78,4.56,1.85c.27,.29,.25,.74-.05,1.01-.14,.13-.31,.19-.48,.19Z"/>
        <path d="M111.67,17.32c-.15,0-.31-.05-.44-.15-.31-.24-.37-.69-.12-1,.11-.15,2.87-3.61,7.53-3.61,4.32,0,7.15,3.06,7.27,3.19,.27,.29,.24,.74-.05,1.01-.29,.27-.74,.24-1.01-.05-.02-.03-2.53-2.72-6.21-2.72-3.95,0-6.38,3.03-6.4,3.06-.14,.18-.35,.27-.56,.27Z"/>
        <path d="M108.92,13.64c-.12,0-.25-.03-.36-.1-.34-.2-.46-.63-.26-.97,.12-.21,3.04-5.13,10.47-5.13,6.58,0,9.88,4.78,10.02,4.98,.22,.33,.13,.77-.19,.99-.33,.22-.77,.13-.99-.19-.12-.18-3.03-4.35-8.83-4.35-6.57,0-9.13,4.24-9.23,4.42-.13,.23-.37,.35-.62,.35Z"/>
      </g>
      <path class="cls-2" d="M342.7,64.35c-.08,0-.14-.06-.14-.14v-1.14c0-.08,.06-.14,.14-.14s.14,.06,.14,.14v1.14c0,.08-.06,.14-.14,.14Zm-83.51,0c-.08,0-.14-.06-.14-.14v-1.72c0-.08,.06-.14,.14-.14s.14,.06,.14,.14v1.72c0,.08-.06,.14-.14,.14Zm83.51-2.86c-.08,0-.14-.06-.14-.14v-1.72c0-.08,.06-.14,.14-.14s.14,.06,.14,.14v1.72c0,.08-.06,.14-.14,.14Zm-83.51-.57c-.08,0-.14-.06-.14-.14v-1.72c0-.08,.06-.14,.14-.14s.14,.06,.14,.14v1.72c0,.08-.06,.14-.14,.14Zm83.51-2.86c-.08,0-.14-.06-.14-.14v-1.72c0-.08,.06-.14,.14-.14s.14,.06,.14,.14v1.72c0,.08-.06,.14-.14,.14Zm-83.51-.57c-.08,0-.14-.06-.14-.14v-1.72c0-.08,.06-.14,.14-.14s.14,.06,.14,.14v1.72c0,.08-.06,.14-.14,.14Zm83.51-2.86c-.08,0-.14-.06-.14-.14v-1.72c0-.08,.06-.14,.14-.14s.14,.06,.14,.14v1.72c0,.08-.06,.14-.14,.14Zm-83.51-.57c-.08,0-.14-.06-.14-.14v-1.72c0-.08,.06-.14,.14-.14s.14,.06,.14,.14v1.72c0,.08-.06,.14-.14,.14Zm83.51-2.86c-.08,0-.14-.06-.14-.14v-1.72c0-.08,.06-.14,.14-.14s.14,.06,.14,.14v1.72c0,.08-.06,.14-.14,.14Zm-83.51-.57c-.08,0-.14-.06-.14-.14v-1.72c0-.08,.06-.14,.14-.14s.14,.06,.14,.14v1.72c0,.08-.06,.14-.14,.14Zm83.51-2.86c-.08,0-.14-.06-.14-.14v-1.72c0-.08,.06-.14,.14-.14s.14,.06,.14,.14v1.72c0,.08-.06,.14-.14,.14Zm-83.51-.57c-.08,0-.14-.06-.14-.14v-1.72c0-.08,.06-.14,.14-.14s.14,.06,.14,.14v1.72c0,.08-.06,.14-.14,.14Zm82.37-1.72h-1.72c-.08,0-.14-.06-.14-.14s.06-.14,.14-.14h1.72c.08,0,.14,.06,.14,.14s-.06,.14-.14,.14Zm-3.43,0h-1.72c-.08,0-.14-.06-.14-.14s.06-.14,.14-.14h1.72c.08,0,.14,.06,.14,.14s-.06,.14-.14,.14Zm-3.43,0h-1.72c-.08,0-.14-.06-.14-.14s.06-.14,.14-.14h1.72c.08,0,.14,.06,.14,.14s-.06,.14-.14,.14Zm-3.43,0h-1.72c-.08,0-.14-.06-.14-.14s.06-.14,.14-.14h1.72c.08,0,.14,.06,.14,.14s-.06,.14-.14,.14Zm-3.43,0h-1.72c-.08,0-.14-.06-.14-.14s.06-.14,.14-.14h1.72c.08,0,.14,.06,.14,.14s-.06,.14-.14,.14Zm-3.43,0h-1.72c-.08,0-.14-.06-.14-.14s.06-.14,.14-.14h1.72c.08,0,.14,.06,.14,.14s-.06,.14-.14,.14Zm-3.43,0h-1.72c-.08,0-.14-.06-.14-.14s.06-.14,.14-.14h1.72c.08,0,.14,.06,.14,.14s-.06,.14-.14,.14Zm-3.43,0h-1.72c-.08,0-.14-.06-.14-.14s.06-.14,.14-.14h1.72c.08,0,.14,.06,.14,.14s-.06,.14-.14,.14Zm-3.43,0h-1.72c-.08,0-.14-.06-.14-.14s.06-.14,.14-.14h1.72c.08,0,.14,.06,.14,.14s-.06,.14-.14,.14Zm-3.43,0h-1.72c-.08,0-.14-.06-.14-.14s.06-.14,.14-.14h1.72c.08,0,.14,.06,.14,.14s-.06,.14-.14,.14Zm-3.43,0h-1.72c-.08,0-.14-.06-.14-.14s.06-.14,.14-.14h1.72c.08,0,.14,.06,.14,.14s-.06,.14-.14,.14Zm-3.43,0h-1.72c-.08,0-.14-.06-.14-.14s.06-.14,.14-.14h1.72c.08,0,.14,.06,.14,.14s-.06,.14-.14,.14Zm-3.43,0h-1.72c-.08,0-.14-.06-.14-.14s.06-.14,.14-.14h1.72c.08,0,.14,.06,.14,.14s-.06,.14-.14,.14Zm-3.43,0h-1.72c-.08,0-.14-.06-.14-.14s.06-.14,.14-.14h1.72c.08,0,.14,.06,.14,.14s-.06,.14-.14,.14Zm-3.43,0h-1.72c-.08,0-.14-.06-.14-.14s.06-.14,.14-.14h1.72c.08,0,.14,.06,.14,.14s-.06,.14-.14,.14Zm-3.43,0h-1.72c-.08,0-.14-.06-.14-.14s.06-.14,.14-.14h1.72c.08,0,.14,.06,.14,.14s-.06,.14-.14,.14Zm-3.43,0h-1.72c-.08,0-.14-.06-.14-.14s.06-.14,.14-.14h1.72c.08,0,.14,.06,.14,.14s-.06,.14-.14,.14Zm-3.43,0h-1.72c-.08,0-.14-.06-.14-.14s.06-.14,.14-.14h1.72c.08,0,.14,.06,.14,.14s-.06,.14-.14,.14Zm-3.43,0h-1.72c-.08,0-.14-.06-.14-.14s.06-.14,.14-.14h1.72c.08,0,.14,.06,.14,.14s-.06,.14-.14,.14Zm-3.43,0h-1.72c-.08,0-.14-.06-.14-.14s.06-.14,.14-.14h1.72c.08,0,.14,.06,.14,.14s-.06,.14-.14,.14Zm-3.43,0h-1.72c-.08,0-.14-.06-.14-.14s.06-.14,.14-.14h1.72c.08,0,.14,.06,.14,.14s-.06,.14-.14,.14Zm-3.43,0h-1.72c-.08,0-.14-.06-.14-.14s.06-.14,.14-.14h1.72c.08,0,.14,.06,.14,.14s-.06,.14-.14,.14Zm-3.43,0h-1.72c-.08,0-.14-.06-.14-.14s.06-.14,.14-.14h1.72c.08,0,.14,.06,.14,.14s-.06,.14-.14,.14Zm-3.43,0h-1.72c-.08,0-.14-.06-.14-.14s.06-.14,.14-.14h1.72c.08,0,.14,.06,.14,.14s-.06,.14-.14,.14Z"/>
      <g>
        <path d="M324.4,39.29c-.23,0-.46-.11-.59-.31l-2.65-3.91h-3.24c-.39,0-.72-.32-.72-.72v-12.47c0-.4,.32-.72,.72-.72h18.88c.39,0,.72,.32,.72,.72v12.47c0,.39-.32,.72-.72,.72h-11.68v3.51c0,.31-.2,.59-.51,.68-.07,.02-.14,.03-.21,.03Zm-5.77-5.65h2.91c.24,0,.46,.12,.59,.31l1.55,2.29v-1.89c0-.39,.32-.72,.71-.72h11.68v-11.04h-17.45v11.04Z"/>
        <path d="M332.73,26.43h-10.75c-.39,0-.72-.32-.72-.72s.32-.71,.72-.71h10.75c.39,0,.72,.32,.72,.71s-.32,.72-.72,.72Z"/>
        <path d="M332.73,29.95h-10.75c-.39,0-.72-.32-.72-.72s.32-.72,.72-.72h10.75c.39,0,.72,.32,.72,.72s-.32,.72-.72,.72Z"/>
      </g>
      <path class="cls-2" d="M289.79,109.55c-.08,0-.14-.06-.14-.14v-1.72c0-.08,.06-.14,.14-.14s.14,.06,.14,.14v1.72c0,.08-.06,.14-.14,.14Zm0-3.43c-.08,0-.14-.06-.14-.14v-1.72c0-.08,.06-.14,.14-.14s.14,.06,.14,.14v1.72c0,.08-.06,.14-.14,.14Zm0-3.43c-.08,0-.14-.06-.14-.14v-1.72c0-.08,.06-.14,.14-.14s.14,.06,.14,.14v1.72c0,.08-.06,.14-.14,.14Zm0-3.43c-.08,0-.14-.06-.14-.14v-1.72c0-.08,.06-.14,.14-.14s.14,.06,.14,.14v1.72c0,.08-.06,.14-.14,.14Zm0-3.43c-.08,0-.14-.06-.14-.14v-1.72c0-.08,.06-.14,.14-.14s.14,.06,.14,.14v1.72c0,.08-.06,.14-.14,.14Zm0-3.43c-.08,0-.14-.06-.14-.14v-1.72c0-.08,.06-.14,.14-.14s.14,.06,.14,.14v1.72c0,.08-.06,.14-.14,.14Zm0-3.43c-.08,0-.14-.06-.14-.14v-1.72c0-.08,.06-.14,.14-.14s.14,.06,.14,.14v1.72c0,.08-.06,.14-.14,.14Zm0-3.43c-.08,0-.14-.06-.14-.14v-1.72c0-.08,.06-.14,.14-.14s.14,.06,.14,.14v1.72c0,.08-.06,.14-.14,.14Zm0-3.43c-.08,0-.14-.06-.14-.14v-1.72c0-.08,.06-.14,.14-.14s.14,.06,.14,.14v1.72c0,.08-.06,.14-.14,.14Zm0-3.43c-.08,0-.14-.06-.14-.14v-1.72c0-.08,.06-.14,.14-.14s.14,.06,.14,.14v1.72c0,.08-.06,.14-.14,.14Zm0-3.43c-.08,0-.14-.06-.14-.14v-1.72c0-.08,.06-.14,.14-.14s.14,.06,.14,.14v1.72c0,.08-.06,.14-.14,.14Zm0-3.43c-.08,0-.14-.06-.14-.14v-1.72c0-.08,.06-.14,.14-.14s.14,.06,.14,.14v1.72c0,.08-.06,.14-.14,.14Zm0-3.43c-.08,0-.14-.06-.14-.14v-1.72c0-.08,.06-.14,.14-.14s.14,.06,.14,.14v1.72c0,.08-.06,.14-.14,.14Zm0-3.43c-.08,0-.14-.06-.14-.14v-1.72c0-.08,.06-.14,.14-.14s.14,.06,.14,.14v1.72c0,.08-.06,.14-.14,.14Zm0-3.43c-.08,0-.14-.06-.14-.14v-1.72c0-.08,.06-.14,.14-.14s.14,.06,.14,.14v1.72c0,.08-.06,.14-.14,.14Zm0-3.43c-.08,0-.14-.06-.14-.14v-1.72c0-.08,.06-.14,.14-.14s.14,.06,.14,.14v1.72c0,.08-.06,.14-.14,.14Zm0-3.43c-.08,0-.14-.06-.14-.14v-1.72c0-.08,.06-.14,.14-.14s.14,.06,.14,.14v1.72c0,.08-.06,.14-.14,.14Zm0-3.43c-.08,0-.14-.06-.14-.14v-1.72c0-.08,.06-.14,.14-.14s.14,.06,.14,.14v1.72c0,.08-.06,.14-.14,.14Zm0-3.43c-.08,0-.14-.06-.14-.14v-1.72c0-.08,.06-.14,.14-.14s.14,.06,.14,.14v1.72c0,.08-.06,.14-.14,.14Zm0-3.43c-.08,0-.14-.06-.14-.14v-1.72c0-.08,.06-.14,.14-.14s.14,.06,.14,.14v1.72c0,.08-.06,.14-.14,.14Zm0-3.43c-.08,0-.14-.06-.14-.14v-1.72c0-.08,.06-.14,.14-.14s.14,.06,.14,.14v1.72c0,.08-.06,.14-.14,.14Zm0-3.43c-.08,0-.14-.06-.14-.14v-1.72c0-.08,.06-.14,.14-.14s.14,.06,.14,.14v1.72c0,.08-.06,.14-.14,.14Zm0-3.43c-.08,0-.14-.06-.14-.14v-1.72c0-.08,.06-.14,.14-.14s.14,.06,.14,.14v1.72c0,.08-.06,.14-.14,.14Zm0-3.43c-.08,0-.14-.06-.14-.14v-1.72c0-.08,.06-.14,.14-.14s.14,.06,.14,.14v1.72c0,.08-.06,.14-.14,.14Zm0-3.43c-.08,0-.14-.06-.14-.14v-1.72c0-.08,.06-.14,.14-.14s.14,.06,.14,.14v1.72c0,.08-.06,.14-.14,.14Z"/>
    </g>
  </g>
</svg>