<?xml version="1.0" encoding="UTF-8"?>
<svg id="Capa_1" data-name="Capa 1" xmlns="http://www.w3.org/2000/svg" viewBox="0 0 731.72 2149.54">
  <defs>
    <style>
      .cls-1 {
        fill: #ef7853;
      }

      .cls-2 {
        fill: #313942;
      }

      .cls-3 {
        fill: #f4a29e;
      }

      .cls-4 {
        fill: #cc4031;
      }

      .cls-5 {
        fill: #d56c60;
      }

      .cls-6 {
        fill: #1a1f24;
      }

      .cls-7 {
        fill: #583636;
      }

      .cls-8 {
        fill: #242a31;
      }

      .cls-9 {
        fill: #df8080;
      }
    </style>
  </defs>
  <path class="cls-6" d="M494.72,1969.12c-4.85,19.77-14.3,62.72-7.43,71.87,8.99,11.99,71.96,26.14,103.88,31.46,32.96,5.49,77.27,.85,85.34-4.41,8.55-5.57,14.72-25.23,2.78-30.48-11.94-5.26-55.67-25.53-73.15-35.52-19.22-10.98-32.96-23.74-41.9-33.74-23.52,9.06-53.12,4.59-69.54,.82Z"/>
  <path class="cls-8" d="M199.86,1978.49c-6.41,35.5-19.27,109.71-16.97,121.95,1.75,9.33-1.88,48.46,51.09,49.09,56.45,.67,58.65-17.85,61.8-29.32,5.52-20.11-14.49-124.76-19-147.75-24.27,13.15-56.87,9.95-76.92,6.03Z"/>
  <path class="cls-1" d="M486.51,385.61c-.78-.97-1.68-1.77-2.72-2.43-20.47-12.86-44.64-20.75-61.87-25.18-3.65,4.84-29.48,38.33-49.53,43.66,1.48,43.38,2.43,72.98,3.97,117.75,.03,.79-.59,1.46-1.39,1.48-.79,.03-1.46-.59-1.48-1.39-1.53-44.63-2.47-74.17-3.95-117.3-.37,.05-.74,.11-1.11,.14-58.65,3.91-123-42.85-125.72-44.85-34.1,6.41-89.73,20.43-109.71,46.15-.01,.08-.02,.16-.04,.24-10.63,9.79-47.96,77.91-84.9,132.31,1.15,2.02,2.39,4.02,3.66,6,18.69,29.08,49.86,53.53,72.66,69.28,3.78,2.61,7.35,5.01,10.58,7.12,3.35-4.41,6.86-9.3,10.42-14.49-.32,.04-.65-.02-.94-.21-.66-.43-.85-1.33-.41-1.99,19.11-29.12,38.21-58.23,57.32-87.35,4.77-7.25,9.5-14.57,11.51-22.68,.88-3.54,1.24-7.18,1.24-10.87,0-5.33-.75-10.77-1.72-16.12-4.73-26.18-14.34-51.47-28.18-74.19-.41-.68-.2-1.56,.48-1.97,.68-.41,1.56-.2,1.97,.48,14.03,23.02,23.76,48.64,28.56,75.17,.98,5.43,1.76,11.03,1.76,16.63,0,3.87-.37,7.75-1.33,11.56-2.18,8.74-7.14,16.3-11.9,23.56-13.2,20.11-26.39,40.22-39.59,60.33,0,.06,.02,.12,.02,.18,6.47,55.68,12.86,106.71,10.67,169.04l34.54,47.41s17.16,16.15,23.71,26.45c6.55,10.3,1.31,35.21-8.24,42.7-9.55,7.49-25.66,11.24-31.84,12.17-6.18,.94-25.28-.37-26.03-5.81-.26-1.91,3.21-3.77,7.78-5.38-1.99-1.36-3.57-3.3-3.29-6.04,.19-1.86,3.12-3.37,6.85-4.55-.97-.98-1.56-2.18-1.38-3.66,.19-1.58,3.18-2.85,6.96-3.84-4.73-5.93-9.35-12.71-10.37-17.73-.76-3.71-.07-6.61,.64-8.42-1.63-1.11-3.85-2.63-6.58-4.51-10.45,54.8-30.1,117.85-22.91,126.24,.59,.69,2.69,1.33,6.02,1.92,47.07,8.33,348.17,6.38,356.56-3.42,.03-.03,.05-.09,.08-.12,8.79-10.85-8.71-81.87-10.57-131.73-2.21-59.33,1.18-103.76,3.69-145.66,1.21-20.1,2.19-39.64,2.28-59.93,24.4-16.81,41.73-38.22,54.16-57.66,1.23-1.92,2.41-3.82,3.55-5.7-15.95-42.23-41.91-129.46-73.95-152.84Z"/>
  <path class="cls-8" d="M383.06,1102.09s-8.06,74.14-19.61,179.03l32.98,133.32s-1.96,95.65,1.04,127.61c3,31.96,84.84,423.73,84.84,423.73,0,0,4.8,1.59,12.42,3.34,16.42,3.77,46.01,8.24,69.54-.82,5.5-2.12,10.68-4.95,15.27-8.74,3.34-9.51-64.77-901.96-66.27-961.89,0,0-59.79,71.46-130.2,104.42Z"/>
  <path class="cls-2" d="M150.71,942.65c-6.07,22.36-10.98,47.92-10.38,70.85,2.08,78.96,11.82,340.35,20.34,496.57,9.26,169.87,13.88,427.09,20.96,463.9,0,0,7.23,2.36,18.22,4.51,20.05,3.92,52.64,7.12,76.92-6.03,2.31-1.25,4.56-2.64,6.7-4.2,4.93-10.56,52.39-436.6,79.97-687.13,11.55-104.89,19.61-179.03,19.61-179.03,70.42-32.96,130.2-104.42,130.2-104.42l-.32-3.21-5.59-55.35s-.05,.09-.08,.12c-8.4,9.8-309.49,11.75-356.56,3.42Z"/>
  <path class="cls-3" d="M451.67,158.9c-8.65-3.01-20.07-2.14-21.2-3-4.87-3.7-3.9-10.78,2.01-12.73,.99-.38,10.1,.87,19.11,4.46,2.26,.89,4.32,1.84,5.97,3.04l.12,.12c-.04-7-.08-13.54-.05-19.43-1.82-16.49-6.65-47.53-17.78-55.13-38.96,39.33-97.76,58.81-127.73,50.19-12.79,5.52,3.59,55.64-12.38,66-.88-5.58-4.82-25.45-16.77-26.92-5.87-.72-12.96,6.96-12.07,21.17,.94,15.05,8.28,26.84,14.14,27.46,3.36,.35,5.98-.17,8.02-1.23,.65,12.54,1.97,27.97,1.31,39.4-.37,20.6-3,44.25-10.27,67.88,10.16,8.75,43.98,35.5,74.85,32.73,22.33-2,33.5-8.43,38.49-12.5-3.68-20.35-2.74-45.23-2.74-45.23,0,0,27.46,2.82,44.16-7.94,17.57-11.32,18.71-93.22,18.83-107.12,.08-6.42,.08-12.7,.06-18.79-1.59-.65-3.47-1.56-6.06-2.43Z"/>
  <path class="cls-7" d="M293.06,212.9c-2.04,1.07-4.66,1.59-8.02,1.23-5.85-.62-13.19-12.4-14.13-27.46-.89-14.21,6.21-21.89,12.07-21.17,11.94,1.46,15.89,21.33,16.77,26.92,15.97-10.36-.4-60.49,12.38-66,29.96,8.62,88.77-10.86,127.73-50.19,11.14,7.61,15.97,38.64,17.78,55.13,.69,6.25,.94,10.42,.94,10.42,0,0,15.89-36.36,3-79.03,18.73-15.73,26.22-47.95,11.99-60.68-14.23-12.73-78.66,38.58-130.35,13.11-14.03-6.91-20.98,22.1-20.98,22.1,0,0-7.49-7.87-20.6-3.75-13.11,4.12-46.82,37.46-49.82,71.92-2.3,26.5,7.49,38.21,7.49,38.21,0,0-1.98,25.98,2.25,46.45,6.74,32.57,23.85,61.83,32.75,63.37,.03-.38,.04-.78,.06-1.17,.66-11.43-.66-26.86-1.31-39.4Z"/>
  <path class="cls-7" d="M451.6,147.64c-9.01-3.59-18.12-4.84-19.11-4.46-5.91,1.95-6.88,9.02-2.01,12.73,1.14,.86,12.55,0,21.2,3,2.59,.87,4.48,1.78,6.06,2.43,.1,.04,.21,.09,.31,.13,1.65,.65,1.5-8.92-.36-10.67-.04-.04-.07-.09-.12-.12-1.65-1.2-3.71-2.15-5.97-3.04Z"/>
  <path class="cls-7" d="M344.79,164.63c3.48-1.63,5.68-3.54,15.51-5.68,10.22-2.3,23.1-.52,24.5-1.29,6-3.3,5.78-10.45-.71-12.87-1.08-.46-11.6,.06-22.3,2.92-10.72,2.84-16.85,8.57-17.74,9.86-2.86,4.1-1.3,8.03,.74,7.07Z"/>
  <path class="cls-9" d="M280.36,170.58c-.51-.61-1.42-.68-2.02-.17-.61,.51-.68,1.42-.17,2.02l.09,.11c.84,1.03,7.26,9.39,8.71,20.66-.02-.03-.04-.05-.06-.08-1.69-1.86-4.07-3.27-6.86-3.27-.66,0-1.34,.08-2.02,.25-.77,.19-1.24,.97-1.04,1.74,.19,.77,.97,1.24,1.74,1.04,.46-.11,.89-.17,1.32-.17,1.77,0,3.45,.92,4.73,2.33,1.29,1.4,2.09,3.27,2.17,4.76,.01,.24,.1,.45,.21,.64,0,.01,0,.02,0,.03-.06,.79,.52,1.48,1.32,1.55s1.48-.52,1.55-1.31c.08-1.01,.12-2,.12-2.97-.03-15.63-9.7-27.03-9.78-27.15Z"/>
  <path class="cls-9" d="M409.83,217.14c1.37,.89,3.06,1.11,4.91,1.13,2.42,0,5.14-.48,7.56-1.2,2.43-.75,4.52-1.65,5.84-2.94,.56-.56,.56-1.47,0-2.03-.56-.56-1.47-.55-2.03,0-.58,.63-2.46,1.59-4.62,2.22-2.17,.66-4.7,1.08-6.73,1.08-1.56,.02-2.82-.29-3.31-.64-.66-.44-1.55-.26-1.99,.4-.44,.66-.26,1.55,.4,1.99h0Z"/>
  <path class="cls-9" d="M423.29,205.61c.6-.51,.68-1.42,.16-2.02-5.44-6.36-8.26-16.4-8.37-25.2,0-.79-.66-1.43-1.45-1.42-.79,.01-1.43,.66-1.42,1.46,.14,9.36,3.01,19.9,9.05,27.02,.51,.6,1.42,.68,2.02,.16Z"/>
  <path class="cls-4" d="M485.92,426.25c-.77,.2-1.22,.99-1.02,1.76h0c3.62,13.51,6.61,34.39,9.42,62.28-.12,.51-.21,1.02-.34,1.52-.15,.62,.13,1.22,.64,1.54,2.54,25.8,4.92,57.35,7.47,94.63,.05,.79,.74,1.39,1.53,1.33,.79-.05,1.39-.74,1.33-1.53-2.64-38.57-5.1-71.02-7.73-97.34,4.13-17.86,5.08-36.12,5.08-54.36,0-4.66-.06-9.32-.14-13.97-.01-.79-.67-1.42-1.46-1.41-.79,.01-1.42,.67-1.41,1.46,.08,4.64,.14,9.29,.14,13.92,0,15.08-.67,30.08-3.21,44.78-2.54-23.42-5.28-41.36-8.55-53.61-.2-.77-.99-1.22-1.76-1.02Z"/>
  <path class="cls-7" d="M440.72,184.98c3.1,0,5.62-3.31,5.62-7.4s-2.51-7.4-5.62-7.4-5.62,3.31-5.62,7.4,2.52,7.4,5.62,7.4Z"/>
  <path class="cls-7" d="M369.55,177.1c0,4.77,2.93,8.63,6.55,8.63s6.55-3.86,6.55-8.63-2.93-8.63-6.55-8.63-6.55,3.86-6.55,8.63Z"/>
  <path class="cls-7" d="M386.41,235.39c-.23,.76,.21,1.56,.97,1.79,.93,.27,2.28,.44,4.15,.61,5.57,.5,15.37,.78,24.87,.78,5.67,0,11.22-.1,15.69-.32,2.23-.11,4.19-.25,5.77-.42,1.59-.18,2.75-.36,3.63-.68,.74-.28,1.11-1.11,.83-1.85-.28-.74-1.11-1.11-1.85-.83-.34,.14-1.45,.36-2.92,.51-4.49,.49-12.7,.72-21.15,.72-6.29,0-12.73-.12-17.93-.35-2.6-.11-4.89-.25-6.68-.41-1.78-.15-3.12-.36-3.59-.5-.76-.23-1.56,.21-1.79,.97Z"/>
  <path class="cls-3" d="M730.7,390.87c-2.06-3.18-7.33-1.52-7.33-1.52,0,0-.85-6.72-2.6-8.22-1.75-1.5-8.05,2.43-8.05,2.43,0,0,.44-7.24-1.31-8.24-1.75-1-8.05,2.43-8.05,2.43,0,0,13.62-48.06,10.18-49.82-3.45-1.76-27.47,43.45-27.47,43.45,0,0-10.99-1.5-15.98,4.49-4.65,5.58-8,54.07-8.44,60.68-.03,.49-.05,.75-.05,.75l-92.89,150.58s-4.69-19.72-11.79-43.75c-12.43,19.43-29.76,40.85-54.16,57.66-.08,20.28-1.07,39.83-2.28,59.93,10.34,21.8,24.64,39.85,44.25,43.77,44.95,8.99,94.39-45.7,110.87-88.4,10.7-27.72,44.08-160.76,44.08-160.76,0,0,20-26.43,24.84-35.7,8.8-16.86,7.65-27.51,6.18-29.78Z"/>
  <path class="cls-9" d="M724.26,409.18c-.74-.27-1.57,.11-1.84,.86-.72,1.98-1.89,4.68-4.06,7.72-.51,.72-1.13,1.44-1.74,1.93-.62,.5-1.18,.73-1.61,.72l-.39-.06c-.47-.14-.79-.44-1.09-1.07-.29-.62-.45-1.53-.45-2.4l.02-.61c.21-2.77,1.05-5.51,2.43-7.92l-2.49-1.43c-3.07,5.37-6.4,10.75-11.48,13.1-.47,.23-1.05,.38-1.41,.37-.35-.01-.39-.07-.44-.13-.05-.03-.17-.35-.18-.89h0s-.02-.73-.02-.73c-.02-5.16,3.06-10.23,6.25-15.05h0s.04-.05,.05-.08l-2.45-1.5c-.13,.19-.26,.4-.38,.59-1.57,2.67-3.43,5.16-5.58,7.37-1.46,1.52-3.07,2.75-4.66,2.9l-.29,.02c-.66,0-1.42-.26-1.93-.68-.52-.42-.76-.89-.76-1.34v-.06c.02-.44-.17-.83-.47-1.1,.45-2.45,.7-4.94,.7-7.44,0-.45-.07-.9-.08-1.35,1.7,1.36,3.71,2.75,6.32,2.79h.39c1.97-.13,3.64-1.17,4.81-2.55,1.17-1.39,1.91-3.14,2.09-4.95h0s.05-1.01,.05-1.01c0-3.11-1.27-5.93-2.6-8.41-3.16-5.81-7.42-11-12.51-15.22-.61-.51-1.52-.42-2.02,.19-.51,.61-.42,1.52,.19,2.02,4.8,3.99,8.84,8.9,11.82,14.38,1.27,2.32,2.27,4.75,2.26,7.04l-.03,.74c-.11,1.19-.64,2.45-1.42,3.36-.78,.92-1.75,1.47-2.79,1.53h-.22c-1.67,.05-3.56-1.28-5.37-2.83-.48-.4-.95-.81-1.43-1.21-.13-.19-.31-.34-.52-.44-2.63-2.26-5.08-4.6-6.8-7.37-.42-.67-1.31-.88-1.98-.46-.67,.42-.88,1.31-.46,1.98,1.95,3.12,4.55,5.6,7.2,7.89,.13,1.29,.23,2.58,.23,3.88,0,4.89-.95,9.78-2.8,14.29-.3,.73,.05,1.57,.79,1.87,.73,.3,1.57-.05,1.87-.78,.49-1.19,.91-2.41,1.28-3.64,.16,.16,.31,.32,.48,.46,1.05,.82,2.35,1.29,3.71,1.29l.6-.03c1.68-.2,3.06-.96,4.27-1.88-.42,1.54-.67,3.13-.68,4.78l.02,.89h0c.05,.67,.1,1.63,.82,2.54,.72,.89,1.8,1.2,2.67,1.18,.99,0,1.87-.3,2.63-.64,3.04-1.44,5.43-3.63,7.45-6.13l-.02,.4c0,1.18,.18,2.44,.7,3.59,.51,1.14,1.48,2.24,2.93,2.64,.39,.11,.78,.16,1.17,.16,1.37,0,2.5-.63,3.41-1.36,.92-.75,1.66-1.65,2.26-2.49,2.36-3.3,3.65-6.27,4.42-8.41,.27-.75-.11-1.57-.86-1.84Z"/>
  <path class="cls-9" d="M567.72,588.79c-.72-.34-1.57-.04-1.92,.67-9,18.77-13.67,39.58-13.67,60.39,0,4.44,.21,8.87,.64,13.29,.08,.79,.78,1.37,1.57,1.29,.79-.08,1.37-.78,1.29-1.57-.42-4.33-.63-8.67-.63-13.01,0-20.38,4.58-40.77,13.39-59.15,.34-.72,.04-1.57-.67-1.92Z"/>
  <path class="cls-4" d="M368.43,402.36c.36-.02,.74-.09,1.11-.14,1.48,43.13,2.42,72.67,3.95,117.3,.03,.79,.69,1.41,1.48,1.39,.79-.03,1.41-.69,1.39-1.48-1.54-44.78-2.48-74.37-3.97-117.75,20.05-5.33,45.88-38.82,49.53-43.66,.29-.38,.45-.6,.45-.6l-21.48-20.48s-.98,1.45-3.46,3.48c-4.99,4.07-16.16,10.5-38.49,12.5-30.87,2.76-64.68-23.98-74.85-32.73-1.97-1.69-3.06-2.72-3.06-2.72,0,0-9.99,16.98-19.48,26.47-9.49,9.49-18.98,13.48-18.98,13.48,0,0,.07,.05,.13,.1,2.73,2,67.07,48.76,125.72,44.85Z"/>
  <path class="cls-4" d="M389.66,437.56c3.72,0,6.74-4.47,6.74-9.99s-3.02-9.99-6.74-9.99-6.74,4.47-6.74,9.99,3.02,9.99,6.74,9.99Z"/>
  <path class="cls-4" d="M392.41,473.02c3.72,0,6.74-4.47,6.74-9.99s-3.02-9.99-6.74-9.99-6.74,4.47-6.74,9.99,3.02,9.99,6.74,9.99Z"/>
  <path class="cls-4" d="M394.65,512.98c3.72,0,6.74-4.47,6.74-9.99s-3.02-9.99-6.74-9.99-6.74,4.47-6.74,9.99,3.02,9.99,6.74,9.99Z"/>
  <path class="cls-9" d="M391.26,295.22c.18-.77-.29-1.55-1.06-1.73h0c-28.19-6.72-55.44-21.29-71.85-44.89-.45-.65-1.35-.81-2-.36-.65,.45-.81,1.35-.36,2,16.98,24.38,44.87,39.2,73.54,46.04,.77,.18,1.55-.29,1.73-1.06Z"/>
  <path class="cls-9" d="M423.47,245.5c-4.08,1.87-8.59,2.97-13.01,2.96-2.85,0-5.65-.45-8.3-1.43-.74-.28-1.57,.1-1.85,.85-.28,.74,.1,1.57,.85,1.84,3,1.11,6.15,1.61,9.3,1.61,4.89,0,9.78-1.2,14.2-3.23,.72-.33,1.04-1.18,.71-1.9-.33-.72-1.18-1.04-1.9-.71Z"/>
  <path class="cls-5" d="M183.91,845.16c-3.79,.99-6.77,2.26-6.96,3.84-.18,1.48,.41,2.68,1.38,3.66-3.73,1.18-6.66,2.68-6.85,4.55-.28,2.74,1.29,4.68,3.29,6.04,8.43-2.97,20.69-5.11,20.69-5.11,0,0-5.85-5.86-11.54-12.98Z"/>
  <path class="cls-3" d="M233.09,819.56c-6.55-10.3-23.71-26.45-23.71-26.45l-34.54-47.41-69.63-95.59,19.17-38.62c-22.8-15.75-53.97-40.2-72.66-69.28-26.73,34.69-59.37,85.7-50.11,118.35,12.88,45.4,131.01,129.76,165.99,153.94,2.73,1.89,4.95,3.4,6.58,4.51-.71,1.81-1.4,4.71-.64,8.42,1.02,5.02,5.64,11.81,10.37,17.73,5.69,7.12,11.54,12.98,11.54,12.98,0,0-12.25,2.13-20.69,5.11-4.58,1.61-8.05,3.47-7.78,5.38,.75,5.43,19.85,6.74,26.03,5.81,6.18-.94,22.29-4.68,31.84-12.17,9.55-7.49,14.8-32.4,8.24-42.7Z"/>
  <path class="cls-9" d="M102.03,647.16c-13.85-16.42-34.88-26.47-56.35-26.94-.79-.02-1.45,.61-1.47,1.4-.02,.79,.61,1.45,1.4,1.47,20.62,.44,40.93,10.15,54.22,25.92,.51,.61,1.42,.68,2.02,.17,.61-.51,.68-1.42,.17-2.02h0Z"/>
  <path class="cls-4" d="M146.42,603.49c5.91-9.01,11.82-18.01,17.73-27.02,13.2-20.11,26.39-40.22,39.59-60.33,4.76-7.26,9.71-14.82,11.9-23.56,.95-3.81,1.33-7.69,1.33-11.56,0-5.6-.78-11.2-1.76-16.63-4.79-26.53-14.52-52.15-28.56-75.17-.41-.68-1.3-.89-1.97-.48-.68,.41-.89,1.3-.48,1.97,13.85,22.71,23.45,48.01,28.18,74.19,.97,5.35,1.72,10.79,1.72,16.12,0,3.69-.36,7.33-1.24,10.87-2.01,8.11-6.75,15.42-11.51,22.68-19.11,29.12-38.21,58.23-57.32,87.35-.44,.66-.25,1.55,.41,1.99,.29,.19,.62,.24,.94,.21,.41-.05,.8-.25,1.04-.62Z"/>
</svg>