<?xml version="1.0" encoding="UTF-8"?>
<svg id="_Слой_2" data-name="Слой 2" xmlns="http://www.w3.org/2000/svg" viewBox="0 0 389.24 215.48">
  <defs>
    <style>
      .cls-1 {
        fill: #ff9b87;
      }

      .cls-2 {
        fill: #2b292a;
      }
    </style>
  </defs>
  <g id="Layer_1" data-name="Layer 1">
    <g>
      <g>
        <circle class="cls-1" cx="133.63" cy="196.57" r="7.46"/>
        <path class="cls-1" d="M381.39,145.65c-4.13,.38-9.53,29.1-7.34,36.77,1.92,6.71,7.34,7.95,7.34,7.95,0,0,5.42-1.24,7.34-7.95,2.19-7.67-3.21-36.39-7.34-36.77Z"/>
        <path class="cls-1" d="M124.93,146.44c-4.21,.38-9.71,29.1-7.47,36.77,1.95,6.71,7.47,7.95,7.47,7.95,0,0,5.52-1.24,7.47-7.95,2.23-7.67-3.27-36.39-7.47-36.77Z"/>
        <g>
          <path class="cls-1" d="M370.45,127.02l-35.2-23.24c-.4-.27-.86-.38-1.31-.36-.45-.02-.91,.1-1.31,.36l-35.2,23.24c-1.03,.68-1.31,2.07-.63,3.09h0c.68,1.03,2.07,1.31,3.09,.63l34.06-22.48,34.06,22.48c1.03,.68,2.42,.39,3.09-.63h0c.68-1.03,.39-2.42-.63-3.09Z"/>
          <path class="cls-1" d="M43.24,123.54l35.2-23.24c.4-.27,.86-.38,1.31-.36,.45-.02,.91,.1,1.31,.36l35.2,23.24c1.03,.68,1.31,2.07,.63,3.1h0c-.68,1.03-2.07,1.31-3.09,.63l-34.06-22.48-34.06,22.48c-1.03,.68-2.42,.39-3.09-.63h0c-.68-1.03-.39-2.42,.63-3.1Z"/>
          <path class="cls-1" d="M256,168.52l-25.27-16.68c-.29-.19-.62-.27-.94-.26-.32-.01-.65,.07-.94,.26l-25.27,16.68c-.74,.49-.94,1.49-.45,2.22h0c.49,.74,1.49,.94,2.22,.45l24.45-16.14,24.45,16.14c.74,.49,1.74,.28,2.22-.45h0c.49-.74,.28-1.74-.45-2.22Z"/>
          <path class="cls-1" d="M175.91,48.45c.62-4.13,4.18-7.29,8.48-7.29s8.07,3.35,8.53,7.66c.8-.24,1.64-.37,2.52-.37,4.81,0,8.7,3.9,8.7,8.7s-3.9,8.7-8.7,8.7h-19.14c-4.81,0-8.7-3.9-8.7-8.7s3.69-8.49,8.31-8.69Z"/>
          <path class="cls-1" d="M259.7,70.5c-.62-4.13-4.18-7.29-8.48-7.29s-8.07,3.35-8.53,7.66c-.8-.24-1.64-.37-2.52-.37-4.81,0-8.7,3.9-8.7,8.7s3.9,8.7,8.7,8.7h19.14c4.81,0,8.7-3.9,8.7-8.7s-3.69-8.49-8.31-8.69Z"/>
          <circle class="cls-1" cx="327.34" cy="23.5" r="11.37"/>
          <path class="cls-1" d="M84.68,42.07c-.59-3.93-3.98-6.94-8.07-6.94s-7.68,3.19-8.12,7.29c-.76-.23-1.56-.35-2.4-.35-4.57,0-8.28,3.71-8.28,8.28s3.71,8.28,8.28,8.28h18.21c4.57,0,8.28-3.71,8.28-8.28s-3.51-8.08-7.91-8.27Z"/>
        </g>
      </g>
      <g>
        <g>
          <path d="M253.18,213.64h-115.08c-.51,0-.92,.41-.92,.92s.41,.92,.92,.92h115.08c.51,0,.92-.41,.92-.92s-.41-.92-.92-.92Z"/>
          <path d="M125.59,213.64H1.77c-.51,0-.92,.41-.92,.92s.41,.92,.92,.92H125.59c.51,0,.92-.41,.92-.92s-.41-.92-.92-.92Z"/>
          <path d="M384.92,213.64h-26.11c-.51,0-.92,.41-.92,.92s.41,.92,.92,.92h26.11c.51,0,.92-.41,.92-.92s-.41-.92-.92-.92Z"/>
          <path d="M342.26,213.64h-50.69c-.51,0-.92,.41-.92,.92s.41,.92,.92,.92h50.69c.51,0,.92-.41,.92-.92s-.41-.92-.92-.92Z"/>
        </g>
        <path d="M368.32,130.04c-.6,0-1.2-.17-1.73-.52l-33.55-22.15-33.55,22.15c-.7,.46-1.54,.63-2.37,.46-.83-.17-1.54-.65-2-1.35-.46-.7-.62-1.54-.46-2.37,.17-.83,.65-1.54,1.35-2l35.2-23.24c.54-.36,1.18-.53,1.82-.52,.66-.02,1.28,.16,1.82,.52l35.2,23.24h0c1.45,.96,1.85,2.92,.89,4.37-.61,.92-1.61,1.42-2.64,1.42Zm-35.28-24.7c.18,0,.35,.05,.51,.15l34.06,22.48c.6,.4,1.42,.23,1.82-.37,.4-.6,.23-1.42-.37-1.82l-35.2-23.24c-.23-.15-.49-.22-.77-.21-.02,0-.05,0-.07,0-.28,0-.54,.06-.77,.21l-35.2,23.24c-.29,.19-.49,.49-.56,.83-.07,.35,0,.69,.19,.99,.19,.29,.49,.49,.83,.56,.34,.07,.69,0,.99-.19l34.06-22.48c.15-.1,.33-.15,.51-.15Z"/>
        <path d="M253.53,171.59c-.49,0-.97-.14-1.38-.42l-23.94-15.8-23.94,15.8c-.56,.37-1.23,.5-1.9,.36-.66-.14-1.23-.52-1.6-1.08-.77-1.16-.45-2.73,.72-3.5l25.27-16.68c.43-.28,.94-.42,1.45-.41,.52-.01,1.02,.13,1.45,.41l25.27,16.68c1.16,.77,1.48,2.34,.72,3.5-.37,.56-.94,.95-1.6,1.08-.17,.04-.34,.05-.51,.05Zm-25.32-18.25c.18,0,.35,.05,.51,.15l24.45,16.14c.15,.1,.33,.13,.51,.1,.18-.04,.33-.14,.43-.29,.1-.15,.13-.33,.1-.51s-.14-.33-.29-.43h0l-25.27-16.68c-.15-.1-.3-.11-.4-.11-.02,0-.05,0-.07,0-.1,0-.25,.01-.4,.11l-25.27,16.68c-.15,.1-.25,.25-.29,.43-.04,.18,0,.36,.1,.51,.1,.15,.25,.25,.43,.29,.18,.04,.36,0,.51-.1l24.45-16.14c.15-.1,.33-.15,.51-.15Z"/>
        <path d="M364.8,156.48h-63.78c-.51,0-.92-.41-.92-.92v-28.16c0-.51,.41-.92,.92-.92s.92,.41,.92,.92v27.24h61.93v-27.4c0-.51,.41-.92,.92-.92s.92,.41,.92,.92v28.33c0,.51-.41,.92-.92,.92Z"/>
        <path d="M364.8,207.45h-63.78c-.51,0-.92-.41-.92-.92v-38.08c0-.51,.41-.92,.92-.92s.92,.41,.92,.92v37.16h61.93v-37.39c0-.51,.41-.92,.92-.92s.92,.41,.92,.92v38.31c0,.51-.41,.92-.92,.92Z"/>
        <path d="M332.92,128.16c-3.81,0-6.91-3.1-6.91-6.91s3.1-6.91,6.91-6.91,6.91,3.1,6.91,6.91-3.1,6.91-6.91,6.91Zm0-11.97c-2.79,0-5.06,2.27-5.06,5.06s2.27,5.06,5.06,5.06,5.06-2.27,5.06-5.06-2.27-5.06-5.06-5.06Z"/>
        <path d="M332.92,128.16c-.51,0-.92-.41-.92-.92v-11.97c0-.51,.41-.92,.92-.92s.92,.41,.92,.92v11.97c0,.51-.41,.92-.92,.92Z"/>
        <path d="M338.85,122.17h-11.92c-.51,0-.92-.41-.92-.92s.41-.92,.92-.92h11.92c.51,0,.92,.41,.92,.92s-.41,.92-.92,.92Z"/>
        <path d="M228.3,174.79c-3.81,0-6.91-3.1-6.91-6.91s3.1-6.91,6.91-6.91,6.91,3.1,6.91,6.91-3.1,6.91-6.91,6.91Zm0-11.97c-2.79,0-5.06,2.27-5.06,5.06s2.27,5.06,5.06,5.06,5.06-2.27,5.06-5.06-2.27-5.06-5.06-5.06Z"/>
        <path d="M228.3,174.79c-.51,0-.92-.41-.92-.92v-11.97c0-.51,.41-.92,.92-.92s.92,.41,.92,.92v11.97c0,.51-.41,.92-.92,.92Z"/>
        <path d="M234.24,168.8h-11.92c-.51,0-.92-.41-.92-.92s.41-.92,.92-.92h11.92c.51,0,.92,.41,.92,.92s-.41,.92-.92,.92Z"/>
        <path d="M322.29,146.95h-10.74c-.51,0-.92-.41-.92-.92v-10.74c0-.51,.41-.92,.92-.92h10.74c.51,0,.92,.41,.92,.92v10.74c0,.51-.41,.92-.92,.92Zm-9.82-1.84h8.9v-8.9h-8.9v8.9Z"/>
        <path d="M354.76,146.95h-10.74c-.51,0-.92-.41-.92-.92v-10.74c0-.51,.41-.92,.92-.92h10.74c.51,0,.92,.41,.92,.92v10.74c0,.51-.41,.92-.92,.92Zm-9.82-1.84h8.9v-8.9h-8.9v8.9Z"/>
        <path d="M369.71,169.14h-73.58c-.3,0-.59-.15-.76-.4-.17-.25-.21-.57-.11-.85l4.75-12.66c.14-.36,.48-.6,.86-.6h64.09c.38,0,.73,.24,.86,.6l4.75,12.66c.11,.28,.07,.6-.11,.85-.17,.25-.46,.4-.76,.4Zm-72.25-1.84h70.92l-4.06-10.82h-62.81l-4.06,10.82Z"/>
        <path d="M326.11,207.45c-.51,0-.92-.41-.92-.92v-25.01h-12.64v25.01c0,.51-.41,.92-.92,.92s-.92-.41-.92-.92v-25.91c0-.51,.43-.94,.94-.94h14.44c.52,0,.95,.43,.95,.95v25.9c0,.51-.41,.92-.92,.92Z"/>
        <path d="M354.88,190.5h-18.74c-.51,0-.92-.41-.92-.92v-14.04c0-.51,.41-.92,.92-.92h18.74c.51,0,.92,.41,.92,.92v14.04c0,.51-.41,.92-.92,.92Zm-17.82-1.84h16.9v-12.19h-16.9v12.19Z"/>
        <path d="M354.76,179.26h-18.62c-.51,0-.92-.41-.92-.92s.41-.92,.92-.92h18.62c.51,0,.92,.41,.92,.92s-.41,.92-.92,.92Z"/>
        <path d="M322.29,138.78h-10.74c-.51,0-.92-.41-.92-.92s.41-.92,.92-.92h10.74c.51,0,.92,.41,.92,.92s-.41,.92-.92,.92Z"/>
        <path d="M354.76,138.78h-10.74c-.51,0-.92-.41-.92-.92s.41-.92,.92-.92h10.74c.51,0,.92,.41,.92,.92s-.41,.92-.92,.92Z"/>
        <path d="M139.7,185.94c-.15,0-.3-.01-.45-.05-.58-.12-1.07-.45-1.39-.94-.67-1.01-.39-2.38,.62-3.05l20.11-13.28c.37-.25,.81-.37,1.26-.36,.45-.01,.89,.11,1.26,.36l20.11,13.28h0c1.01,.67,1.29,2.03,.62,3.05-.32,.49-.82,.82-1.39,.94-.58,.12-1.16,0-1.65-.32l-18.95-12.51-18.95,12.51c-.36,.24-.78,.36-1.2,.36Zm20.1-15.83c-.07,0-.13,.02-.19,.06l-20.11,13.28c-.16,.11-.21,.33-.1,.49,.07,.1,.17,.14,.22,.15,.05,.01,.16,.02,.27-.05l19.46-12.85c.31-.2,.71-.2,1.02,0l19.46,12.85c.1,.07,.21,.06,.27,.05,.05-.01,.16-.05,.22-.15,.11-.16,.06-.39-.1-.49l-20.11-13.28c-.08-.05-.16-.06-.21-.06-.02,0-.05,0-.07,0,0,0-.01,0-.02,0Z"/>
        <path d="M159.92,184.43c-1.89,0-3.42-1.54-3.42-3.42s1.54-3.42,3.42-3.42,3.42,1.54,3.42,3.42-1.54,3.42-3.42,3.42Zm0-5.01c-.87,0-1.58,.71-1.58,1.58s.71,1.58,1.58,1.58,1.58-.71,1.58-1.58-.71-1.58-1.58-1.58Z"/>
        <path d="M177.72,207.31h-35.6c-.51,0-.92-.41-.92-.92v-22.59c0-.51,.41-.92,.92-.92s.92,.41,.92,.92v21.67h33.75v-21.67c0-.51,.41-.92,.92-.92s.92,.41,.92,.92v22.59c0,.51-.41,.92-.92,.92Z"/>
        <path d="M171.73,206.71c-.51,0-.92-.41-.92-.92v-16.76h-21.91v16.76c0,.51-.41,.92-.92,.92s-.92-.41-.92-.92v-17.69c0-.51,.41-.92,.92-.92h23.75c.51,0,.92,.41,.92,.92v17.69c0,.51-.41,.92-.92,.92Z"/>
        <path d="M171.73,191.31h-23.75c-.36,0-.66-.29-.66-.66s.29-.66,.66-.66h23.75c.36,0,.66,.3,.66,.66s-.29,.66-.66,.66Z"/>
        <path d="M171.73,193.97h-23.75c-.36,0-.66-.29-.66-.66s.29-.66,.66-.66h23.75c.36,0,.66,.29,.66,.66s-.29,.66-.66,.66Z"/>
        <path d="M171.73,196.62h-23.75c-.36,0-.66-.29-.66-.66s.29-.66,.66-.66h23.75c.36,0,.66,.3,.66,.66s-.29,.66-.66,.66Z"/>
        <path d="M171.73,199.28h-23.75c-.36,0-.66-.29-.66-.66s.29-.66,.66-.66h23.75c.36,0,.66,.29,.66,.66s-.29,.66-.66,.66Z"/>
        <path d="M171.73,201.94h-23.75c-.36,0-.66-.29-.66-.66s.29-.66,.66-.66h23.75c.36,0,.66,.3,.66,.66s-.29,.66-.66,.66Z"/>
        <path d="M171.73,204.59h-23.75c-.36,0-.66-.29-.66-.66s.29-.66,.66-.66h23.75c.36,0,.66,.29,.66,.66s-.29,.66-.66,.66Z"/>
        <path d="M378.72,208.23c-.51,0-.92-.41-.92-.92v-44.2c0-.51,.41-.92,.92-.92s.92,.41,.92,.92v44.2c0,.51-.41,.92-.92,.92Z"/>
        <path d="M378.72,172.25c-.24,0-.47-.09-.65-.27l-3.62-3.62c-.36-.36-.36-.94,0-1.3,.36-.36,.94-.36,1.3,0l3.62,3.62c.36,.36,.36,.94,0,1.3-.18,.18-.42,.27-.65,.27Z"/>
        <path d="M378.72,179c-.18,0-.37-.05-.53-.17-.42-.29-.52-.87-.23-1.28l3.97-5.71c.29-.42,.87-.52,1.28-.23,.42,.29,.52,.87,.23,1.28l-3.97,5.71c-.18,.26-.47,.4-.76,.4Z"/>
        <path d="M378.82,190.89c-.08,0-.16,0-.23-.03-.22-.06-5.34-1.46-7.15-8.58-1.84-7.25,1.99-31.94,5.69-36.7,.38-.49,.78-.81,1.21-.96,.12-.06,.26-.1,.41-.1h.15c.15,0,.29,.03,.41,.1,.42,.15,.83,.47,1.21,.96,3.7,4.76,7.53,29.45,5.69,36.7-1.81,7.12-6.93,8.52-7.15,8.58-.08,.02-.15,.03-.23,.03Zm0-44.45c-.96,.71-2.89,5.66-4.5,15.19-1.48,8.79-1.92,16.91-1.09,20.19,1.33,5.25,4.68,6.83,5.59,7.17,.93-.34,4.25-1.91,5.59-7.17,.83-3.29,.4-11.4-1.09-20.19-1.61-9.53-3.54-14.48-4.5-15.19Z"/>
        <path d="M122.05,209.45c-.51,0-.92-.41-.92-.92v-43.99c0-.51,.41-.92,.92-.92s.92,.41,.92,.92v43.99c0,.51-.41,.92-.92,.92Z"/>
        <path d="M122.05,173.64c-.24,0-.47-.09-.65-.27l-3.6-3.6c-.36-.36-.36-.94,0-1.3,.36-.36,.94-.36,1.3,0l3.6,3.6c.36,.36,.36,.94,0,1.3-.18,.18-.42,.27-.65,.27Z"/>
        <path d="M122.05,180.36c-.18,0-.37-.05-.53-.17-.42-.29-.52-.87-.23-1.28l3.95-5.68c.29-.42,.87-.52,1.28-.23,.42,.29,.52,.87,.23,1.28l-3.95,5.68c-.18,.26-.47,.4-.76,.4Z"/>
        <path d="M122.15,192.19c-.08,0-.16,0-.23-.03-.22-.06-5.31-1.45-7.11-8.54-1.83-7.21,1.98-31.79,5.66-36.53,.38-.49,.78-.81,1.2-.95,.12-.06,.26-.09,.41-.09h.14c.15,0,.28,.03,.41,.09,.42,.15,.83,.47,1.2,.95,3.68,4.73,7.49,29.31,5.66,36.53-1.8,7.09-6.9,8.49-7.11,8.54-.08,.02-.15,.03-.23,.03Zm0-44.23c-.81,.65-2.74,4.84-4.48,15.12-1.48,8.74-1.91,16.82-1.08,20.09,1.33,5.24,4.64,6.79,5.56,7.13,.92-.34,4.23-1.9,5.56-7.13,.83-3.27,.4-11.35-1.08-20.09-1.73-10.27-3.67-14.47-4.48-15.12Z"/>
        <path d="M248.34,207.19h-40.41c-.51,0-.92-.41-.92-.92v-38.31c0-.51,.41-.92,.92-.92s.92,.41,.92,.92v37.38h38.56v-37.38c0-.51,.41-.92,.92-.92s.92,.41,.92,.92v38.31c0,.51-.41,.92-.92,.92Z"/>
        <path d="M279.12,168.38h-24.7c-.51,0-.92-.41-.92-.92s.41-.92,.92-.92h23.45l-7.78-25.66h-83.57l-7.78,25.66h23.26c.51,0,.92,.41,.92,.92s-.41,.92-.92,.92h-24.5c-.29,0-.57-.14-.74-.37-.17-.23-.23-.54-.14-.82l8.34-27.51c.12-.39,.48-.65,.88-.65h84.94c.41,0,.76,.27,.88,.65l8.34,27.51c.08,.28,.03,.58-.14,.82-.17,.23-.45,.37-.74,.37Z"/>
        <path d="M275.03,207.19h-93.89c-.51,0-.92-.41-.92-.92v-38.81c0-.51,.41-.92,.92-.92s.92,.41,.92,.92v37.89h92.05l.16-37.89c0-.51,.41-.92,.92-.92h0c.51,0,.92,.42,.92,.93l-.17,38.81c0,.51-.41,.92-.92,.92Z"/>
        <path d="M235.44,207.19c-.51,0-.92-.41-.92-.92v-23.49h-12.77v23.05c0,.51-.41,.92-.92,.92s-.92-.41-.92-.92v-23.97c0-.51,.41-.92,.92-.92h14.62c.51,0,.92,.41,.92,.92v24.41c0,.51-.41,.92-.92,.92Z"/>
        <path d="M199.95,192.96h-10.75c-.51,0-.92-.41-.92-.92v-16.05c0-.51,.41-.92,.92-.92h10.75c.51,0,.92,.41,.92,.92v16.05c0,.51-.41,.92-.92,.92Zm-9.83-1.84h8.91v-14.21h-8.91v14.21Z"/>
        <path d="M266.98,192.96h-10.75c-.51,0-.92-.41-.92-.92v-16.05c0-.51,.41-.92,.92-.92h10.75c.51,0,.92,.41,.92,.92v16.05c0,.51-.41,.92-.92,.92Zm-9.83-1.84h8.91v-14.21h-8.91v14.21Z"/>
        <path d="M306.67,119.24c-.51,0-.92-.41-.92-.92v-13.26c0-.51,.41-.92,.92-.92h8.99c.51,0,.92,.41,.92,.92v7.32c0,.51-.41,.92-.92,.92s-.92-.41-.92-.92v-6.4h-7.14v12.33c0,.51-.41,.92-.92,.92Z"/>
        <path d="M315.11,105.99h-8.09c-1.51,0-2.73-1.22-2.73-2.73v-.04c0-1.51,1.22-2.73,2.73-2.73h8.09c1.51,0,2.73,1.22,2.73,2.73v.04c0,1.51-1.22,2.73-2.73,2.73Zm-8.09-3.65c-.49,0-.89,.4-.89,.89v.04c0,.49,.4,.89,.89,.89h8.09c.49,0,.88-.4,.88-.89v-.04c0-.49-.4-.89-.88-.89h-8.09Z"/>
        <path d="M296.98,207.19h-20.75c-.51,0-.92-.41-.92-.92v-19.4c0-.51,.41-.92,.92-.92h20.75c.51,0,.92,.41,.92,.92v19.4c0,.51-.41,.92-.92,.92Zm-19.83-1.84h18.91v-17.56h-18.91v17.56Z"/>
        <path d="M278.85,207.19c-.51,0-.92-.41-.92-.92v-19.4c0-.51,.41-.92,.92-.92s.92,.41,.92,.92v19.4c0,.51-.41,.92-.92,.92Z"/>
        <path d="M281.91,207.19c-.51,0-.92-.41-.92-.92v-19.4c0-.51,.41-.92,.92-.92s.92,.41,.92,.92v19.4c0,.51-.41,.92-.92,.92Z"/>
        <path d="M284.98,207.19c-.51,0-.92-.41-.92-.92v-19.4c0-.51,.41-.92,.92-.92s.92,.41,.92,.92v19.4c0,.51-.41,.92-.92,.92Z"/>
        <path d="M288.04,207.19c-.51,0-.92-.41-.92-.92v-19.4c0-.51,.41-.92,.92-.92s.92,.41,.92,.92v19.4c0,.51-.41,.92-.92,.92Z"/>
        <path d="M291.1,207.19c-.51,0-.92-.41-.92-.92v-19.4c0-.51,.41-.92,.92-.92s.92,.41,.92,.92v19.4c0,.51-.41,.92-.92,.92Z"/>
        <path d="M294.16,207.19c-.51,0-.92-.41-.92-.92v-19.4c0-.51,.41-.92,.92-.92s.92,.41,.92,.92v19.4c0,.51-.41,.92-.92,.92Z"/>
        <path d="M132.37,215.48c-.51,0-.92-.41-.92-.92v-21.43c0-.51,.41-.92,.92-.92s.92,.41,.92,.92v21.43c0,.51-.41,.92-.92,.92Z"/>
        <path d="M132.37,197.96c-.24,0-.47-.09-.65-.27l-2.09-2.08c-.36-.36-.36-.94,0-1.3,.36-.36,.94-.36,1.3,0l2.09,2.08c.36,.36,.36,.94,0,1.3-.18,.18-.42,.27-.65,.27Z"/>
        <path d="M132.37,201.68c-.18,0-.36-.05-.51-.16-.42-.28-.53-.86-.25-1.28l2.5-3.72c.28-.42,.86-.53,1.28-.25,.42,.28,.53,.86,.25,1.28l-2.5,3.72c-.18,.26-.47,.41-.77,.41Z"/>
        <path d="M132.37,204.5c-4.69,0-8.5-3.81-8.5-8.5s3.81-8.5,8.5-8.5,8.5,3.81,8.5,8.5-3.81,8.5-8.5,8.5Zm0-15.15c-3.67,0-6.65,2.99-6.65,6.65s2.99,6.65,6.65,6.65,6.65-2.99,6.65-6.65-2.99-6.65-6.65-6.65Z"/>
        <path d="M43.8,126.23c-1.03,0-2.03-.5-2.64-1.42-.96-1.45-.56-3.41,.89-4.37h0l35.2-23.24c.54-.36,1.17-.54,1.82-.52,.65-.02,1.28,.16,1.82,.52l35.2,23.24c1.45,.96,1.85,2.92,.89,4.37-.96,1.45-2.92,1.85-4.37,.9l-33.55-22.15-33.55,22.15c-.53,.35-1.14,.52-1.73,.52Zm-.73-4.25c-.6,.4-.77,1.21-.37,1.82,.4,.6,1.21,.77,1.82,.37l34.06-22.48c.31-.2,.71-.2,1.02,0l34.06,22.48c.6,.4,1.42,.23,1.82-.37,.4-.6,.23-1.42-.37-1.82l-35.2-23.24c-.23-.15-.49-.22-.77-.21-.02,0-.05,0-.07,0-.28-.01-.54,.06-.77,.21l-35.2,23.24Z"/>
        <path d="M111.09,207.64H47.32c-.51,0-.92-.41-.92-.92V123.43c0-.51,.41-.92,.92-.92s.92,.41,.92,.92v82.37h61.93V123.91c0-.51,.41-.92,.92-.92s.92,.41,.92,.92v82.81c0,.51-.41,.92-.92,.92Z"/>
        <path d="M79.21,124.35c-3.81,0-6.91-3.1-6.91-6.91s3.1-6.91,6.91-6.91,6.91,3.1,6.91,6.91-3.1,6.91-6.91,6.91Zm0-11.97c-2.79,0-5.06,2.27-5.06,5.06s2.27,5.06,5.06,5.06,5.06-2.27,5.06-5.06-2.27-5.06-5.06-5.06Z"/>
        <path d="M79.21,124.35c-.51,0-.92-.41-.92-.92v-11.97c0-.51,.41-.92,.92-.92s.92,.41,.92,.92v11.97c0,.51-.41,.92-.92,.92Z"/>
        <path d="M85.19,118.36h-11.92c-.51,0-.92-.41-.92-.92s.41-.92,.92-.92h11.92c.51,0,.92,.41,.92,.92s-.41,.92-.92,.92Z"/>
        <path d="M101.1,157.14h-11.96c-.51,0-.92-.41-.92-.92v-20.04c0-.51,.41-.92,.92-.92h11.96c.51,0,.92,.41,.92,.92v20.04c0,.51-.41,.92-.92,.92Zm-11.04-1.84h10.11v-18.2h-10.11v18.2Z"/>
        <path d="M101.1,146.78h-11.96c-.51,0-.92-.41-.92-.92s.41-.92,.92-.92h11.96c.51,0,.92,.41,.92,.92s-.41,.92-.92,.92Z"/>
        <path d="M85.18,157.14h-11.96c-.51,0-.92-.41-.92-.92v-20.04c0-.51,.41-.92,.92-.92h11.96c.51,0,.92,.41,.92,.92v20.04c0,.51-.41,.92-.92,.92Zm-11.04-1.84h10.11v-18.2h-10.11v18.2Z"/>
        <path d="M85.18,146.78h-11.96c-.51,0-.92-.41-.92-.92s.41-.92,.92-.92h11.96c.51,0,.92,.41,.92,.92s-.41,.92-.92,.92Z"/>
        <path d="M100.85,187.77h-11.96c-.51,0-.92-.41-.92-.92v-20.04c0-.51,.41-.92,.92-.92h11.96c.51,0,.92,.41,.92,.92v20.04c0,.51-.41,.92-.92,.92Zm-11.04-1.84h10.11v-18.2h-10.11v18.2Z"/>
        <path d="M100.85,177.41h-11.96c-.51,0-.92-.41-.92-.92s.41-.92,.92-.92h11.96c.51,0,.92,.41,.92,.92s-.41,.92-.92,.92Z"/>
        <path d="M84.93,187.77h-11.96c-.51,0-.92-.41-.92-.92v-20.04c0-.51,.41-.92,.92-.92h11.96c.51,0,.92,.41,.92,.92v20.04c0,.51-.41,.92-.92,.92Zm-11.04-1.84h10.11v-18.2h-10.11v18.2Z"/>
        <path d="M84.93,177.41h-11.96c-.51,0-.92-.41-.92-.92s.41-.92,.92-.92h11.96c.51,0,.92,.41,.92,.92s-.41,.92-.92,.92Z"/>
        <path d="M69.39,157.14h-11.96c-.51,0-.92-.41-.92-.92v-20.04c0-.51,.41-.92,.92-.92h11.96c.51,0,.92,.41,.92,.92v20.04c0,.51-.41,.92-.92,.92Zm-11.04-1.84h10.11v-18.2h-10.11v18.2Z"/>
        <path d="M69.39,146.78h-11.96c-.51,0-.92-.41-.92-.92s.41-.92,.92-.92h11.96c.51,0,.92,.41,.92,.92s-.41,.92-.92,.92Z"/>
        <path d="M69.14,187.77h-11.96c-.51,0-.92-.41-.92-.92v-20.04c0-.51,.41-.92,.92-.92h11.96c.51,0,.92,.41,.92,.92v20.04c0,.51-.41,.92-.92,.92Zm-11.04-1.84h10.11v-18.2h-10.11v18.2Z"/>
        <path d="M69.14,177.41h-11.96c-.51,0-.92-.41-.92-.92s.41-.92,.92-.92h11.96c.51,0,.92,.41,.92,.92s-.41,.92-.92,.92Z"/>
        <path d="M47.32,129.34H.92c-.36,0-.69-.21-.84-.54-.15-.33-.1-.71,.14-.99l24.06-27.88c.18-.2,.43-.32,.7-.32h48.88c.51,0,.92,.41,.92,.92s-.41,.92-.92,.92H25.41L2.94,127.5H47.32c.51,0,.92,.41,.92,.92s-.41,.92-.92,.92Z"/>
        <path d="M47.32,207.64H3.12c-.51,0-.92-.41-.92-.92v-78.3c0-.51,.41-.92,.92-.92s.92,.41,.92,.92v77.37H47.32c.51,0,.92,.41,.92,.92s-.41,.92-.92,.92Z"/>
        <path d="M34.81,207.64c-.51,0-.92-.41-.92-.92v-31.35H16.36v31.35c0,.51-.41,.92-.92,.92s-.92-.41-.92-.92v-32.27c0-.51,.41-.92,.92-.92h19.37c.51,0,.92,.41,.92,.92v32.27c0,.51-.41,.92-.92,.92Z"/>
        <path d="M39.82,150.16H11.02c-.51,0-.92-.41-.92-.92v-13.07c0-.51,.41-.92,.92-.92h28.8c.51,0,.92,.41,.92,.92v13.07c0,.51-.41,.92-.92,.92Zm-27.88-1.84h26.96v-11.23H11.94v11.23Z"/>
        <path d="M39.82,139.57H11.02c-.51,0-.92-.41-.92-.92s.41-.92,.92-.92h28.8c.51,0,.92,.41,.92,.92s-.41,.92-.92,.92Z"/>
        <path d="M25.42,150.16c-.51,0-.92-.41-.92-.92v-10.39c0-.51,.41-.92,.92-.92s.92,.41,.92,.92v10.39c0,.51-.41,.92-.92,.92Z"/>
        <path d="M192.22,65.47h-19.14c-5.31,0-9.62-4.32-9.62-9.62,0-4.92,3.66-8.98,8.46-9.55,.98-4.24,4.84-7.36,9.26-7.36s8.34,3.14,9.28,7.45c.58-.11,1.17-.16,1.77-.16,5.31,0,9.62,4.32,9.62,9.62s-4.32,9.62-9.62,9.62Zm-11.05-24.69c-3.76,0-7.01,2.8-7.57,6.51l-.11,.75-.76,.03c-4.17,.18-7.43,3.6-7.43,7.77s3.49,7.78,7.78,7.78h19.14c4.29,0,7.78-3.49,7.78-7.78s-3.49-7.78-7.78-7.78c-.76,0-1.52,.11-2.25,.33l-1.07,.32-.12-1.11c-.42-3.9-3.69-6.83-7.61-6.83Z"/>
        <path d="M255.98,86.22h-19.14c-5.31,0-9.62-4.32-9.62-9.62s4.32-9.62,9.62-9.62c.6,0,1.19,.05,1.77,.16,.94-4.31,4.76-7.45,9.28-7.45s8.27,3.11,9.26,7.36c4.8,.57,8.46,4.64,8.46,9.55,0,5.31-4.32,9.62-9.62,9.62Zm-19.14-17.4c-4.29,0-7.78,3.49-7.78,7.78s3.49,7.78,7.78,7.78h19.14c4.29,0,7.78-3.49,7.78-7.78s-3.26-7.59-7.43-7.77l-.76-.03-.11-.75c-.56-3.71-3.81-6.51-7.57-6.51s-7.2,2.94-7.61,6.83l-.12,1.11-1.07-.32c-.73-.22-1.49-.33-2.25-.33Z"/>
        <g>
          <path class="cls-2" d="M337.44,21.17c-.09,6.14-5,11.05-11.14,11.14-6.14,.09-11.05-5.14-11.14-11.14-.09-6.14,5.14-11.05,11.14-11.14,6.14-.09,11.05,5.14,11.14,11.14,.01,.85,1.33,.85,1.32,0-.09-5.71-3.9-10.63-9.43-12.09-5.54-1.46-11.38,1.35-14.06,6.3-2.73,5.05-1.37,11.42,2.85,15.18,4.28,3.81,10.8,3.99,15.43,.74,3.29-2.31,5.15-6.15,5.21-10.13,.01-.85-1.3-.85-1.32,0Z"/>
          <g>
            <path class="cls-2" d="M309.81,8.82c1.78,1.43,3.57,2.86,5.35,4.3,.66,.53,1.59-.4,.93-.93-1.78-1.43-3.57-2.86-5.35-4.3-.66-.53-1.59,.4-.93,.93h0Z"/>
            <path class="cls-2" d="M321.06,8.4c-1.03-2.02-2.06-4.05-3.08-6.07-.38-.76-1.52-.09-1.14,.66l3.08,6.07c.38,.76,1.52,.09,1.14-.67h0Z"/>
            <path class="cls-2" d="M306.49,26.33c2.26-.52,4.52-1.03,6.78-1.55,.83-.19,.48-1.46-.35-1.27-2.26,.52-4.52,1.03-6.78,1.55-.83,.19-.48,1.46,.35,1.27h0Z"/>
            <path class="cls-2" d="M313.24,17.48c-2.25-.51-4.5-1.03-6.75-1.54-.83-.19-1.18,1.08-.35,1.27,2.25,.51,4.5,1.03,6.75,1.54,.83,.19,1.18-1.08,.35-1.27h0Z"/>
            <path class="cls-2" d="M325.64,.64V7.78c0,.85,1.32,.85,1.32,0V.64c0-.85-1.32-.85-1.32,0h0Z"/>
            <path class="cls-2" d="M332.84,9.06c.97-2.02,1.95-4.05,2.92-6.07,.37-.76-.77-1.43-1.14-.66l-2.92,6.07c-.37,.76,.77,1.43,1.14,.67h0Z"/>
            <path class="cls-2" d="M310.74,34.38c1.78-1.42,3.57-2.84,5.35-4.27,.66-.53-.27-1.46-.93-.93-1.78,1.42-3.57,2.84-5.35,4.27-.66,.53,.27,1.46,.93,.93h0Z"/>
            <path class="cls-2" d="M346.46,25.06c-2.26-.52-4.52-1.03-6.78-1.55-.83-.19-1.18,1.08-.35,1.27,2.26,.52,4.52,1.03,6.78,1.55,.83,.19,1.18-1.08,.35-1.27h0Z"/>
            <path class="cls-2" d="M336.22,29.88c1.88,1.5,3.76,3,5.64,4.5,.66,.52,1.6-.4,.93-.93-1.88-1.5-3.76-3-5.64-4.5-.66-.52-1.6,.4-.93,.93h0Z"/>
            <path class="cls-2" d="M339.68,18.76c2.26-.52,4.52-1.03,6.78-1.55,.83-.19,.48-1.46-.35-1.27-2.26,.52-4.52,1.03-6.78,1.55-.83,.19-.48,1.46,.35,1.27h0Z"/>
            <path class="cls-2" d="M341.86,7.89c-1.8,1.43-3.59,2.86-5.39,4.3-.66,.53,.27,1.46,.93,.93,1.8-1.43,3.59-2.86,5.39-4.3,.66-.53-.27-1.46-.93-.93h0Z"/>
            <path class="cls-2" d="M335.77,39.28c-1.03-2.13-2.06-4.27-3.08-6.4-.37-.77-1.5-.1-1.14,.67,1.03,2.13,2.06,4.27,3.08,6.4,.37,.77,1.5,.1,1.14-.66h0Z"/>
            <path class="cls-2" d="M325.64,34.57v7.06c0,.85,1.32,.85,1.32,0v-7.06c0-.85-1.32-.85-1.32,0h0Z"/>
            <path class="cls-2" d="M317.97,39.94c1.03-2.03,2.06-4.07,3.08-6.1,.38-.76-.75-1.42-1.14-.66l-3.08,6.1c-.38,.76,.75,1.42,1.14,.66h0Z"/>
          </g>
        </g>
        <path d="M81.63,58.11h-18.21c-5.07,0-9.2-4.13-9.2-9.2s4.13-9.2,9.2-9.2c.55,0,1.11,.05,1.65,.15,.92-4.1,4.56-7.08,8.86-7.08s7.89,2.96,8.84,7c4.57,.56,8.06,4.44,8.06,9.13,0,5.07-4.13,9.2-9.2,9.2Zm-18.21-16.56c-4.06,0-7.36,3.3-7.36,7.36s3.3,7.36,7.36,7.36h18.21c4.06,0,7.36-3.3,7.36-7.36s-3.09-7.17-7.03-7.35l-.76-.03-.11-.75c-.53-3.51-3.61-6.16-7.16-6.16s-6.8,2.78-7.2,6.46l-.12,1.11-1.07-.32c-.69-.21-1.41-.31-2.13-.31Z"/>
        <path d="M63.51,69.03c-.51,0-.92-.41-.92-.92v-4.23c0-.51,.41-.92,.92-.92s.92,.41,.92,.92v4.23c0,.51-.41,.92-.92,.92Z"/>
        <path d="M63.51,83.71c-.51,0-.92-.41-.92-.92v-9.05c0-.51,.41-.92,.92-.92s.92,.41,.92,.92v9.05c0,.51-.41,.92-.92,.92Z"/>
        <path d="M70.48,83.71c-.51,0-.92-.41-.92-.92v-4.23c0-.51,.41-.92,.92-.92s.92,.41,.92,.92v4.23c0,.51-.41,.92-.92,.92Z"/>
        <path d="M70.48,73.85c-.51,0-.92-.41-.92-.92v-9.05c0-.51,.41-.92,.92-.92s.92,.41,.92,.92v9.05c0,.51-.41,.92-.92,.92Z"/>
        <path d="M77.53,69.03c-.51,0-.92-.41-.92-.92v-4.23c0-.51,.41-.92,.92-.92s.92,.41,.92,.92v4.23c0,.51-.41,.92-.92,.92Z"/>
        <path d="M77.53,83.71c-.51,0-.92-.41-.92-.92v-9.05c0-.51,.41-.92,.92-.92s.92,.41,.92,.92v9.05c0,.51-.41,.92-.92,.92Z"/>
        <path d="M84.5,83.71c-.51,0-.92-.41-.92-.92v-4.23c0-.51,.41-.92,.92-.92s.92,.41,.92,.92v4.23c0,.51-.41,.92-.92,.92Z"/>
        <path d="M84.5,73.85c-.51,0-.92-.41-.92-.92v-9.05c0-.51,.41-.92,.92-.92s.92,.41,.92,.92v9.05c0,.51-.41,.92-.92,.92Z"/>
      </g>
    </g>
  </g>
</svg>