<?xml version="1.0" encoding="UTF-8"?>
<svg xmlns="http://www.w3.org/2000/svg" viewBox="0 0 694.17 1914.13">
  <defs>
    <style>
      .cls-1 {
        fill: #e08a7e;
      }

      .cls-2 {
        fill: none;
        stroke: #54160e;
        stroke-linecap: round;
        stroke-linejoin: round;
        stroke-width: 1.95px;
      }

      .cls-3 {
        fill: #f9c5b8;
      }

      .cls-4 {
        fill: #e07c71;
      }

      .cls-5 {
        isolation: isolate;
      }

      .cls-6 {
        fill: #c9c3bd;
      }

      .cls-7 {
        fill: #4d61a3;
      }

      .cls-8, .cls-9 {
        fill: #e4e0dd;
      }

      .cls-10 {
        fill: #f7b7aa;
      }

      .cls-11 {
        fill: #19223c;
      }

      .cls-12, .cls-13 {
        fill: #f8c2be;
      }

      .cls-14 {
        fill: #5167af;
      }

      .cls-15 {
        fill: #f29487;
      }

      .cls-16 {
        fill: #1c2642;
      }

      .cls-9, .cls-17, .cls-13 {
        mix-blend-mode: multiply;
      }
    </style>
  </defs>
  <g class="cls-5">
    <g id="Capa_1" data-name="Capa 1">
      <g>
        <path class="cls-3" d="M245.77,1795.18c3.45,13.7-.78,42.24-.78,42.24-1.66,14.17-28.73,30.96-58.18,48.16,0,0-15.72,14.79-14.28,18.13,3.75,8.72,7.77,8.14,15.7,7.27,20.22-2.21,37.32-10.76,56.38-15.09,9.72-2.21,29.04-4.43,35.29-13.24,7.61-10.73,.81-22.69-.22-35.82l3.79-60.85-37.7,9.2Z"/>
        <path class="cls-11" d="M230.92,1880.16c-10.77,3.87-32.76,13.79-44.11,5.41-12.42,7.35-22.3,14.55-23.06,18.1-2.28,10.37,14.63,11.07,22.55,10.19,20.22-2.21,38.73-11.12,57.79-15.45,9.72-2.2,31.15-5.1,37.39-13.9,6.68-9.42,4.64-23.8-1.2-32.92-11.47,15.52-31.76,22.25-49.36,28.57Z"/>
        <path class="cls-3" d="M421.95,1795.18c-3.45,13.7,.8,42.24,.8,42.24,1.63,14.17,28.72,30.96,58.17,48.16,0,0,15.72,14.79,14.28,18.13-3.76,8.72-7.78,8.14-15.7,7.27-20.22-2.21-37.32-10.76-56.39-15.09-9.73-2.21-29.03-4.43-35.28-13.24-7.62-10.73-.83-22.69,.21-35.82l-3.77-60.85,37.68,9.2Z"/>
        <path class="cls-11" d="M436.8,1880.16c10.78,3.87,32.76,13.79,44.11,5.41,12.42,7.35,22.29,14.55,23.07,18.1,2.26,10.37-14.64,11.07-22.56,10.19-20.23-2.21-38.73-11.12-57.79-15.45-9.72-2.2-31.15-5.1-37.39-13.9-6.69-9.42-4.64-23.8,1.19-32.92,11.47,15.52,31.76,22.25,49.36,28.57Z"/>
        <path class="cls-15" d="M267.98,70.18c.06-.13,.11-.25,.18-.37,11.65-24.13,39.91-30.11,63.5-38.65,49.6-17.91,112.21,22.29,135.58,64.01,15.38,27.46,11.78,75.09,13.61,105.05,2.72,44.74,8.11,66.7,33.34,103.01,19.88,28.6,33.33,62.44,29.88,96.75-4.06,40.56-23.03,74.28-47.58,107.35-29.81,40.14-27.62,69.98-28.01,117.14-.33,40.74-19.64,91.11-69.27,89.57-46.59-1.44-82.93-41.1-106.63-77.33-34.16-52.23-31.42-117.74-20.58-176.31,4.29-23.1,10.38-48.14,7.16-72.14-2.81-20.98-14.46-33.31-24.01-51.45-30.23-57.38-21.91-124.81-7.41-185.41,5.82-24.27,9.74-59.16,20.25-81.23Z"/>
        <path class="cls-1" d="M284.98,77.22c6.04-14.91,13.79-28.69,24.62-38.61,24.97-22.87,78.7-9.9,104.3,4.73,22.3,12.75,43.08,25.94,51.57,50.74,20.46,59.68,4.47,126.05,29.47,184.63,18.14,42.47,40.65,80.15,35.8,127.95-1.79,17.65-9.66,38.69-19.73,53.56-67.95,100.3-63.92,187.81-73.63,202.31-25.74,38.44-21.22-110.55-61.74-130-28.22-13.55-43.97-38.71-61.11-63.51-8.99-13.01-18.14-25.88-26.66-39.17-9.87-15.36-20.06-33.9-16.36-53.27,3.5-18.35,26.43-24.81,34.6-42.01,8.12-17.07,4.9-39.96-.51-57.37-8.66-27.89-29.09-50.65-37.37-79.69-6.01-21.11-7.18-41.95-.79-63.7,4.99-17.01,9.9-37.71,17.54-56.58Z"/>
        <path class="cls-11" d="M224.76,1322.45c6.94,40.77,20.94,47.98,52.43,49.83,31.49,1.85,17.47-4.94,21.28-36.85-.27-15.66,25.83-267.15,27.9-282.81,15.38-116.68,22.02-194.01,22.02-194.01v-99.61h-117.17c-13.44,44.57-33.06,97.46-33.06,194.89,0,150.6,24.11,345.33,26.59,368.54Z"/>
        <path class="cls-11" d="M264.73,1283.44c-22.87-2.86-40.53,34.13-40.53,34.13,6.7,50.18-9.14,92.04-8.08,176.28,1.22,96.9,26.55,322.49,26.55,322.49,15.17,2.79,33.48,9.52,46.52-5.99,0,0,12.43-235.82,17.99-317.66,5.56-81.84-12.5-107.2-8.38-163.92-2-34.3-16.3-43.11-34.07-45.33Z"/>
        <path class="cls-16" d="M444.78,1322.45c-6.94,40.77-20.94,47.98-52.43,49.83-31.49,1.85-17.46-4.94-21.28-36.85,.28-15.66-25.83-267.15-27.9-282.81-15.38-116.68-22.02-194.01-22.02-194.01l-95.45-78.34,5.53-21.27h207.09c13.44,44.57,33.05,97.46,33.05,194.89,0,150.6-24.11,345.33-26.59,368.54Z"/>
        <path class="cls-16" d="M404.8,1283.44c22.86-2.86,40.52,34.13,40.52,34.13-6.7,50.18,9.15,92.04,8.09,176.28-1.23,96.9-26.56,322.49-26.56,322.49-15.16,2.79-33.48,9.52-46.52-5.99,0,0-12.43-235.82-17.99-317.66-5.56-81.84,12.48-107.2,8.37-163.92,2.02-34.3,16.31-43.11,34.08-45.33Z"/>
        <path class="cls-7" d="M253.42,372.91c-53.92,.03-66.58,98.83-76.16,131.73-9.15,31.36-23.19,74.44-34,105.09-6.69,18.95-15.27,26.26,5.88,39.67,32.46,20.59,47,2.25,52.39-9.76,18.84-41.98,71.18-173.49,79.32-212.46,8.83-42.33-27.43-54.27-27.43-54.27Z"/>
        <path class="cls-14" d="M430.41,353.77c32.01,3.45,50.66,8.56,54.84,21.02,4.72,14.06-43.35,154.65-58.33,232.05-9.15,47.35,28.04,138.62,27.17,146.56-1.29,11.82-160.08,101.67-234.65,30.62-7.3-6.95,28.71-142.39,29.12-168.65,.99-62.53-22.82-61.97-30.09-109.78-8.57-56.36,29.39-127.79,34.95-132.67,0,0,12.93-7.12,21.39-8.67,16.77-3.08,14.4,18.32,31.07,22.71,25.75,6.78,51.73,11.68,78.44,11.78l46.1-44.97Z"/>
        <path class="cls-9" d="M426.92,606.84c12.08-62.41,45.65-165.85,55.73-210.98-14.26-.03-28.52-.46-41.87,3.82,0,0,0,0,0,0-22.62,27.47-28.53,57.85-32.25,92.33-3.64,33.86-27.38,62.82-60.14,62.82,0,0,37.35,9.74,56.38,1.18,0,0-6.35,136.07,48.01,199.66,.79-.93,1.25-1.7,1.31-2.28,.87-7.94-36.32-99.21-27.17-146.56Z"/>
        <path class="cls-3" d="M430.41,353.77c-4.88,0-53.97-30.96-31.68-137.92l-11.01-2.3c-25.54,6.38-86.32,6.22-75.07,31.73,44.29,100.42-24.87,119.62-37.85,118.97-17.51-.87-12.13,79.17,57.3,79.17s89.85-63.24,94.09-72.43c4.84-10.5,4.22-17.22,4.22-17.22Z"/>
        <path class="cls-3" d="M177.44,627.41c-31.92-17.92-40.87,20.29-50.66,41.77-13.31,29.16-59.31,121.8-65.67,128.8-6.36,7-12.34,15.53-22.8,21.68-12.08,7.1-20.93,14.68-28.32,26.53-2.73,4.38-6.78,13.36-4.3,15.74,4.37,4.18,7.42,.17,12.1-7.11,1.29-1.99,6.82-6.54,9.18-10.72-3.64,14.01-23.13,32.15-26.29,49.38-1.92,10.46-.27,17.52,11.32,18.68,14.17,1.44,14.99-10.44,24.89-16.93,3.98-2.61,12.65-2.71,20.84-15.97,4.57-7.41,9.12-16.86,11.7-25.07,3.28-10.47,7.19-24.73,10.89-32.32,3.71-7.59,81.11-100.92,93.56-127.97,14.75-32.04,16.39-59.28,3.56-66.48Z"/>
        <path class="cls-14" d="M460.9,362.33c53.91,.66,51.42,99.43,60.63,132.44,8.78,31.47,22.31,74.71,32.76,105.48,6.47,19.02,14.97,26.44-6.33,39.6-32.7,20.21-47.03,1.7-52.27-10.37-18.34-42.2-58.07-167.73-65.75-206.79-8.34-42.43,30.97-60.36,30.97-60.36Z"/>
        <path class="cls-3" d="M519.92,617.53c32.13-17.54,40.63,20.76,50.18,42.36,12.95,29.32,57.88,122.49,64.16,129.56,6.28,7.07,12.16,15.67,22.54,21.94,12,7.24,20.75,14.93,28,26.86,2.69,4.41,6.63,13.44,4.12,15.79-4.4,4.14-7.42,.08-12.01-7.24-1.26-2.01-6.74-6.62-9.06-10.83,3.48,14.05,22.76,32.42,25.73,49.69,1.79,10.48,.04,17.52-11.55,18.55-14.19,1.27-14.87-10.62-24.69-17.23-3.96-2.66-12.63-2.86-20.66-16.21-4.48-7.47-8.93-16.97-11.4-25.21-3.15-10.51-6.9-24.81-10.52-32.45-3.62-7.63-79.93-101.87-92.06-129.06-14.37-32.21-15.7-59.46-2.78-66.52Z"/>
        <path class="cls-9" d="M401.44,318.15c-8.49-20.42-12.78-61.32-2.7-102.3h-9.17c-27.34,4.71-54.94,10.09-78.06,21.58-.45,2.31-.15,4.9,1.15,7.84,8.75,19.84,13.02,36.47,14.22,50.45,10.81,.6,22.67-.33,33.86,1.45,16.43,2.61,30.92,12.53,40.7,20.98Z"/>
        <path class="cls-3" d="M281.43,114.2c-9.22,21.76-4.47,31.85-3.19,52.33,1.22,19.51,.57,23.42,4.1,39.28,4.48,20.21,21.49,36.99,38.93,49.61,28.59,18.78,54.96-3.34,71.24-27.4,31.9-47.15,29.39-95.64,17.99-121.36-16.04-37.18-51.58-38.87-86.33-30.82,0,0-28.27,4.24-42.74,38.37Z"/>
        <g>
          <g>
            <path class="cls-2" d="M306.45,173.91s-1.29-4.14-5.93-4.14-5.39,4.14-5.39,4.14"/>
            <path class="cls-2" d="M362.21,173.91s1.3-4.14,5.93-4.14,5.39,4.14,5.39,4.14"/>
            <path class="cls-4" d="M355.73,158.57c3.98,.14,7.02-2.95,11.18-2.77,4.17,.17,8.43,3.48,12.47,1.81,1.41-.59,2.18-1.98,1.4-3.44-2.21-4.14-9.46-5.63-13.87-5.54-4.72,.11-11.42,2.97-12.86,7.73-.34,1.12,.58,2.17,1.68,2.21h0Z"/>
            <path class="cls-4" d="M313.39,156.36c-1.38-4.53-7.4-7.19-11.86-7.63-4.61-.46-12.53,1.07-14.87,5.44-.78,1.46-.01,2.85,1.4,3.44,3.63,1.5,7.72-1.06,11.41-1.67,4.68-.78,7.87,2.79,12.24,2.64,1.1-.04,2.02-1.09,1.68-2.21h0Z"/>
          </g>
          <path class="cls-10" d="M394.19,184.89c-12.64-6.82-42.56,16.27-22.74,27.23,19.81,10.96,35.37-20.41,22.74-27.23Z"/>
          <path class="cls-10" d="M279.24,184.48c.41,6.96,1.01,12.19,3.15,21.8,.41,1.84,.95,3.64,1.56,5.41,4.71,3.07,10.68,3.98,17.1,.43,19.35-10.71-8.73-32.97-21.81-27.64Z"/>
          <g>
            <g class="cls-17">
              <path class="cls-6" d="M313.69,158.4c1.22,2.33,2.71,4.49,3.99,6.79,1.42,2.58,2.37,5.29,3.5,8,.11,.25,.55,.26,.52-.07-.43-5.47-4.2-10.96-7.96-14.76-.03-.03-.07,0-.05,.04h0Z"/>
            </g>
            <g class="cls-17">
              <path class="cls-6" d="M324.67,185.01c.61,6.95-1.95,12.72-2.75,19.41-.53,4.4,7.15,4.6,9.83,3.58,.24-.09,.15-.45-.11-.38-2.04,.57-8.6,.42-8.5-3.19,.06-2.16,.84-4.35,1.39-6.43,1.16-4.4,1.32-8.55,.47-13.02-.04-.18-.34-.14-.33,.04h0Z"/>
            </g>
          </g>
          <g class="cls-17">
            <path class="cls-8" d="M336.24,242.84c2.54-1.92,5.17-2.58,8.21-3.25,.53-.12,.6-.88,.15-1.13-3.34-1.87-7.19,.57-9.31,3.14-.53,.64,.19,1.82,.96,1.24h0Z"/>
          </g>
          <g>
            <path class="cls-13" d="M357.52,218.09s-6.37,1.86-17.01,1.86c-1.74,0-4.66,.18-6.83,3.27-1.86-1.2-3.34-2.3-5.93-1.19-3.7,1.58-8.12,1.41-8.12,1.41,0,0,1.43,2.71,3.58,5.07,2.81,3.09,6.71,6.18,12.64,5.67,8.93-.76,14.25-5.27,17.13-9.1,2.51-3.33,4.54-6.99,4.54-6.99Z"/>
            <g class="cls-17">
              <path class="cls-12" d="M357.46,217.98c-10.44,6.49-26.4,15.68-37.74,5.36-.11-.1-.26,.05-.17,.17,8.88,10.55,30.35,3.62,38.05-5.34,.08-.1-.02-.26-.14-.19h0Z"/>
            </g>
          </g>
        </g>
        <g>
          <path class="cls-15" d="M478.05,101.95C454.34-16.67,379.06,12.4,378.5,11.87c-29-27.48-81.69-6.84-111.56,57.85-8.12,17.59-22.47,125.32-6.38,87.27,16.07-38.05,79.51-18,95.17-60.63,1.79,36.98,34.1,39.9,37.47,57.67,4.14,21.89,16.37,21.28,20.55,15.71,5.83-7.78,2.22,8.16-5.71,29.3-3.07,8.17-13.04,40.84-9.29,60.66,3.76,19.82,27.22,35.5,10.35,76.27-22.15,53.57,10.69,69.66,9.21,113.3-1.49,43.65-19.73,43.65-24.29,72.97-4.56,29.32,9.77,100.53,44.24,82.54,7.71-4.03,4.07-19.62,5.23-27.86,1.21-8.55,3.51-17.27,5.45-25.71,8.25-35.92,33.84-60.87,48.53-93.63,14.15-31.58,25.2-65.59,15.77-100.5-3.58-13.25-8.17-25.97-14.32-38.3-10.07-20.15-20.37-38.27-26.37-60.27-14.59-53.31,16.13-103.4,5.51-156.55Z"/>
          <path class="cls-3" d="M404.88,174.38c5.12-13.36,27.91-23.16,27.91-1.15,0,18.13-25.2,52.41-30.17,17.56l2.27-16.4Z"/>
        </g>
      </g>
    </g>
  </g>
</svg>